Pridi-300.ufo
<glyph name="exclam" format="1">
  <advance width="188"/>
  <unicode hex="0021"/>
  <note>
	exclam
  </note>
  <outline>
    <contour>
      <point x="131" y="164" type="line"/>
      <point x="138" y="647" type="line"/>
      <point x="50" y="647" type="line"/>
      <point x="56" y="164" type="line"/>
    </contour>
    <contour>
      <point x="139" y="0" type="line"/>
      <point x="139" y="77" type="line"/>
      <point x="49" y="77" type="line"/>
      <point x="49" y="0" type="line"/>
    </contour>
  </outline>
</glyph>
<glyph name="numbersign" format="1">
  <advance width="747"/>
  <unicode hex="0023"/>
  <note>
	numbersign
  </note>
  <outline>
    <contour>
      <point x="201" y="0" type="line"/>
      <point x="239" y="178" type="line"/>
      <point x="446" y="178" type="line"/>
      <point x="408" y="0" type="line"/>
      <point x="481" y="0" type="line"/>
      <point x="519" y="178" type="line"/>
      <point x="668" y="178" type="line"/>
      <point x="668" y="237" type="line"/>
      <point x="532" y="237" type="line"/>
      <point x="574" y="425" type="line"/>
      <point x="698" y="425" type="line"/>
      <point x="698" y="485" type="line"/>
      <point x="587" y="485" type="line"/>
      <point x="623" y="647" type="line"/>
      <point x="549" y="647" type="line"/>
      <point x="514" y="485" type="line"/>
      <point x="307" y="485" type="line"/>
      <point x="342" y="647" type="line"/>
      <point x="269" y="647" type="line"/>
      <point x="234" y="485" type="line"/>
      <point x="78" y="485" type="line"/>
      <point x="78" y="425" type="line"/>
      <point x="221" y="425" type="line"/>
      <point x="179" y="237" type="line"/>
      <point x="49" y="237" type="line"/>
      <point x="49" y="178" type="line"/>
      <point x="166" y="178" type="line"/>
      <point x="127" y="0" type="line"/>
    </contour>
    <contour>
      <point x="294" y="425" type="line"/>
      <point x="501" y="425" type="line"/>
      <point x="459" y="237" type="line"/>
      <point x="252" y="237" type="line"/>
    </contour>
  </outline>
</glyph>
<glyph name="dollar" format="1">
  <advance width="547"/>
  <unicode hex="0024"/>
  <note>
	dollar
  </note>
  <outline>
    <contour>
      <point x="310" y="-120" type="line"/>
      <point x="310" y="-13" type="line"/>
      <point x="433" y="-4"/>
      <point x="498" y="66"/>
      <point x="498" y="157" type="curve" smooth="yes"/>
      <point x="498" y="273"/>
      <point x="412" y="311"/>
      <point x="296" y="357" type="curve" smooth="yes"/>
      <point x="213" y="390"/>
      <point x="132" y="416"/>
      <point x="132" y="495" type="curve" smooth="yes"/>
      <point x="132" y="572"/>
      <point x="191" y="602"/>
      <point x="273" y="602" type="curve" smooth="yes"/>
      <point x="324" y="602"/>
      <point x="374" y="591"/>
      <point x="406" y="573" type="curve"/>
      <point x="406" y="515" type="line"/>
      <point x="485" y="515" type="line"/>
      <point x="485" y="600" type="line"/>
      <point x="444" y="630"/>
      <point x="380" y="654"/>
      <point x="310" y="660" type="curve"/>
      <point x="310" y="767" type="line"/>
      <point x="235" y="767" type="line"/>
      <point x="235" y="659" type="line"/>
      <point x="132" y="648"/>
      <point x="55" y="595"/>
      <point x="55" y="494" type="curve" smooth="yes"/>
      <point x="55" y="390"/>
      <point x="135" y="345"/>
      <point x="270" y="295" type="curve" smooth="yes"/>
      <point x="363" y="259"/>
      <point x="421" y="230"/>
      <point x="421" y="155" type="curve" smooth="yes"/>
      <point x="421" y="85"/>
      <point x="374" y="45"/>
      <point x="283" y="45" type="curve" smooth="yes"/>
      <point x="227" y="45"/>
      <point x="164" y="60"/>
      <point x="128" y="83" type="curve"/>
      <point x="128" y="142" type="line"/>
      <point x="49" y="142" type="line"/>
      <point x="49" y="55" type="line"/>
      <point x="95" y="20"/>
      <point x="165" y="-5"/>
      <point x="235" y="-13" type="curve"/>
      <point x="235" y="-120" type="line"/>
    </contour>
  </outline>
</glyph>
<glyph name="percent" format="1">
  <advance width="773"/>
  <unicode hex="0025"/>
  <note>
	percent
  </note>
  <outline>
    <contour>
      <point x="238" y="0" type="line"/>
      <point x="615" y="647" type="line"/>
      <point x="536" y="647" type="line"/>
      <point x="159" y="0" type="line"/>
    </contour>
    <contour>
      <point x="655" y="-15"/>
      <point x="724" y="54"/>
      <point x="724" y="139" type="curve" smooth="yes"/>
      <point x="724" y="224"/>
      <point x="655" y="293"/>
      <point x="570" y="293" type="curve" smooth="yes"/>
      <point x="485" y="293"/>
      <point x="416" y="224"/>
      <point x="416" y="139" type="curve" smooth="yes"/>
      <point x="416" y="54"/>
      <point x="485" y="-15"/>
      <point x="570" y="-15" type="curve" smooth="yes"/>
    </contour>
    <contour>
      <point x="518" y="45"/>
      <point x="477" y="87"/>
      <point x="477" y="139" type="curve" smooth="yes"/>
      <point x="477" y="191"/>
      <point x="518" y="232"/>
      <point x="570" y="232" type="curve" smooth="yes"/>
      <point x="622" y="232"/>
      <point x="664" y="191"/>
      <point x="664" y="139" type="curve" smooth="yes"/>
      <point x="664" y="87"/>
      <point x="622" y="45"/>
      <point x="570" y="45" type="curve" smooth="yes"/>
    </contour>
    <contour>
      <point x="151" y="414"/>
      <point x="109" y="456"/>
      <point x="109" y="508" type="curve" smooth="yes"/>
      <point x="109" y="560"/>
      <point x="151" y="601"/>
      <point x="203" y="601" type="curve" smooth="yes"/>
      <point x="255" y="601"/>
      <point x="296" y="560"/>
      <point x="296" y="508" type="curve" smooth="yes"/>
      <point x="296" y="456"/>
      <point x="255" y="414"/>
      <point x="203" y="414" type="curve" smooth="yes"/>
    </contour>
    <contour>
      <point x="288" y="354"/>
      <point x="357" y="423"/>
      <point x="357" y="508" type="curve" smooth="yes"/>
      <point x="357" y="593"/>
      <point x="288" y="662"/>
      <point x="203" y="662" type="curve" smooth="yes"/>
      <point x="118" y="662"/>
      <point x="49" y="593"/>
      <point x="49" y="508" type="curve" smooth="yes"/>
      <point x="49" y="423"/>
      <point x="118" y="354"/>
      <point x="203" y="354" type="curve" smooth="yes"/>
    </contour>
  </outline>
</glyph>
<glyph name="ampersand" format="1">
  <advance width="682"/>
  <unicode hex="0026"/>
  <note>
	ampersand
  </note>
  <outline>
    <contour>
      <point x="357" y="-15"/>
      <point x="416" y="1"/>
      <point x="477" y="53" type="curve"/>
      <point x="527" y="0" type="line"/>
      <point x="619" y="0" type="line"/>
      <point x="525" y="99" type="line"/>
      <point x="555" y="147"/>
      <point x="565" y="211"/>
      <point x="565" y="274" type="curve" smooth="yes"/>
      <point x="565" y="299"/>
      <point x="574" y="307"/>
      <point x="597" y="307" type="curve" smooth="yes"/>
      <point x="633" y="307" type="line"/>
      <point x="633" y="365" type="line"/>
      <point x="495" y="365" type="line"/>
      <point x="495" y="285" type="line" smooth="yes"/>
      <point x="495" y="237"/>
      <point x="489" y="193"/>
      <point x="472" y="157" type="curve"/>
      <point x="265" y="376" type="line" smooth="yes"/>
      <point x="203" y="441"/>
      <point x="173" y="467"/>
      <point x="173" y="517" type="curve" smooth="yes"/>
      <point x="173" y="579"/>
      <point x="201" y="602"/>
      <point x="257" y="602" type="curve" smooth="yes"/>
      <point x="310" y="602"/>
      <point x="337" y="572"/>
      <point x="337" y="518" type="curve" smooth="yes"/>
      <point x="337" y="478" type="line"/>
      <point x="416" y="478" type="line"/>
      <point x="416" y="514" type="line" smooth="yes"/>
      <point x="416" y="597"/>
      <point x="366" y="662"/>
      <point x="256" y="662" type="curve" smooth="yes"/>
      <point x="155" y="662"/>
      <point x="96" y="611"/>
      <point x="96" y="517" type="curve" smooth="yes"/>
      <point x="96" y="456"/>
      <point x="139" y="408"/>
      <point x="188" y="359" type="curve"/>
      <point x="95" y="306"/>
      <point x="49" y="255"/>
      <point x="49" y="157" type="curve" smooth="yes"/>
      <point x="49" y="47"/>
      <point x="139" y="-15"/>
      <point x="271" y="-15" type="curve" smooth="yes"/>
    </contour>
    <contour>
      <point x="201" y="44"/>
      <point x="126" y="77"/>
      <point x="126" y="157" type="curve" smooth="yes"/>
      <point x="126" y="231"/>
      <point x="159" y="273"/>
      <point x="235" y="310" type="curve"/>
      <point x="434" y="99" type="line"/>
      <point x="388" y="58"/>
      <point x="341" y="44"/>
      <point x="271" y="44" type="curve" smooth="yes"/>
    </contour>
  </outline>
</glyph>
<glyph name="quotesingle" format="1">
  <advance width="185"/>
  <unicode hex="0027"/>
  <note>
	quotesingle
  </note>
  <outline>
    <contour>
      <point x="125" y="534" type="line"/>
      <point x="136" y="721" type="line"/>
      <point x="49" y="721" type="line"/>
      <point x="60" y="534" type="line"/>
    </contour>
  </outline>
</glyph>
<glyph name="parenleft" format="1">
  <advance width="335"/>
  <unicode hex="0028"/>
  <note>
	parenleft
  </note>
  <outline>
    <contour>
      <point x="286" y="-75" type="line"/>
      <point x="175" y="14"/>
      <point x="126" y="153"/>
      <point x="126" y="316" type="curve" smooth="yes"/>
      <point x="126" y="478"/>
      <point x="176" y="618"/>
      <point x="286" y="707" type="curve"/>
      <point x="189" y="707" type="line"/>
      <point x="92" y="612"/>
      <point x="49" y="476"/>
      <point x="49" y="316" type="curve" smooth="yes"/>
      <point x="49" y="155"/>
      <point x="92" y="20"/>
      <point x="189" y="-75" type="curve"/>
    </contour>
  </outline>
</glyph>
<glyph name="parenright" format="1">
  <advance width="335"/>
  <unicode hex="0029"/>
  <note>
	parenright
  </note>
  <outline>
    <contour>
      <point x="145" y="-75" type="line"/>
      <point x="242" y="20"/>
      <point x="286" y="155"/>
      <point x="286" y="316" type="curve" smooth="yes"/>
      <point x="286" y="476"/>
      <point x="242" y="612"/>
      <point x="145" y="707" type="curve"/>
      <point x="49" y="707" type="line"/>
      <point x="160" y="618"/>
      <point x="209" y="479"/>
      <point x="209" y="316" type="curve" smooth="yes"/>
      <point x="209" y="153"/>
      <point x="158" y="13"/>
      <point x="49" y="-75" type="curve"/>
    </contour>
  </outline>
</glyph>
<glyph name="asterisk" format="1">
  <advance width="406"/>
  <unicode hex="002A"/>
  <note>
	asterisk
  </note>
  <outline>
    <contour>
      <point x="203" y="516" type="line"/>
      <point x="264" y="419" type="line"/>
      <point x="324" y="458" type="line"/>
      <point x="247" y="555" type="line"/>
      <point x="357" y="585" type="line"/>
      <point x="335" y="652" type="line"/>
      <point x="235" y="611" type="line"/>
      <point x="241" y="721" type="line"/>
      <point x="166" y="721" type="line"/>
      <point x="171" y="611" type="line"/>
      <point x="71" y="652" type="line"/>
      <point x="49" y="585" type="line"/>
      <point x="159" y="555" type="line"/>
      <point x="82" y="458" type="line"/>
      <point x="141" y="419" type="line"/>
    </contour>
  </outline>
</glyph>
<glyph name="plus" format="1">
  <advance width="411"/>
  <unicode hex="002B"/>
  <note>
	plus
  </note>
  <outline>
    <contour>
      <point x="240" y="168" type="line"/>
      <point x="240" y="276" type="line"/>
      <point x="362" y="276" type="line"/>
      <point x="362" y="335" type="line"/>
      <point x="240" y="335" type="line"/>
      <point x="240" y="443" type="line"/>
      <point x="169" y="443" type="line"/>
      <point x="169" y="335" type="line"/>
      <point x="49" y="335" type="line"/>
      <point x="49" y="276" type="line"/>
      <point x="169" y="276" type="line"/>
      <point x="169" y="168" type="line"/>
    </contour>
  </outline>
</glyph>
<glyph name="comma" format="1">
  <advance width="215"/>
  <unicode hex="002C"/>
  <note>
	comma
  </note>
  <outline>
    <contour>
      <point x="107" y="-117" type="line"/>
      <point x="166" y="78" type="line"/>
      <point x="79" y="78" type="line"/>
      <point x="49" y="-117" type="line"/>
    </contour>
  </outline>
</glyph>
<glyph name="hyphen" format="1">
  <advance width="378"/>
  <unicode hex="002D"/>
  <note>
	hyphen
  </note>
  <outline>
    <contour>
      <point x="329" y="276" type="line"/>
      <point x="329" y="335" type="line"/>
      <point x="49" y="335" type="line"/>
      <point x="49" y="276" type="line"/>
    </contour>
  </outline>
</glyph>
<glyph name="period" format="1">
  <advance width="179"/>
  <unicode hex="002E"/>
  <note>
	period
  </note>
  <outline>
    <contour>
      <point x="130" y="0" type="line"/>
      <point x="130" y="78" type="line"/>
      <point x="49" y="78" type="line"/>
      <point x="49" y="0" type="line"/>
    </contour>
  </outline>
</glyph>
<glyph name="slash" format="1">
  <advance width="428"/>
  <unicode hex="002F"/>
  <note>
	slash
  </note>
  <outline>
    <contour>
      <point x="129" y="0" type="line"/>
      <point x="379" y="676" type="line"/>
      <point x="300" y="676" type="line"/>
      <point x="49" y="0" type="line"/>
    </contour>
  </outline>
</glyph>
<glyph name="zero" format="1">
  <advance width="616"/>
  <unicode hex="0030"/>
  <note>
	zero
  </note>
  <outline>
    <contour>
      <point x="492" y="-15"/>
      <point x="577" y="99"/>
      <point x="577" y="324" type="curve" smooth="yes"/>
      <point x="577" y="548"/>
      <point x="492" y="662"/>
      <point x="308" y="662" type="curve" smooth="yes"/>
      <point x="124" y="662"/>
      <point x="39" y="548"/>
      <point x="39" y="324" type="curve" smooth="yes"/>
      <point x="39" y="99"/>
      <point x="124" y="-15"/>
      <point x="308" y="-15" type="curve" smooth="yes"/>
    </contour>
    <contour>
      <point x="190" y="45"/>
      <point x="116" y="119"/>
      <point x="116" y="324" type="curve" smooth="yes"/>
      <point x="116" y="528"/>
      <point x="190" y="602"/>
      <point x="308" y="602" type="curve" smooth="yes"/>
      <point x="426" y="602"/>
      <point x="500" y="528"/>
      <point x="500" y="324" type="curve" smooth="yes"/>
      <point x="500" y="119"/>
      <point x="426" y="45"/>
      <point x="308" y="45" type="curve" smooth="yes"/>
    </contour>
  </outline>
</glyph>
<glyph name="one" format="1">
  <advance width="394"/>
  <unicode hex="0031"/>
  <note>
	one
  </note>
  <outline>
    <contour>
      <point x="355" y="0" type="line"/>
      <point x="355" y="59" type="line"/>
      <point x="295" y="59" type="line" smooth="yes"/>
      <point x="264" y="59"/>
      <point x="256" y="70"/>
      <point x="256" y="96" type="curve" smooth="yes"/>
      <point x="256" y="647" type="line"/>
      <point x="183" y="647" type="line"/>
      <point x="39" y="557" type="line"/>
      <point x="70" y="505" type="line"/>
      <point x="177" y="570" type="line"/>
      <point x="177" y="96" type="line" smooth="yes"/>
      <point x="177" y="70"/>
      <point x="169" y="59"/>
      <point x="138" y="59" type="curve" smooth="yes"/>
      <point x="77" y="59" type="line"/>
      <point x="77" y="0" type="line"/>
    </contour>
  </outline>
</glyph>
<glyph name="two" format="1">
  <advance width="529"/>
  <unicode hex="0032"/>
  <note>
	two
  </note>
  <outline>
    <contour>
      <point x="473" y="0" type="line"/>
      <point x="473" y="59" type="line"/>
      <point x="129" y="59" type="line"/>
      <point x="129" y="152"/>
      <point x="181" y="211"/>
      <point x="283" y="260" type="curve" smooth="yes"/>
      <point x="425" y="328"/>
      <point x="480" y="386"/>
      <point x="480" y="493" type="curve" smooth="yes"/>
      <point x="480" y="609"/>
      <point x="385" y="662"/>
      <point x="260" y="662" type="curve" smooth="yes"/>
      <point x="182" y="662"/>
      <point x="101" y="637"/>
      <point x="51" y="603" type="curve"/>
      <point x="51" y="517" type="line"/>
      <point x="129" y="517" type="line"/>
      <point x="129" y="574" type="line"/>
      <point x="162" y="592"/>
      <point x="212" y="602"/>
      <point x="261" y="602" type="curve" smooth="yes"/>
      <point x="345" y="602"/>
      <point x="403" y="570"/>
      <point x="403" y="493" type="curve" smooth="yes"/>
      <point x="403" y="406"/>
      <point x="364" y="367"/>
      <point x="260" y="317" type="curve" smooth="yes"/>
      <point x="130" y="254"/>
      <point x="49" y="177"/>
      <point x="49" y="49" type="curve" smooth="yes"/>
      <point x="49" y="0" type="line"/>
    </contour>
  </outline>
</glyph>
<glyph name="three" format="1">
  <advance width="547"/>
  <unicode hex="0033"/>
  <note>
	three
  </note>
  <outline>
    <contour>
      <point x="423" y="-15"/>
      <point x="498" y="47"/>
      <point x="498" y="190" type="curve" smooth="yes"/>
      <point x="498" y="270"/>
      <point x="458" y="315"/>
      <point x="402" y="339" type="curve"/>
      <point x="468" y="374"/>
      <point x="491" y="430"/>
      <point x="491" y="496" type="curve" smooth="yes"/>
      <point x="491" y="611"/>
      <point x="395" y="662"/>
      <point x="272" y="662" type="curve" smooth="yes"/>
      <point x="193" y="662"/>
      <point x="111" y="637"/>
      <point x="62" y="602" type="curve"/>
      <point x="62" y="517" type="line"/>
      <point x="141" y="517" type="line"/>
      <point x="141" y="574" type="line"/>
      <point x="174" y="592"/>
      <point x="223" y="602"/>
      <point x="273" y="602" type="curve" smooth="yes"/>
      <point x="356" y="602"/>
      <point x="414" y="572"/>
      <point x="414" y="494" type="curve" smooth="yes"/>
      <point x="414" y="408"/>
      <point x="369" y="368"/>
      <point x="285" y="368" type="curve" smooth="yes"/>
      <point x="205" y="368" type="line"/>
      <point x="205" y="308" type="line"/>
      <point x="281" y="308" type="line" smooth="yes"/>
      <point x="376" y="308"/>
      <point x="421" y="268"/>
      <point x="421" y="189" type="curve" smooth="yes"/>
      <point x="421" y="83"/>
      <point x="375" y="45"/>
      <point x="270" y="45" type="curve" smooth="yes"/>
      <point x="215" y="45"/>
      <point x="165" y="59"/>
      <point x="128" y="83" type="curve"/>
      <point x="128" y="141" type="line"/>
      <point x="49" y="141" type="line"/>
      <point x="49" y="55" type="line"/>
      <point x="104" y="12"/>
      <point x="178" y="-15"/>
      <point x="266" y="-15" type="curve" smooth="yes"/>
    </contour>
  </outline>
</glyph>
<glyph name="four" format="1">
  <advance width="559"/>
  <unicode hex="0034"/>
  <note>
	four
  </note>
  <outline>
    <contour>
      <point x="510" y="0" type="line"/>
      <point x="510" y="59" type="line"/>
      <point x="454" y="59" type="line" smooth="yes"/>
      <point x="423" y="59"/>
      <point x="415" y="70"/>
      <point x="415" y="96" type="curve" smooth="yes"/>
      <point x="415" y="171" type="line"/>
      <point x="530" y="171" type="line"/>
      <point x="530" y="231" type="line"/>
      <point x="415" y="231" type="line"/>
      <point x="415" y="647" type="line"/>
      <point x="335" y="647" type="line"/>
      <point x="29" y="228" type="line"/>
      <point x="29" y="171" type="line"/>
      <point x="337" y="171" type="line"/>
      <point x="337" y="96" type="line" smooth="yes"/>
      <point x="337" y="70"/>
      <point x="329" y="59"/>
      <point x="298" y="59" type="curve" smooth="yes"/>
      <point x="241" y="59" type="line"/>
      <point x="241" y="0" type="line"/>
    </contour>
    <contour>
      <point x="340" y="548" type="line"/>
      <point x="340" y="231" type="line"/>
      <point x="108" y="231" type="line"/>
    </contour>
  </outline>
</glyph>
<glyph name="five" format="1">
  <advance width="550"/>
  <unicode hex="0035"/>
  <note>
	five
  </note>
  <outline>
    <contour>
      <point x="430" y="-15"/>
      <point x="501" y="71"/>
      <point x="501" y="214" type="curve" smooth="yes"/>
      <point x="501" y="372"/>
      <point x="405" y="425"/>
      <point x="270" y="425" type="curve" smooth="yes"/>
      <point x="149" y="425" type="line"/>
      <point x="163" y="587" type="line"/>
      <point x="479" y="587" type="line"/>
      <point x="479" y="647" type="line"/>
      <point x="92" y="647" type="line"/>
      <point x="72" y="412" type="line"/>
      <point x="72" y="364" type="line"/>
      <point x="258" y="364" type="line" smooth="yes"/>
      <point x="369" y="364"/>
      <point x="424" y="332"/>
      <point x="424" y="214" type="curve" smooth="yes"/>
      <point x="424" y="107"/>
      <point x="382" y="45"/>
      <point x="277" y="45" type="curve" smooth="yes"/>
      <point x="213" y="45"/>
      <point x="163" y="59"/>
      <point x="128" y="83" type="curve"/>
      <point x="128" y="141" type="line"/>
      <point x="49" y="141" type="line"/>
      <point x="49" y="55" type="line"/>
      <point x="106" y="12"/>
      <point x="175" y="-15"/>
      <point x="273" y="-15" type="curve" smooth="yes"/>
    </contour>
  </outline>
</glyph>
<glyph name="six" format="1">
  <advance width="558"/>
  <unicode hex="0036"/>
  <note>
	six
  </note>
  <outline>
    <contour>
      <point x="447" y="-15"/>
      <point x="529" y="67"/>
      <point x="529" y="231" type="curve" smooth="yes"/>
      <point x="529" y="375"/>
      <point x="447" y="456"/>
      <point x="305" y="456" type="curve" smooth="yes"/>
      <point x="223" y="456"/>
      <point x="171" y="432"/>
      <point x="126" y="375" type="curve"/>
      <point x="147" y="521"/>
      <point x="206" y="601"/>
      <point x="318" y="601" type="curve" smooth="yes"/>
      <point x="375" y="601"/>
      <point x="410" y="590"/>
      <point x="450" y="562" type="curve"/>
      <point x="482" y="613" type="line"/>
      <point x="435" y="646"/>
      <point x="389" y="662"/>
      <point x="315" y="662" type="curve" smooth="yes"/>
      <point x="186" y="662"/>
      <point x="49" y="582"/>
      <point x="49" y="277" type="curve" smooth="yes"/>
      <point x="49" y="65"/>
      <point x="146" y="-15"/>
      <point x="286" y="-15" type="curve" smooth="yes"/>
    </contour>
    <contour>
      <point x="190" y="45"/>
      <point x="126" y="99"/>
      <point x="126" y="240" type="curve" smooth="yes"/>
      <point x="126" y="344"/>
      <point x="211" y="396"/>
      <point x="291" y="396" type="curve" smooth="yes"/>
      <point x="403" y="396"/>
      <point x="452" y="343"/>
      <point x="452" y="231" type="curve" smooth="yes"/>
      <point x="452" y="98"/>
      <point x="402" y="45"/>
      <point x="286" y="45" type="curve" smooth="yes"/>
    </contour>
  </outline>
</glyph>
<glyph name="seven" format="1">
  <advance width="504"/>
  <unicode hex="0037"/>
  <note>
	seven
  </note>
  <outline>
    <contour>
      <point x="233" y="0" type="line"/>
      <point x="475" y="603" type="line"/>
      <point x="475" y="647" type="line"/>
      <point x="29" y="647" type="line"/>
      <point x="29" y="516" type="line"/>
      <point x="108" y="516" type="line"/>
      <point x="108" y="587" type="line"/>
      <point x="390" y="587" type="line"/>
      <point x="154" y="0" type="line"/>
    </contour>
  </outline>
</glyph>
<glyph name="eight" format="1">
  <advance width="575"/>
  <unicode hex="0038"/>
  <note>
	eight
  </note>
  <outline>
    <contour>
      <point x="442" y="-15"/>
      <point x="526" y="48"/>
      <point x="526" y="181" type="curve" smooth="yes"/>
      <point x="526" y="262"/>
      <point x="483" y="312"/>
      <point x="427" y="337" type="curve"/>
      <point x="492" y="372"/>
      <point x="516" y="423"/>
      <point x="516" y="489" type="curve" smooth="yes"/>
      <point x="516" y="604"/>
      <point x="421" y="662"/>
      <point x="287" y="662" type="curve" smooth="yes"/>
      <point x="154" y="662"/>
      <point x="59" y="604"/>
      <point x="59" y="489" type="curve" smooth="yes"/>
      <point x="59" y="423"/>
      <point x="83" y="371"/>
      <point x="148" y="337" type="curve"/>
      <point x="92" y="312"/>
      <point x="49" y="262"/>
      <point x="49" y="181" type="curve" smooth="yes"/>
      <point x="49" y="48"/>
      <point x="133" y="-15"/>
      <point x="287" y="-15" type="curve" smooth="yes"/>
    </contour>
    <contour>
      <point x="177" y="45"/>
      <point x="126" y="87"/>
      <point x="126" y="183" type="curve" smooth="yes"/>
      <point x="126" y="263"/>
      <point x="177" y="310"/>
      <point x="279" y="310" type="curve" smooth="yes"/>
      <point x="296" y="310" type="line" smooth="yes"/>
      <point x="399" y="310"/>
      <point x="449" y="263"/>
      <point x="449" y="183" type="curve" smooth="yes"/>
      <point x="449" y="87"/>
      <point x="398" y="45"/>
      <point x="287" y="45" type="curve" smooth="yes"/>
    </contour>
    <contour>
      <point x="183" y="366"/>
      <point x="136" y="402"/>
      <point x="136" y="489" type="curve" smooth="yes"/>
      <point x="136" y="567"/>
      <point x="194" y="602"/>
      <point x="287" y="602" type="curve" smooth="yes"/>
      <point x="381" y="602"/>
      <point x="439" y="567"/>
      <point x="439" y="489" type="curve" smooth="yes"/>
      <point x="439" y="402"/>
      <point x="393" y="366"/>
      <point x="297" y="366" type="curve" smooth="yes"/>
      <point x="278" y="366" type="line" smooth="yes"/>
    </contour>
  </outline>
</glyph>
<glyph name="nine" format="1">
  <advance width="578"/>
  <unicode hex="0039"/>
  <note>
	nine
  </note>
  <outline>
    <contour>
      <point x="400" y="-15"/>
      <point x="529" y="65"/>
      <point x="529" y="369" type="curve" smooth="yes"/>
      <point x="529" y="581"/>
      <point x="436" y="662"/>
      <point x="296" y="662" type="curve" smooth="yes"/>
      <point x="136" y="662"/>
      <point x="49" y="580"/>
      <point x="49" y="417" type="curve" smooth="yes"/>
      <point x="49" y="273"/>
      <point x="132" y="192"/>
      <point x="275" y="192" type="curve" smooth="yes"/>
      <point x="356" y="192"/>
      <point x="408" y="216"/>
      <point x="452" y="272" type="curve"/>
      <point x="431" y="125"/>
      <point x="377" y="45"/>
      <point x="266" y="45" type="curve" smooth="yes"/>
      <point x="210" y="45"/>
      <point x="176" y="57"/>
      <point x="135" y="85" type="curve"/>
      <point x="102" y="32" type="line"/>
      <point x="149" y="-1"/>
      <point x="198" y="-15"/>
      <point x="271" y="-15" type="curve" smooth="yes"/>
    </contour>
    <contour>
      <point x="176" y="251"/>
      <point x="126" y="303"/>
      <point x="126" y="416" type="curve" smooth="yes"/>
      <point x="126" y="549"/>
      <point x="179" y="602"/>
      <point x="296" y="602" type="curve" smooth="yes"/>
      <point x="391" y="602"/>
      <point x="452" y="548"/>
      <point x="452" y="408" type="curve" smooth="yes"/>
      <point x="452" y="303"/>
      <point x="370" y="251"/>
      <point x="288" y="251" type="curve" smooth="yes"/>
    </contour>
  </outline>
</glyph>
<glyph name="colon" format="1">
  <advance width="182"/>
  <unicode hex="003A"/>
  <note>
	colon
  </note>
  <outline>
    <contour>
      <point x="133" y="406" type="line"/>
      <point x="133" y="492" type="line"/>
      <point x="49" y="492" type="line"/>
      <point x="49" y="406" type="line"/>
    </contour>
    <contour>
      <point x="133" y="0" type="line"/>
      <point x="133" y="86" type="line"/>
      <point x="49" y="86" type="line"/>
      <point x="49" y="0" type="line"/>
    </contour>
  </outline>
</glyph>
<glyph name="semicolon" format="1">
  <advance width="215"/>
  <unicode hex="003B"/>
  <note>
	semicolon
  </note>
  <outline>
    <contour>
      <point x="105" y="-117" type="line"/>
      <point x="164" y="78" type="line"/>
      <point x="78" y="78" type="line"/>
      <point x="49" y="-117" type="line"/>
    </contour>
    <contour>
      <point x="164" y="406" type="line"/>
      <point x="164" y="492" type="line"/>
      <point x="76" y="492" type="line"/>
      <point x="76" y="406" type="line"/>
    </contour>
  </outline>
</glyph>
<glyph name="less" format="1">
  <advance width="626"/>
  <unicode hex="003C"/>
  <note>
	less
  </note>
  <outline>
    <contour>
      <point x="577" y="140" type="line"/>
      <point x="140" y="324" type="line"/>
      <point x="577" y="507" type="line"/>
      <point x="577" y="581" type="line"/>
      <point x="49" y="351" type="line"/>
      <point x="49" y="296" type="line"/>
      <point x="577" y="66" type="line"/>
    </contour>
  </outline>
</glyph>
<glyph name="equal" format="1">
  <advance width="400"/>
  <unicode hex="003D"/>
  <note>
	equal
  </note>
  <outline>
    <contour>
      <point x="351" y="200" type="line"/>
      <point x="351" y="260" type="line"/>
      <point x="49" y="260" type="line"/>
      <point x="49" y="200" type="line"/>
    </contour>
    <contour>
      <point x="351" y="346" type="line"/>
      <point x="351" y="405" type="line"/>
      <point x="49" y="405" type="line"/>
      <point x="49" y="346" type="line"/>
    </contour>
  </outline>
</glyph>
<glyph name="greater" format="1">
  <advance width="626"/>
  <unicode hex="003E"/>
  <note>
	greater
  </note>
  <outline>
    <contour>
      <point x="577" y="296" type="line"/>
      <point x="577" y="351" type="line"/>
      <point x="49" y="581" type="line"/>
      <point x="49" y="507" type="line"/>
      <point x="486" y="324" type="line"/>
      <point x="49" y="140" type="line"/>
      <point x="49" y="66" type="line"/>
    </contour>
  </outline>
</glyph>
<glyph name="question" format="1">
  <advance width="528"/>
  <unicode hex="003F"/>
  <note>
	question
  </note>
  <outline>
    <contour>
      <point x="261" y="152" type="line"/>
      <point x="261" y="181" type="line" smooth="yes"/>
      <point x="261" y="242"/>
      <point x="270" y="282"/>
      <point x="335" y="315" type="curve" smooth="yes"/>
      <point x="440" y="369"/>
      <point x="479" y="406"/>
      <point x="479" y="498" type="curve" smooth="yes"/>
      <point x="479" y="612"/>
      <point x="387" y="662"/>
      <point x="260" y="662" type="curve" smooth="yes"/>
      <point x="178" y="662"/>
      <point x="97" y="635"/>
      <point x="49" y="599" type="curve"/>
      <point x="49" y="512" type="line"/>
      <point x="123" y="512" type="line"/>
      <point x="123" y="568" type="line"/>
      <point x="156" y="588"/>
      <point x="206" y="602"/>
      <point x="259" y="602" type="curve" smooth="yes"/>
      <point x="344" y="602"/>
      <point x="402" y="574"/>
      <point x="402" y="498" type="curve" smooth="yes"/>
      <point x="402" y="428"/>
      <point x="373" y="403"/>
      <point x="302" y="369" type="curve" smooth="yes"/>
      <point x="212" y="326"/>
      <point x="182" y="269"/>
      <point x="182" y="183" type="curve" smooth="yes"/>
      <point x="182" y="152" type="line"/>
    </contour>
    <contour>
      <point x="269" y="0" type="line"/>
      <point x="269" y="82" type="line"/>
      <point x="174" y="82" type="line"/>
      <point x="174" y="0" type="line"/>
    </contour>
  </outline>
</glyph>
<glyph name="at" format="1">
  <advance width="858"/>
  <unicode hex="0040"/>
  <note>
	at
  </note>
  <outline>
    <contour>
      <point x="512" y="-110"/>
      <point x="585" y="-97"/>
      <point x="655" y="-70" type="curve"/>
      <point x="655" y="-6" type="line"/>
      <point x="583" y="-36"/>
      <point x="500" y="-46"/>
      <point x="431" y="-46" type="curve" smooth="yes"/>
      <point x="237" y="-46"/>
      <point x="121" y="61"/>
      <point x="121" y="278" type="curve" smooth="yes"/>
      <point x="121" y="471"/>
      <point x="229" y="586"/>
      <point x="431" y="586" type="curve" smooth="yes"/>
      <point x="662" y="586"/>
      <point x="736" y="482"/>
      <point x="736" y="286" type="curve" smooth="yes"/>
      <point x="736" y="168"/>
      <point x="705" y="121"/>
      <point x="651" y="121" type="curve" smooth="yes"/>
      <point x="614" y="121"/>
      <point x="598" y="146"/>
      <point x="598" y="186" type="curve" smooth="yes"/>
      <point x="598" y="326" type="line" smooth="yes"/>
      <point x="598" y="416"/>
      <point x="552" y="465"/>
      <point x="444" y="465" type="curve" smooth="yes"/>
      <point x="388" y="465"/>
      <point x="331" y="452"/>
      <point x="288" y="425" type="curve"/>
      <point x="288" y="364" type="line"/>
      <point x="361" y="364" type="line"/>
      <point x="361" y="393" type="line"/>
      <point x="384" y="404"/>
      <point x="407" y="409"/>
      <point x="445" y="409" type="curve" smooth="yes"/>
      <point x="505" y="409"/>
      <point x="523" y="386"/>
      <point x="523" y="329" type="curve" smooth="yes"/>
      <point x="523" y="294" type="line"/>
      <point x="393" y="285" type="line" smooth="yes"/>
      <point x="308" y="279"/>
      <point x="259" y="243"/>
      <point x="259" y="167" type="curve" smooth="yes"/>
      <point x="259" y="100"/>
      <point x="308" y="59"/>
      <point x="395" y="59" type="curve" smooth="yes"/>
      <point x="473" y="59"/>
      <point x="524" y="89"/>
      <point x="554" y="131" type="curve"/>
      <point x="563" y="94"/>
      <point x="602" y="61"/>
      <point x="654" y="61" type="curve" smooth="yes"/>
      <point x="770" y="61"/>
      <point x="809" y="162"/>
      <point x="809" y="285" type="curve" smooth="yes"/>
      <point x="809" y="508"/>
      <point x="705" y="652"/>
      <point x="431" y="652" type="curve" smooth="yes"/>
      <point x="191" y="652"/>
      <point x="49" y="507"/>
      <point x="49" y="278" type="curve" smooth="yes"/>
      <point x="49" y="49"/>
      <point x="173" y="-110"/>
      <point x="431" y="-110" type="curve" smooth="yes"/>
    </contour>
    <contour>
      <point x="354" y="115"/>
      <point x="330" y="130"/>
      <point x="330" y="168" type="curve" smooth="yes"/>
      <point x="330" y="214"/>
      <point x="353" y="228"/>
      <point x="404" y="232" type="curve" smooth="yes"/>
      <point x="523" y="240" type="line"/>
      <point x="523" y="208" type="line" smooth="yes"/>
      <point x="523" y="143"/>
      <point x="469" y="115"/>
      <point x="403" y="115" type="curve" smooth="yes"/>
    </contour>
  </outline>
</glyph>
<glyph name="B" format="1">
  <advance width="583"/>
  <unicode hex="0042"/>
  <note>
	B
  </note>
  <outline>
    <contour>
      <point x="376" y="0" type="line" smooth="yes"/>
      <point x="487" y="0"/>
      <point x="544" y="81"/>
      <point x="544" y="177" type="curve" smooth="yes"/>
      <point x="544" y="250"/>
      <point x="512" y="308"/>
      <point x="443" y="329" type="curve"/>
      <point x="504" y="355"/>
      <point x="532" y="412"/>
      <point x="532" y="477" type="curve" smooth="yes"/>
      <point x="532" y="582"/>
      <point x="474" y="647"/>
      <point x="357" y="647" type="curve" smooth="yes"/>
      <point x="39" y="647" type="line"/>
      <point x="39" y="588" type="line"/>
      <point x="71" y="588" type="line" smooth="yes"/>
      <point x="97" y="588"/>
      <point x="106" y="578"/>
      <point x="106" y="552" type="curve" smooth="yes"/>
      <point x="106" y="96" type="line" smooth="yes"/>
      <point x="106" y="69"/>
      <point x="97" y="59"/>
      <point x="71" y="59" type="curve" smooth="yes"/>
      <point x="39" y="59" type="line"/>
      <point x="39" y="0" type="line"/>
    </contour>
    <contour>
      <point x="186" y="297" type="line"/>
      <point x="340" y="297" type="line" smooth="yes"/>
      <point x="430" y="297"/>
      <point x="467" y="260"/>
      <point x="467" y="179" type="curve" smooth="yes"/>
      <point x="467" y="98"/>
      <point x="426" y="59"/>
      <point x="360" y="59" type="curve" smooth="yes"/>
      <point x="186" y="59" type="line"/>
    </contour>
    <contour>
      <point x="186" y="588" type="line"/>
      <point x="340" y="588" type="line" smooth="yes"/>
      <point x="424" y="588"/>
      <point x="455" y="552"/>
      <point x="455" y="474" type="curve" smooth="yes"/>
      <point x="455" y="400"/>
      <point x="412" y="356"/>
      <point x="332" y="356" type="curve" smooth="yes"/>
      <point x="186" y="356" type="line"/>
    </contour>
  </outline>
</glyph>
<glyph name="F" format="1">
  <advance width="544"/>
  <unicode hex="0046"/>
  <note>
	F
  </note>
  <outline>
    <contour>
      <point x="253" y="0" type="line"/>
      <point x="253" y="59" type="line"/>
      <point x="221" y="59" type="line" smooth="yes"/>
      <point x="195" y="59"/>
      <point x="186" y="69"/>
      <point x="186" y="95" type="curve" smooth="yes"/>
      <point x="186" y="295" type="line"/>
      <point x="378" y="295" type="line"/>
      <point x="378" y="354" type="line"/>
      <point x="186" y="354" type="line"/>
      <point x="186" y="588" type="line"/>
      <point x="396" y="588" type="line" smooth="yes"/>
      <point x="423" y="588"/>
      <point x="433" y="578"/>
      <point x="433" y="553" type="curve" smooth="yes"/>
      <point x="433" y="531" type="line"/>
      <point x="505" y="531" type="line"/>
      <point x="505" y="647" type="line"/>
      <point x="39" y="647" type="line"/>
      <point x="39" y="588" type="line"/>
      <point x="71" y="588" type="line" smooth="yes"/>
      <point x="97" y="588"/>
      <point x="106" y="578"/>
      <point x="106" y="552" type="curve" smooth="yes"/>
      <point x="106" y="96" type="line" smooth="yes"/>
      <point x="106" y="69"/>
      <point x="97" y="59"/>
      <point x="71" y="59" type="curve" smooth="yes"/>
      <point x="39" y="59" type="line"/>
      <point x="39" y="0" type="line"/>
    </contour>
  </outline>
</glyph>
<glyph name="G" format="1">
  <advance width="611"/>
  <unicode hex="0047"/>
  <note>
	G
  </note>
  <outline>
    <contour>
      <point x="438" y="-15"/>
      <point x="508" y="1"/>
      <point x="572" y="44" type="curve"/>
      <point x="572" y="333" type="line"/>
      <point x="347" y="333" type="line"/>
      <point x="347" y="273" type="line"/>
      <point x="493" y="273" type="line"/>
      <point x="493" y="70" type="line"/>
      <point x="451" y="52"/>
      <point x="408" y="45"/>
      <point x="353" y="45" type="curve" smooth="yes"/>
      <point x="205" y="45"/>
      <point x="116" y="148"/>
      <point x="116" y="320" type="curve" smooth="yes"/>
      <point x="116" y="496"/>
      <point x="198" y="602"/>
      <point x="345" y="602" type="curve" smooth="yes"/>
      <point x="399" y="602"/>
      <point x="440" y="594"/>
      <point x="472" y="577" type="curve"/>
      <point x="472" y="518" type="line"/>
      <point x="552" y="518" type="line"/>
      <point x="552" y="608" type="line"/>
      <point x="502" y="644"/>
      <point x="436" y="662"/>
      <point x="345" y="662" type="curve" smooth="yes"/>
      <point x="132" y="662"/>
      <point x="39" y="514"/>
      <point x="39" y="320" type="curve" smooth="yes"/>
      <point x="39" y="126"/>
      <point x="145" y="-15"/>
      <point x="351" y="-15" type="curve" smooth="yes"/>
    </contour>
  </outline>
</glyph>
<glyph name="H" format="1">
  <advance width="679"/>
  <unicode hex="0048"/>
  <note>
	H
  </note>
  <outline>
    <contour>
      <point x="251" y="0" type="line"/>
      <point x="251" y="59" type="line"/>
      <point x="221" y="59" type="line" smooth="yes"/>
      <point x="195" y="59"/>
      <point x="186" y="69"/>
      <point x="186" y="96" type="curve" smooth="yes"/>
      <point x="186" y="295" type="line"/>
      <point x="493" y="295" type="line"/>
      <point x="493" y="96" type="line" smooth="yes"/>
      <point x="493" y="69"/>
      <point x="483" y="59"/>
      <point x="458" y="59" type="curve" smooth="yes"/>
      <point x="427" y="59" type="line"/>
      <point x="427" y="0" type="line"/>
      <point x="640" y="0" type="line"/>
      <point x="640" y="59" type="line"/>
      <point x="609" y="59" type="line" smooth="yes"/>
      <point x="583" y="59"/>
      <point x="573" y="69"/>
      <point x="573" y="96" type="curve" smooth="yes"/>
      <point x="573" y="552" type="line" smooth="yes"/>
      <point x="573" y="578"/>
      <point x="583" y="588"/>
      <point x="609" y="588" type="curve" smooth="yes"/>
      <point x="640" y="588" type="line"/>
      <point x="640" y="647" type="line"/>
      <point x="427" y="647" type="line"/>
      <point x="427" y="588" type="line"/>
      <point x="458" y="588" type="line" smooth="yes"/>
      <point x="483" y="588"/>
      <point x="493" y="579"/>
      <point x="493" y="552" type="curve" smooth="yes"/>
      <point x="493" y="354" type="line"/>
      <point x="186" y="354" type="line"/>
      <point x="186" y="552" type="line" smooth="yes"/>
      <point x="186" y="578"/>
      <point x="195" y="588"/>
      <point x="221" y="588" type="curve" smooth="yes"/>
      <point x="251" y="588" type="line"/>
      <point x="251" y="647" type="line"/>
      <point x="39" y="647" type="line"/>
      <point x="39" y="588" type="line"/>
      <point x="71" y="588" type="line" smooth="yes"/>
      <point x="97" y="588"/>
      <point x="106" y="578"/>
      <point x="106" y="552" type="curve" smooth="yes"/>
      <point x="106" y="96" type="line" smooth="yes"/>
      <point x="106" y="69"/>
      <point x="97" y="59"/>
      <point x="71" y="59" type="curve" smooth="yes"/>
      <point x="39" y="59" type="line"/>
      <point x="39" y="0" type="line"/>
    </contour>
  </outline>
</glyph>
<glyph name="I" format="1">
  <advance width="292"/>
  <unicode hex="0049"/>
  <note>
	I
  </note>
  <outline>
    <contour>
      <point x="253" y="0" type="line"/>
      <point x="253" y="59" type="line"/>
      <point x="221" y="59" type="line" smooth="yes"/>
      <point x="195" y="59"/>
      <point x="186" y="69"/>
      <point x="186" y="95" type="curve" smooth="yes"/>
      <point x="186" y="552" type="line" smooth="yes"/>
      <point x="186" y="578"/>
      <point x="195" y="588"/>
      <point x="221" y="588" type="curve" smooth="yes"/>
      <point x="253" y="588" type="line"/>
      <point x="253" y="647" type="line"/>
      <point x="39" y="647" type="line"/>
      <point x="39" y="588" type="line"/>
      <point x="71" y="588" type="line" smooth="yes"/>
      <point x="97" y="588"/>
      <point x="106" y="578"/>
      <point x="106" y="552" type="curve" smooth="yes"/>
      <point x="106" y="96" type="line" smooth="yes"/>
      <point x="106" y="69"/>
      <point x="97" y="59"/>
      <point x="71" y="59" type="curve" smooth="yes"/>
      <point x="39" y="59" type="line"/>
      <point x="39" y="0" type="line"/>
    </contour>
  </outline>
</glyph>
<glyph name="K" format="1">
  <advance width="641"/>
  <unicode hex="004B"/>
  <note>
	K
  </note>
  <outline>
    <contour>
      <point x="249" y="0" type="line"/>
      <point x="249" y="59" type="line"/>
      <point x="222" y="59" type="line" smooth="yes"/>
      <point x="193" y="59"/>
      <point x="186" y="71"/>
      <point x="186" y="95" type="curve" smooth="yes"/>
      <point x="186" y="224" type="line"/>
      <point x="276" y="321" type="line"/>
      <point x="449" y="59" type="line"/>
      <point x="392" y="59" type="line"/>
      <point x="392" y="0" type="line"/>
      <point x="602" y="0" type="line"/>
      <point x="602" y="59" type="line"/>
      <point x="568" y="59" type="line" smooth="yes"/>
      <point x="542" y="59"/>
      <point x="526" y="69"/>
      <point x="511" y="92" type="curve" smooth="yes"/>
      <point x="325" y="373" type="line"/>
      <point x="496" y="556" type="line" smooth="yes"/>
      <point x="514" y="576"/>
      <point x="525" y="588"/>
      <point x="552" y="588" type="curve" smooth="yes"/>
      <point x="591" y="588" type="line"/>
      <point x="591" y="647" type="line"/>
      <point x="388" y="647" type="line"/>
      <point x="388" y="588" type="line"/>
      <point x="442" y="588" type="line"/>
      <point x="186" y="311" type="line"/>
      <point x="186" y="552" type="line" smooth="yes"/>
      <point x="186" y="578"/>
      <point x="195" y="588"/>
      <point x="221" y="588" type="curve" smooth="yes"/>
      <point x="241" y="588" type="line"/>
      <point x="241" y="647" type="line"/>
      <point x="47" y="647" type="line"/>
      <point x="47" y="588" type="line"/>
      <point x="71" y="588" type="line" smooth="yes"/>
      <point x="97" y="588"/>
      <point x="106" y="578"/>
      <point x="106" y="552" type="curve" smooth="yes"/>
      <point x="106" y="95" type="line" smooth="yes"/>
      <point x="106" y="70"/>
      <point x="98" y="59"/>
      <point x="69" y="59" type="curve" smooth="yes"/>
      <point x="39" y="59" type="line"/>
      <point x="39" y="0" type="line"/>
    </contour>
  </outline>
</glyph>
<glyph name="M" format="1">
  <advance width="775"/>
  <unicode hex="004D"/>
  <note>
	M
  </note>
  <outline>
    <contour>
      <point x="253" y="0" type="line"/>
      <point x="253" y="59" type="line"/>
      <point x="220" y="59" type="line" smooth="yes"/>
      <point x="195" y="59"/>
      <point x="185" y="69"/>
      <point x="185" y="95" type="curve" smooth="yes"/>
      <point x="185" y="518" type="line"/>
      <point x="355" y="119" type="line"/>
      <point x="420" y="119" type="line"/>
      <point x="590" y="518" type="line"/>
      <point x="590" y="95" type="line" smooth="yes"/>
      <point x="590" y="69"/>
      <point x="580" y="59"/>
      <point x="555" y="59" type="curve" smooth="yes"/>
      <point x="522" y="59" type="line"/>
      <point x="522" y="0" type="line"/>
      <point x="736" y="0" type="line"/>
      <point x="736" y="59" type="line"/>
      <point x="704" y="59" type="line" smooth="yes"/>
      <point x="678" y="59"/>
      <point x="669" y="69"/>
      <point x="669" y="96" type="curve" smooth="yes"/>
      <point x="669" y="551" type="line" smooth="yes"/>
      <point x="669" y="578"/>
      <point x="678" y="588"/>
      <point x="704" y="588" type="curve" smooth="yes"/>
      <point x="736" y="588" type="line"/>
      <point x="736" y="647" type="line"/>
      <point x="578" y="647" type="line"/>
      <point x="388" y="200" type="line"/>
      <point x="197" y="647" type="line"/>
      <point x="39" y="647" type="line"/>
      <point x="39" y="588" type="line"/>
      <point x="71" y="588" type="line" smooth="yes"/>
      <point x="97" y="588"/>
      <point x="106" y="578"/>
      <point x="106" y="551" type="curve" smooth="yes"/>
      <point x="106" y="96" type="line" smooth="yes"/>
      <point x="106" y="69"/>
      <point x="97" y="59"/>
      <point x="71" y="59" type="curve" smooth="yes"/>
      <point x="39" y="59" type="line"/>
      <point x="39" y="0" type="line"/>
    </contour>
  </outline>
</glyph>
<glyph name="N" format="1">
  <advance width="688"/>
  <unicode hex="004E"/>
  <note>
	N
  </note>
  <outline>
    <contour>
      <point x="253" y="0" type="line"/>
      <point x="253" y="59" type="line"/>
      <point x="221" y="59" type="line" smooth="yes"/>
      <point x="195" y="59"/>
      <point x="185" y="69"/>
      <point x="185" y="95" type="curve" smooth="yes"/>
      <point x="185" y="512" type="line"/>
      <point x="516" y="0" type="line"/>
      <point x="582" y="0" type="line"/>
      <point x="582" y="552" type="line" smooth="yes"/>
      <point x="582" y="578"/>
      <point x="591" y="588"/>
      <point x="617" y="588" type="curve" smooth="yes"/>
      <point x="649" y="588" type="line"/>
      <point x="649" y="647" type="line"/>
      <point x="435" y="647" type="line"/>
      <point x="435" y="588" type="line"/>
      <point x="467" y="588" type="line" smooth="yes"/>
      <point x="493" y="588"/>
      <point x="503" y="578"/>
      <point x="503" y="552" type="curve" smooth="yes"/>
      <point x="503" y="134" type="line"/>
      <point x="172" y="647" type="line"/>
      <point x="39" y="647" type="line"/>
      <point x="39" y="588" type="line"/>
      <point x="71" y="588" type="line" smooth="yes"/>
      <point x="97" y="588"/>
      <point x="106" y="578"/>
      <point x="106" y="552" type="curve" smooth="yes"/>
      <point x="106" y="95" type="line" smooth="yes"/>
      <point x="106" y="69"/>
      <point x="97" y="59"/>
      <point x="71" y="59" type="curve" smooth="yes"/>
      <point x="39" y="59" type="line"/>
      <point x="39" y="0" type="line"/>
    </contour>
  </outline>
</glyph>
<glyph name="P" format="1">
  <advance width="618"/>
  <unicode hex="0050"/>
  <note>
	P
  </note>
  <outline>
    <contour>
      <point x="253" y="0" type="line"/>
      <point x="253" y="59" type="line"/>
      <point x="224" y="59" type="line" smooth="yes"/>
      <point x="194" y="59"/>
      <point x="186" y="71"/>
      <point x="186" y="95" type="curve" smooth="yes"/>
      <point x="186" y="248" type="line"/>
      <point x="375" y="248" type="line" smooth="yes"/>
      <point x="501" y="248"/>
      <point x="579" y="327"/>
      <point x="579" y="451" type="curve" smooth="yes"/>
      <point x="579" y="576"/>
      <point x="501" y="647"/>
      <point x="376" y="647" type="curve" smooth="yes"/>
      <point x="39" y="647" type="line"/>
      <point x="39" y="588" type="line"/>
      <point x="68" y="588" type="line" smooth="yes"/>
      <point x="98" y="588"/>
      <point x="106" y="577"/>
      <point x="106" y="552" type="curve" smooth="yes"/>
      <point x="106" y="95" type="line" smooth="yes"/>
      <point x="106" y="71"/>
      <point x="98" y="59"/>
      <point x="68" y="59" type="curve" smooth="yes"/>
      <point x="39" y="59" type="line"/>
      <point x="39" y="0" type="line"/>
    </contour>
    <contour>
      <point x="186" y="588" type="line"/>
      <point x="365" y="588" type="line" smooth="yes"/>
      <point x="458" y="588"/>
      <point x="502" y="555"/>
      <point x="502" y="451" type="curve" smooth="yes"/>
      <point x="502" y="353"/>
      <point x="455" y="307"/>
      <point x="365" y="307" type="curve" smooth="yes"/>
      <point x="186" y="307" type="line"/>
    </contour>
  </outline>
</glyph>
<glyph name="Q" format="1">
  <advance width="655"/>
  <unicode hex="0051"/>
  <note>
	Q
  </note>
  <outline>
    <contour>
      <point x="511" y="-145"/>
      <point x="557" y="-125"/>
      <point x="585" y="-85" type="curve"/>
      <point x="585" y="-28" type="line"/>
      <point x="518" y="-28" type="line"/>
      <point x="518" y="-62" type="line"/>
      <point x="504" y="-78"/>
      <point x="484" y="-86"/>
      <point x="446" y="-86" type="curve" smooth="yes"/>
      <point x="399" y="-86"/>
      <point x="370" y="-64"/>
      <point x="364" y="-14" type="curve"/>
      <point x="535" y="1"/>
      <point x="616" y="133"/>
      <point x="616" y="321" type="curve" smooth="yes"/>
      <point x="616" y="521"/>
      <point x="531" y="661"/>
      <point x="328" y="661" type="curve" smooth="yes"/>
      <point x="124" y="661"/>
      <point x="39" y="521"/>
      <point x="39" y="321" type="curve" smooth="yes"/>
      <point x="39" y="132"/>
      <point x="121" y="-1"/>
      <point x="295" y="-14" type="curve"/>
      <point x="302" y="-80"/>
      <point x="348" y="-145"/>
      <point x="446" y="-145" type="curve" smooth="yes"/>
    </contour>
    <contour>
      <point x="190" y="45"/>
      <point x="116" y="144"/>
      <point x="116" y="321" type="curve" smooth="yes"/>
      <point x="116" y="502"/>
      <point x="188" y="601"/>
      <point x="328" y="601" type="curve" smooth="yes"/>
      <point x="467" y="601"/>
      <point x="539" y="502"/>
      <point x="539" y="321" type="curve" smooth="yes"/>
      <point x="539" y="144"/>
      <point x="465" y="45"/>
      <point x="328" y="45" type="curve" smooth="yes"/>
    </contour>
  </outline>
</glyph>
<glyph name="S" format="1">
  <advance width="527"/>
  <unicode hex="0053"/>
  <note>
	S
  </note>
  <outline>
    <contour>
      <point x="412" y="-15"/>
      <point x="488" y="59"/>
      <point x="488" y="157" type="curve" smooth="yes"/>
      <point x="488" y="273"/>
      <point x="402" y="311"/>
      <point x="286" y="357" type="curve" smooth="yes"/>
      <point x="203" y="390"/>
      <point x="122" y="416"/>
      <point x="122" y="495" type="curve" smooth="yes"/>
      <point x="122" y="572"/>
      <point x="181" y="602"/>
      <point x="263" y="602" type="curve" smooth="yes"/>
      <point x="314" y="602"/>
      <point x="363" y="591"/>
      <point x="394" y="573" type="curve"/>
      <point x="394" y="513" type="line"/>
      <point x="475" y="513" type="line"/>
      <point x="475" y="600" type="line"/>
      <point x="428" y="635"/>
      <point x="350" y="662"/>
      <point x="266" y="662" type="curve" smooth="yes"/>
      <point x="142" y="662"/>
      <point x="45" y="609"/>
      <point x="45" y="494" type="curve" smooth="yes"/>
      <point x="45" y="390"/>
      <point x="125" y="346"/>
      <point x="260" y="295" type="curve" smooth="yes"/>
      <point x="353" y="260"/>
      <point x="411" y="230"/>
      <point x="411" y="155" type="curve" smooth="yes"/>
      <point x="411" y="85"/>
      <point x="364" y="45"/>
      <point x="273" y="45" type="curve" smooth="yes"/>
      <point x="217" y="45"/>
      <point x="156" y="60"/>
      <point x="120" y="83" type="curve"/>
      <point x="120" y="144" type="line"/>
      <point x="39" y="144" type="line"/>
      <point x="39" y="55" type="line"/>
      <point x="95" y="13"/>
      <point x="183" y="-15"/>
      <point x="270" y="-15" type="curve" smooth="yes"/>
    </contour>
  </outline>
</glyph>
<glyph name="V" format="1">
  <advance width="705"/>
  <unicode hex="0056"/>
  <note>
	V
  </note>
  <outline>
    <contour>
      <point x="391" y="0" type="line"/>
      <point x="586" y="551" type="line" smooth="yes"/>
      <point x="597" y="583"/>
      <point x="607" y="588"/>
      <point x="641" y="588" type="curve" smooth="yes"/>
      <point x="666" y="588" type="line"/>
      <point x="666" y="647" type="line"/>
      <point x="537" y="647" type="line"/>
      <point x="353" y="107" type="line"/>
      <point x="168" y="647" type="line"/>
      <point x="39" y="647" type="line"/>
      <point x="39" y="588" type="line"/>
      <point x="64" y="588" type="line" smooth="yes"/>
      <point x="98" y="588"/>
      <point x="108" y="582"/>
      <point x="119" y="551" type="curve" smooth="yes"/>
      <point x="316" y="0" type="line"/>
    </contour>
  </outline>
</glyph>
<glyph name="X" format="1">
  <advance width="668"/>
  <unicode hex="0058"/>
  <note>
	X
  </note>
  <outline>
    <contour>
      <point x="247" y="0" type="line"/>
      <point x="247" y="59" type="line"/>
      <point x="195" y="59" type="line"/>
      <point x="334" y="272" type="line"/>
      <point x="473" y="59" type="line"/>
      <point x="421" y="59" type="line"/>
      <point x="421" y="0" type="line"/>
      <point x="629" y="0" type="line"/>
      <point x="629" y="59" type="line"/>
      <point x="596" y="59" type="line" smooth="yes"/>
      <point x="561" y="59"/>
      <point x="548" y="67"/>
      <point x="531" y="93" type="curve" smooth="yes"/>
      <point x="375" y="326" type="line"/>
      <point x="527" y="553" type="line" smooth="yes"/>
      <point x="545" y="580"/>
      <point x="557" y="588"/>
      <point x="592" y="588" type="curve" smooth="yes"/>
      <point x="623" y="588" type="line"/>
      <point x="623" y="647" type="line"/>
      <point x="417" y="647" type="line"/>
      <point x="417" y="588" type="line"/>
      <point x="469" y="588" type="line"/>
      <point x="334" y="380" type="line"/>
      <point x="199" y="588" type="line"/>
      <point x="251" y="588" type="line"/>
      <point x="251" y="647" type="line"/>
      <point x="45" y="647" type="line"/>
      <point x="45" y="588" type="line"/>
      <point x="76" y="588" type="line" smooth="yes"/>
      <point x="110" y="588"/>
      <point x="123" y="580"/>
      <point x="141" y="553" type="curve" smooth="yes"/>
      <point x="292" y="326" type="line"/>
      <point x="137" y="93" type="line" smooth="yes"/>
      <point x="120" y="67"/>
      <point x="106" y="59"/>
      <point x="72" y="59" type="curve" smooth="yes"/>
      <point x="39" y="59" type="line"/>
      <point x="39" y="0" type="line"/>
    </contour>
  </outline>
</glyph>
<glyph name="Z" format="1">
  <advance width="558"/>
  <unicode hex="005A"/>
  <note>
	Z
  </note>
  <outline>
    <contour>
      <point x="519" y="0" type="line"/>
      <point x="519" y="115" type="line"/>
      <point x="447" y="115" type="line"/>
      <point x="447" y="95" type="line" smooth="yes"/>
      <point x="447" y="69"/>
      <point x="437" y="59"/>
      <point x="410" y="59" type="curve" smooth="yes"/>
      <point x="130" y="59" type="line"/>
      <point x="506" y="593" type="line"/>
      <point x="506" y="647" type="line"/>
      <point x="53" y="647" type="line"/>
      <point x="53" y="532" type="line"/>
      <point x="125" y="532" type="line"/>
      <point x="125" y="553" type="line" smooth="yes"/>
      <point x="125" y="578"/>
      <point x="135" y="588"/>
      <point x="162" y="588" type="curve" smooth="yes"/>
      <point x="417" y="588" type="line"/>
      <point x="39" y="54" type="line"/>
      <point x="39" y="0" type="line"/>
    </contour>
  </outline>
</glyph>
<glyph name="bracketleft" format="1">
  <advance width="284"/>
  <unicode hex="005B"/>
  <note>
	bracketleft
  </note>
  <outline>
    <contour>
      <point x="235" y="-83" type="line"/>
      <point x="235" y="-24" type="line"/>
      <point x="139" y="-24" type="line"/>
      <point x="139" y="691" type="line"/>
      <point x="235" y="691" type="line"/>
      <point x="235" y="750" type="line"/>
      <point x="59" y="750" type="line"/>
      <point x="59" y="-83" type="line"/>
    </contour>
  </outline>
</glyph>
<glyph name="backslash" format="1">
  <advance width="428"/>
  <unicode hex="005C"/>
  <note>
	backslash
  </note>
  <outline>
    <contour>
      <point x="379" y="0" type="line"/>
      <point x="128" y="676" type="line"/>
      <point x="49" y="676" type="line"/>
      <point x="299" y="0" type="line"/>
    </contour>
  </outline>
</glyph>
<glyph name="bracketright" format="1">
  <advance width="284"/>
  <unicode hex="005D"/>
  <note>
	bracketright
  </note>
  <outline>
    <contour>
      <point x="225" y="-83" type="line"/>
      <point x="225" y="750" type="line"/>
      <point x="49" y="750" type="line"/>
      <point x="49" y="691" type="line"/>
      <point x="145" y="691" type="line"/>
      <point x="145" y="-24" type="line"/>
      <point x="49" y="-24" type="line"/>
      <point x="49" y="-83" type="line"/>
    </contour>
  </outline>
</glyph>
<glyph name="asciicircum" format="1">
  <advance width="581"/>
  <unicode hex="005E"/>
  <note>
	asciicircum
  </note>
  <outline>
    <contour>
      <point x="132" y="367" type="line"/>
      <point x="290" y="641" type="line"/>
      <point x="448" y="367" type="line"/>
      <point x="532" y="367" type="line"/>
      <point x="325" y="719" type="line"/>
      <point x="256" y="719" type="line"/>
      <point x="49" y="367" type="line"/>
    </contour>
  </outline>
</glyph>
<glyph name="underscore" format="1">
  <advance width="459"/>
  <unicode hex="005F"/>
  <note>
	underscore
  </note>
  <outline>
    <contour>
      <point x="410" y="-60" type="line"/>
      <point x="410" y="0" type="line"/>
      <point x="49" y="0" type="line"/>
      <point x="49" y="-60" type="line"/>
    </contour>
  </outline>
</glyph>
<glyph name="grave" format="1">
  <advance width="285"/>
  <unicode hex="0060"/>
  <note>
	grave
  </note>
  <outline>
    <contour>
      <point x="236" y="534" type="line"/>
      <point x="151" y="717" type="line"/>
      <point x="49" y="717" type="line"/>
      <point x="167" y="534" type="line"/>
    </contour>
  </outline>
</glyph>
<glyph name="b" format="1">
  <advance width="585"/>
  <unicode hex="0062"/>
  <note>
	b
  </note>
  <outline>
    <contour>
      <point x="460" y="-15"/>
      <point x="546" y="76"/>
      <point x="546" y="237" type="curve" smooth="yes"/>
      <point x="546" y="403"/>
      <point x="473" y="495"/>
      <point x="340" y="495" type="curve" smooth="yes"/>
      <point x="268" y="495"/>
      <point x="206" y="472"/>
      <point x="165" y="413" type="curve"/>
      <point x="165" y="662" type="line"/>
      <point x="29" y="662" type="line"/>
      <point x="29" y="603" type="line"/>
      <point x="47" y="603" type="line" smooth="yes"/>
      <point x="78" y="603"/>
      <point x="85" y="593"/>
      <point x="85" y="560" type="curve" smooth="yes"/>
      <point x="85" y="0" type="line"/>
      <point x="151" y="0" type="line"/>
      <point x="159" y="74" type="line"/>
      <point x="197" y="9"/>
      <point x="258" y="-15"/>
      <point x="329" y="-15" type="curve" smooth="yes"/>
    </contour>
    <contour>
      <point x="229" y="45"/>
      <point x="165" y="117"/>
      <point x="165" y="211" type="curve" smooth="yes"/>
      <point x="165" y="270" type="line" smooth="yes"/>
      <point x="165" y="376"/>
      <point x="237" y="435"/>
      <point x="317" y="435" type="curve" smooth="yes"/>
      <point x="423" y="435"/>
      <point x="469" y="376"/>
      <point x="469" y="239" type="curve" smooth="yes"/>
      <point x="469" y="103"/>
      <point x="418" y="45"/>
      <point x="317" y="45" type="curve" smooth="yes"/>
    </contour>
  </outline>
</glyph>
<glyph name="f" format="1">
  <advance width="406"/>
  <unicode hex="0066"/>
  <note>
	f
  </note>
  <outline>
    <contour>
      <point x="253" y="0" type="line"/>
      <point x="253" y="59" type="line"/>
      <point x="223" y="59" type="line" smooth="yes"/>
      <point x="197" y="59"/>
      <point x="188" y="69"/>
      <point x="188" y="96" type="curve" smooth="yes"/>
      <point x="188" y="421" type="line"/>
      <point x="339" y="421" type="line"/>
      <point x="339" y="480" type="line"/>
      <point x="188" y="480" type="line"/>
      <point x="188" y="513" type="line" smooth="yes"/>
      <point x="188" y="579"/>
      <point x="217" y="618"/>
      <point x="278" y="618" type="curve" smooth="yes"/>
      <point x="310" y="618"/>
      <point x="334" y="613"/>
      <point x="355" y="598" type="curve"/>
      <point x="355" y="558" type="line"/>
      <point x="425" y="558" type="line"/>
      <point x="425" y="626" type="line"/>
      <point x="387" y="660"/>
      <point x="340" y="677"/>
      <point x="272" y="677" type="curve" smooth="yes"/>
      <point x="166" y="677"/>
      <point x="109" y="609"/>
      <point x="109" y="507" type="curve" smooth="yes"/>
      <point x="109" y="480" type="line"/>
      <point x="29" y="480" type="line"/>
      <point x="29" y="421" type="line"/>
      <point x="109" y="421" type="line"/>
      <point x="109" y="96" type="line" smooth="yes"/>
      <point x="109" y="69"/>
      <point x="99" y="59"/>
      <point x="73" y="59" type="curve" smooth="yes"/>
      <point x="43" y="59" type="line"/>
      <point x="43" y="0" type="line"/>
    </contour>
  </outline>
</glyph>
<glyph name="i" format="1">
  <advance width="273"/>
  <unicode hex="0069"/>
  <note>
	i
  </note>
  <outline>
    <contour>
      <point x="243" y="0" type="line"/>
      <point x="243" y="59" type="line"/>
      <point x="211" y="59" type="line" smooth="yes"/>
      <point x="185" y="59"/>
      <point x="176" y="69"/>
      <point x="176" y="95" type="curve" smooth="yes"/>
      <point x="176" y="480" type="line"/>
      <point x="29" y="480" type="line"/>
      <point x="29" y="421" type="line"/>
      <point x="61" y="421" type="line" smooth="yes"/>
      <point x="87" y="421"/>
      <point x="96" y="411"/>
      <point x="96" y="385" type="curve" smooth="yes"/>
      <point x="96" y="96" type="line" smooth="yes"/>
      <point x="96" y="69"/>
      <point x="87" y="59"/>
      <point x="61" y="59" type="curve" smooth="yes"/>
      <point x="29" y="59" type="line"/>
      <point x="29" y="0" type="line"/>
    </contour>
    <contour>
      <point x="180" y="560" type="line"/>
      <point x="180" y="637" type="line"/>
      <point x="92" y="637" type="line"/>
      <point x="92" y="560" type="line"/>
    </contour>
  </outline>
</glyph>
<glyph name="m" format="1">
  <advance width="851"/>
  <unicode hex="006D"/>
  <note>
	m
  </note>
  <outline>
    <contour>
      <point x="250" y="0" type="line"/>
      <point x="250" y="59" type="line"/>
      <point x="219" y="59" type="line" smooth="yes"/>
      <point x="194" y="59"/>
      <point x="185" y="69"/>
      <point x="185" y="96" type="curve" smooth="yes"/>
      <point x="185" y="309" type="line" smooth="yes"/>
      <point x="185" y="392"/>
      <point x="231" y="435"/>
      <point x="305" y="435" type="curve" smooth="yes"/>
      <point x="369" y="435"/>
      <point x="393" y="400"/>
      <point x="393" y="329" type="curve" smooth="yes"/>
      <point x="393" y="0" type="line"/>
      <point x="533" y="0" type="line"/>
      <point x="533" y="59" type="line"/>
      <point x="502" y="59" type="line" smooth="yes"/>
      <point x="476" y="59"/>
      <point x="468" y="69"/>
      <point x="468" y="96" type="curve" smooth="yes"/>
      <point x="468" y="319" type="line" smooth="yes"/>
      <point x="468" y="396"/>
      <point x="514" y="435"/>
      <point x="582" y="435" type="curve" smooth="yes"/>
      <point x="649" y="435"/>
      <point x="675" y="408"/>
      <point x="675" y="333" type="curve" smooth="yes"/>
      <point x="675" y="0" type="line"/>
      <point x="822" y="0" type="line"/>
      <point x="822" y="59" type="line"/>
      <point x="790" y="59" type="line" smooth="yes"/>
      <point x="765" y="59"/>
      <point x="755" y="69"/>
      <point x="755" y="96" type="curve" smooth="yes"/>
      <point x="755" y="333" type="line" smooth="yes"/>
      <point x="755" y="438"/>
      <point x="713" y="495"/>
      <point x="604" y="495" type="curve" smooth="yes"/>
      <point x="525" y="495"/>
      <point x="478" y="467"/>
      <point x="447" y="412" type="curve"/>
      <point x="429" y="464"/>
      <point x="389" y="495"/>
      <point x="327" y="495" type="curve" smooth="yes"/>
      <point x="248" y="495"/>
      <point x="201" y="466"/>
      <point x="167" y="412" type="curve"/>
      <point x="160" y="480" type="line"/>
      <point x="39" y="480" type="line"/>
      <point x="39" y="421" type="line"/>
      <point x="71" y="421" type="line" smooth="yes"/>
      <point x="97" y="421"/>
      <point x="106" y="411"/>
      <point x="106" y="385" type="curve" smooth="yes"/>
      <point x="106" y="96" type="line" smooth="yes"/>
      <point x="106" y="69"/>
      <point x="97" y="59"/>
      <point x="71" y="59" type="curve" smooth="yes"/>
      <point x="39" y="59" type="line"/>
      <point x="39" y="0" type="line"/>
    </contour>
  </outline>
</glyph>
<glyph name="n" format="1">
  <advance width="603"/>
  <unicode hex="006E"/>
  <note>
	n
  </note>
  <outline>
    <contour>
      <point x="253" y="0" type="line"/>
      <point x="253" y="59" type="line"/>
      <point x="220" y="59" type="line" smooth="yes"/>
      <point x="195" y="59"/>
      <point x="186" y="69"/>
      <point x="186" y="96" type="curve" smooth="yes"/>
      <point x="186" y="309" type="line" smooth="yes"/>
      <point x="186" y="390"/>
      <point x="250" y="435"/>
      <point x="325" y="435" type="curve" smooth="yes"/>
      <point x="397" y="435"/>
      <point x="426" y="404"/>
      <point x="426" y="329" type="curve" smooth="yes"/>
      <point x="426" y="0" type="line"/>
      <point x="574" y="0" type="line"/>
      <point x="574" y="59" type="line"/>
      <point x="542" y="59" type="line" smooth="yes"/>
      <point x="516" y="59"/>
      <point x="507" y="69"/>
      <point x="507" y="96" type="curve" smooth="yes"/>
      <point x="507" y="330" type="line" smooth="yes"/>
      <point x="507" y="434"/>
      <point x="457" y="495"/>
      <point x="350" y="495" type="curve" smooth="yes"/>
      <point x="267" y="495"/>
      <point x="214" y="471"/>
      <point x="168" y="412" type="curve"/>
      <point x="162" y="480" type="line"/>
      <point x="39" y="480" type="line"/>
      <point x="39" y="421" type="line"/>
      <point x="71" y="421" type="line" smooth="yes"/>
      <point x="97" y="421"/>
      <point x="106" y="411"/>
      <point x="106" y="384" type="curve" smooth="yes"/>
      <point x="106" y="96" type="line" smooth="yes"/>
      <point x="106" y="69"/>
      <point x="97" y="59"/>
      <point x="71" y="59" type="curve" smooth="yes"/>
      <point x="39" y="59" type="line"/>
      <point x="39" y="0" type="line"/>
    </contour>
  </outline>
</glyph>
<glyph name="p" format="1">
  <advance width="585"/>
  <unicode hex="0070"/>
  <note>
	p
  </note>
  <outline>
    <contour>
      <point x="224" y="-208" type="line"/>
      <point x="224" y="-149" type="line"/>
      <point x="205" y="-149" type="line" smooth="yes"/>
      <point x="171" y="-149"/>
      <point x="165" y="-134"/>
      <point x="165" y="-102" type="curve" smooth="yes"/>
      <point x="165" y="66" type="line"/>
      <point x="210" y="6"/>
      <point x="263" y="-15"/>
      <point x="335" y="-15" type="curve" smooth="yes"/>
      <point x="468" y="-15"/>
      <point x="546" y="81"/>
      <point x="546" y="244" type="curve" smooth="yes"/>
      <point x="546" y="406"/>
      <point x="466" y="495"/>
      <point x="335" y="495" type="curve" smooth="yes"/>
      <point x="260" y="495"/>
      <point x="201" y="467"/>
      <point x="160" y="406" type="curve"/>
      <point x="150" y="480" type="line"/>
      <point x="29" y="480" type="line"/>
      <point x="29" y="421" type="line"/>
      <point x="51" y="421" type="line" smooth="yes"/>
      <point x="75" y="421"/>
      <point x="85" y="410"/>
      <point x="85" y="382" type="curve" smooth="yes"/>
      <point x="85" y="-102" type="line" smooth="yes"/>
      <point x="85" y="-134"/>
      <point x="79" y="-149"/>
      <point x="46" y="-149" type="curve" smooth="yes"/>
      <point x="29" y="-149" type="line"/>
      <point x="29" y="-208" type="line"/>
    </contour>
    <contour>
      <point x="233" y="45"/>
      <point x="165" y="103"/>
      <point x="165" y="209" type="curve" smooth="yes"/>
      <point x="165" y="265" type="line" smooth="yes"/>
      <point x="165" y="366"/>
      <point x="228" y="435"/>
      <point x="321" y="435" type="curve" smooth="yes"/>
      <point x="422" y="435"/>
      <point x="469" y="374"/>
      <point x="469" y="244" type="curve" smooth="yes"/>
      <point x="469" y="107"/>
      <point x="420" y="45"/>
      <point x="316" y="45" type="curve" smooth="yes"/>
    </contour>
  </outline>
</glyph>
<glyph name="q" format="1">
  <advance width="585"/>
  <unicode hex="0071"/>
  <note>
	q
  </note>
  <outline>
    <contour>
      <point x="556" y="-208" type="line"/>
      <point x="556" y="-149" type="line"/>
      <point x="539" y="-149" type="line" smooth="yes"/>
      <point x="508" y="-149"/>
      <point x="500" y="-138"/>
      <point x="500" y="-102" type="curve" smooth="yes"/>
      <point x="500" y="382" type="line" smooth="yes"/>
      <point x="500" y="410"/>
      <point x="510" y="421"/>
      <point x="534" y="421" type="curve" smooth="yes"/>
      <point x="556" y="421" type="line"/>
      <point x="556" y="480" type="line"/>
      <point x="434" y="480" type="line"/>
      <point x="426" y="403" type="line"/>
      <point x="386" y="468"/>
      <point x="333" y="495"/>
      <point x="257" y="495" type="curve" smooth="yes"/>
      <point x="126" y="495"/>
      <point x="39" y="398"/>
      <point x="39" y="236" type="curve" smooth="yes"/>
      <point x="39" y="71"/>
      <point x="115" y="-15"/>
      <point x="248" y="-15" type="curve" smooth="yes"/>
      <point x="320" y="-15"/>
      <point x="375" y="6"/>
      <point x="420" y="66" type="curve"/>
      <point x="420" y="-208" type="line"/>
    </contour>
    <contour>
      <point x="163" y="45"/>
      <point x="116" y="98"/>
      <point x="116" y="235" type="curve" smooth="yes"/>
      <point x="116" y="369"/>
      <point x="167" y="435"/>
      <point x="271" y="435" type="curve" smooth="yes"/>
      <point x="360" y="435"/>
      <point x="420" y="361"/>
      <point x="420" y="265" type="curve" smooth="yes"/>
      <point x="420" y="209" type="line" smooth="yes"/>
      <point x="420" y="103"/>
      <point x="351" y="45"/>
      <point x="268" y="45" type="curve" smooth="yes"/>
    </contour>
  </outline>
</glyph>
<glyph name="v" format="1">
  <advance width="574"/>
  <unicode hex="0076"/>
  <note>
	v
  </note>
  <outline>
    <contour>
      <point x="332" y="0" type="line"/>
      <point x="475" y="399" type="line" smooth="yes"/>
      <point x="482" y="417"/>
      <point x="488" y="421"/>
      <point x="513" y="421" type="curve" smooth="yes"/>
      <point x="545" y="421" type="line"/>
      <point x="545" y="480" type="line"/>
      <point x="426" y="480" type="line"/>
      <point x="286" y="74" type="line"/>
      <point x="148" y="480" type="line"/>
      <point x="29" y="480" type="line"/>
      <point x="29" y="421" type="line"/>
      <point x="59" y="421" type="line" smooth="yes"/>
      <point x="84" y="421"/>
      <point x="90" y="417"/>
      <point x="97" y="399" type="curve" smooth="yes"/>
      <point x="241" y="0" type="line"/>
    </contour>
  </outline>
</glyph>
<glyph name="w" format="1">
  <advance width="771"/>
  <unicode hex="0077"/>
  <note>
	w
  </note>
  <outline>
    <contour>
      <point x="280" y="0" type="line"/>
      <point x="386" y="336" type="line"/>
      <point x="491" y="0" type="line"/>
      <point x="578" y="0" type="line"/>
      <point x="674" y="399" type="line" smooth="yes"/>
      <point x="678" y="417"/>
      <point x="685" y="421"/>
      <point x="708" y="421" type="curve" smooth="yes"/>
      <point x="742" y="421" type="line"/>
      <point x="742" y="480" type="line"/>
      <point x="623" y="480" type="line"/>
      <point x="527" y="81" type="line"/>
      <point x="417" y="437" type="line"/>
      <point x="353" y="437" type="line"/>
      <point x="242" y="81" type="line"/>
      <point x="149" y="480" type="line"/>
      <point x="29" y="480" type="line"/>
      <point x="29" y="421" type="line"/>
      <point x="63" y="421" type="line" smooth="yes"/>
      <point x="86" y="421"/>
      <point x="93" y="417"/>
      <point x="97" y="399" type="curve" smooth="yes"/>
      <point x="193" y="0" type="line"/>
    </contour>
  </outline>
</glyph>
<glyph name="x" format="1">
  <advance width="570"/>
  <unicode hex="0078"/>
  <note>
	x
  </note>
  <outline>
    <contour>
      <point x="225" y="0" type="line"/>
      <point x="225" y="59" type="line"/>
      <point x="179" y="59" type="line"/>
      <point x="285" y="199" type="line"/>
      <point x="391" y="59" type="line"/>
      <point x="344" y="59" type="line"/>
      <point x="344" y="0" type="line"/>
      <point x="541" y="0" type="line"/>
      <point x="541" y="59" type="line"/>
      <point x="509" y="59" type="line" smooth="yes"/>
      <point x="477" y="59"/>
      <point x="465" y="62"/>
      <point x="447" y="85" type="curve" smooth="yes"/>
      <point x="327" y="243" type="line"/>
      <point x="443" y="394" type="line" smooth="yes"/>
      <point x="461" y="417"/>
      <point x="471" y="421"/>
      <point x="503" y="421" type="curve" smooth="yes"/>
      <point x="534" y="421" type="line"/>
      <point x="534" y="480" type="line"/>
      <point x="339" y="480" type="line"/>
      <point x="339" y="421" type="line"/>
      <point x="388" y="421" type="line"/>
      <point x="285" y="286" type="line"/>
      <point x="182" y="421" type="line"/>
      <point x="231" y="421" type="line"/>
      <point x="231" y="480" type="line"/>
      <point x="36" y="480" type="line"/>
      <point x="36" y="421" type="line"/>
      <point x="66" y="421" type="line" smooth="yes"/>
      <point x="99" y="421"/>
      <point x="109" y="418"/>
      <point x="127" y="394" type="curve" smooth="yes"/>
      <point x="242" y="243" type="line"/>
      <point x="122" y="85" type="line" smooth="yes"/>
      <point x="104" y="62"/>
      <point x="93" y="59"/>
      <point x="61" y="59" type="curve" smooth="yes"/>
      <point x="29" y="59" type="line"/>
      <point x="29" y="0" type="line"/>
    </contour>
  </outline>
</glyph>
<glyph name="braceleft" format="1">
  <advance width="340"/>
  <unicode hex="007B"/>
  <note>
	braceleft
  </note>
  <outline>
    <contour>
      <point x="291" y="-83" type="line"/>
      <point x="291" y="-24" type="line"/>
      <point x="258" y="-24" type="line" smooth="yes"/>
      <point x="211" y="-24"/>
      <point x="194" y="-1"/>
      <point x="194" y="55" type="curve" smooth="yes"/>
      <point x="194" y="229" type="line" smooth="yes"/>
      <point x="194" y="278"/>
      <point x="170" y="316"/>
      <point x="130" y="334" type="curve"/>
      <point x="170" y="352"/>
      <point x="194" y="389"/>
      <point x="194" y="438" type="curve" smooth="yes"/>
      <point x="194" y="612" type="line" smooth="yes"/>
      <point x="194" y="668"/>
      <point x="211" y="691"/>
      <point x="258" y="691" type="curve" smooth="yes"/>
      <point x="291" y="691" type="line"/>
      <point x="291" y="750" type="line"/>
      <point x="253" y="750" type="line" smooth="yes"/>
      <point x="142" y="750"/>
      <point x="114" y="697"/>
      <point x="114" y="606" type="curve" smooth="yes"/>
      <point x="114" y="438" type="line" smooth="yes"/>
      <point x="114" y="375"/>
      <point x="79" y="364"/>
      <point x="29" y="364" type="curve"/>
      <point x="29" y="303" type="line"/>
      <point x="79" y="303"/>
      <point x="114" y="292"/>
      <point x="114" y="229" type="curve" smooth="yes"/>
      <point x="114" y="61" type="line" smooth="yes"/>
      <point x="114" y="-30"/>
      <point x="142" y="-83"/>
      <point x="253" y="-83" type="curve" smooth="yes"/>
    </contour>
  </outline>
</glyph>
<glyph name="bar" format="1">
  <advance width="178"/>
  <unicode hex="007C"/>
  <note>
	bar
  </note>
  <outline>
    <contour>
      <point x="129" y="-120" type="line"/>
      <point x="129" y="767" type="line"/>
      <point x="49" y="767" type="line"/>
      <point x="49" y="-120" type="line"/>
    </contour>
  </outline>
</glyph>
<glyph name="braceright" format="1">
  <advance width="340"/>
  <unicode hex="007D"/>
  <note>
	braceright
  </note>
  <outline>
    <contour>
      <point x="87" y="-83" type="line" smooth="yes"/>
      <point x="198" y="-83"/>
      <point x="226" y="-30"/>
      <point x="226" y="61" type="curve" smooth="yes"/>
      <point x="226" y="229" type="line" smooth="yes"/>
      <point x="226" y="292"/>
      <point x="261" y="303"/>
      <point x="311" y="303" type="curve"/>
      <point x="311" y="364" type="line"/>
      <point x="261" y="364"/>
      <point x="226" y="375"/>
      <point x="226" y="438" type="curve" smooth="yes"/>
      <point x="226" y="606" type="line" smooth="yes"/>
      <point x="226" y="697"/>
      <point x="198" y="750"/>
      <point x="87" y="750" type="curve" smooth="yes"/>
      <point x="49" y="750" type="line"/>
      <point x="49" y="691" type="line"/>
      <point x="82" y="691" type="line" smooth="yes"/>
      <point x="129" y="691"/>
      <point x="146" y="668"/>
      <point x="146" y="612" type="curve" smooth="yes"/>
      <point x="146" y="438" type="line" smooth="yes"/>
      <point x="146" y="389"/>
      <point x="170" y="352"/>
      <point x="210" y="334" type="curve"/>
      <point x="170" y="316"/>
      <point x="146" y="278"/>
      <point x="146" y="229" type="curve" smooth="yes"/>
      <point x="146" y="55" type="line" smooth="yes"/>
      <point x="146" y="-1"/>
      <point x="129" y="-24"/>
      <point x="82" y="-24" type="curve" smooth="yes"/>
      <point x="49" y="-24" type="line"/>
      <point x="49" y="-83" type="line"/>
    </contour>
  </outline>
</glyph>
<glyph name="asciitilde" format="1">
  <advance width="566"/>
  <unicode hex="007E"/>
  <note>
	asciitilde
  </note>
  <outline>
    <contour>
      <point x="114" y="240" type="line"/>
      <point x="114" y="285"/>
      <point x="127" y="312"/>
      <point x="182" y="312" type="curve" smooth="yes"/>
      <point x="249" y="312"/>
      <point x="299" y="240"/>
      <point x="392" y="240" type="curve" smooth="yes"/>
      <point x="479" y="240"/>
      <point x="517" y="292"/>
      <point x="517" y="377" type="curve"/>
      <point x="451" y="377" type="line"/>
      <point x="451" y="332"/>
      <point x="439" y="304"/>
      <point x="384" y="304" type="curve" smooth="yes"/>
      <point x="308" y="304"/>
      <point x="266" y="377"/>
      <point x="174" y="377" type="curve" smooth="yes"/>
      <point x="88" y="377"/>
      <point x="49" y="324"/>
      <point x="49" y="240" type="curve"/>
    </contour>
  </outline>
</glyph>
<glyph name="exclamdown" format="1">
  <advance width="188"/>
  <unicode hex="00A1"/>
  <note>
	exclamdown
  </note>
  <outline>
    <contour>
      <point x="138" y="-152" type="line"/>
      <point x="131" y="331" type="line"/>
      <point x="56" y="331" type="line"/>
      <point x="50" y="-152" type="line"/>
    </contour>
    <contour>
      <point x="139" y="418" type="line"/>
      <point x="139" y="495" type="line"/>
      <point x="49" y="495" type="line"/>
      <point x="49" y="418" type="line"/>
    </contour>
  </outline>
</glyph>
<glyph name="cent" format="1">
  <advance width="519"/>
  <unicode hex="00A2"/>
  <note>
	cent
  </note>
  <outline>
    <contour>
      <point x="324" y="-90" type="line"/>
      <point x="324" y="-14" type="line"/>
      <point x="383" y="-10"/>
      <point x="427" y="2"/>
      <point x="473" y="32" type="curve"/>
      <point x="442" y="82" type="line"/>
      <point x="401" y="57"/>
      <point x="363" y="45"/>
      <point x="298" y="45" type="curve" smooth="yes"/>
      <point x="206" y="45"/>
      <point x="116" y="99"/>
      <point x="116" y="237" type="curve" smooth="yes"/>
      <point x="116" y="380"/>
      <point x="194" y="435"/>
      <point x="285" y="435" type="curve" smooth="yes"/>
      <point x="341" y="435"/>
      <point x="368" y="426"/>
      <point x="399" y="408" type="curve"/>
      <point x="399" y="353" type="line"/>
      <point x="472" y="353" type="line"/>
      <point x="472" y="440" type="line"/>
      <point x="430" y="470"/>
      <point x="389" y="488"/>
      <point x="324" y="493" type="curve"/>
      <point x="324" y="570" type="line"/>
      <point x="248" y="570" type="line"/>
      <point x="248" y="493" type="line"/>
      <point x="118" y="479"/>
      <point x="39" y="390"/>
      <point x="39" y="237" type="curve" smooth="yes"/>
      <point x="39" y="90"/>
      <point x="129" y="3"/>
      <point x="248" y="-12" type="curve"/>
      <point x="248" y="-90" type="line"/>
    </contour>
  </outline>
</glyph>
<glyph name="sterling" format="1">
  <advance width="495"/>
  <unicode hex="00A3"/>
  <note>
	sterling
  </note>
  <outline>
    <contour>
      <point x="466" y="0" type="line"/>
      <point x="466" y="59" type="line"/>
      <point x="180" y="59" type="line"/>
      <point x="204" y="81"/>
      <point x="208" y="110"/>
      <point x="208" y="146" type="curve" smooth="yes"/>
      <point x="208" y="357" type="line"/>
      <point x="374" y="357" type="line"/>
      <point x="374" y="416" type="line"/>
      <point x="208" y="416" type="line"/>
      <point x="208" y="503" type="line" smooth="yes"/>
      <point x="208" y="569"/>
      <point x="250" y="603"/>
      <point x="312" y="603" type="curve" smooth="yes"/>
      <point x="345" y="603"/>
      <point x="368" y="596"/>
      <point x="388" y="581" type="curve"/>
      <point x="388" y="540" type="line"/>
      <point x="458" y="540" type="line"/>
      <point x="458" y="609" type="line"/>
      <point x="421" y="642"/>
      <point x="374" y="662"/>
      <point x="306" y="662" type="curve" smooth="yes"/>
      <point x="199" y="662"/>
      <point x="129" y="600"/>
      <point x="129" y="499" type="curve" smooth="yes"/>
      <point x="129" y="416" type="line"/>
      <point x="49" y="416" type="line"/>
      <point x="49" y="357" type="line"/>
      <point x="129" y="357" type="line"/>
      <point x="129" y="144" type="line" smooth="yes"/>
      <point x="129" y="89"/>
      <point x="111" y="59"/>
      <point x="74" y="59" type="curve" smooth="yes"/>
      <point x="51" y="59" type="line"/>
      <point x="51" y="0" type="line"/>
    </contour>
  </outline>
</glyph>
<glyph name="currency" format="1">
  <advance width="612"/>
  <unicode hex="00A4"/>
  <note>
	currency
  </note>
  <outline>
    <contour>
      <point x="191" y="145" type="line"/>
      <point x="224" y="124"/>
      <point x="264" y="111"/>
      <point x="307" y="111" type="curve" smooth="yes"/>
      <point x="349" y="111"/>
      <point x="389" y="123"/>
      <point x="422" y="144" type="curve"/>
      <point x="507" y="66" type="line"/>
      <point x="554" y="114" type="line"/>
      <point x="472" y="188" type="line"/>
      <point x="505" y="226"/>
      <point x="525" y="275"/>
      <point x="525" y="329" type="curve" smooth="yes"/>
      <point x="525" y="377"/>
      <point x="509" y="423"/>
      <point x="481" y="458" type="curve"/>
      <point x="563" y="533" type="line"/>
      <point x="517" y="581" type="line"/>
      <point x="435" y="505" type="line"/>
      <point x="399" y="531"/>
      <point x="355" y="548"/>
      <point x="307" y="548" type="curve" smooth="yes"/>
      <point x="258" y="548"/>
      <point x="213" y="531"/>
      <point x="177" y="504" type="curve"/>
      <point x="95" y="581" type="line"/>
      <point x="49" y="533" type="line"/>
      <point x="131" y="458" type="line"/>
      <point x="104" y="422"/>
      <point x="89" y="377"/>
      <point x="89" y="329" type="curve" smooth="yes"/>
      <point x="89" y="275"/>
      <point x="108" y="227"/>
      <point x="140" y="189" type="curve"/>
      <point x="59" y="114" type="line"/>
      <point x="105" y="66" type="line"/>
    </contour>
    <contour>
      <point x="222" y="177"/>
      <point x="158" y="245"/>
      <point x="158" y="329" type="curve" smooth="yes"/>
      <point x="158" y="414"/>
      <point x="222" y="482"/>
      <point x="307" y="482" type="curve" smooth="yes"/>
      <point x="392" y="482"/>
      <point x="455" y="414"/>
      <point x="455" y="329" type="curve" smooth="yes"/>
      <point x="455" y="245"/>
      <point x="392" y="177"/>
      <point x="307" y="177" type="curve" smooth="yes"/>
    </contour>
  </outline>
</glyph>
<glyph name="brokenbar" format="1">
  <advance width="177"/>
  <unicode hex="00A6"/>
  <note>
	brokenbar
  </note>
  <outline>
    <contour>
      <point x="129" y="426" type="line"/>
      <point x="129" y="767" type="line"/>
      <point x="49" y="767" type="line"/>
      <point x="49" y="426" type="line"/>
    </contour>
    <contour>
      <point x="129" y="-120" type="line"/>
      <point x="129" y="220" type="line"/>
      <point x="49" y="220" type="line"/>
      <point x="49" y="-120" type="line"/>
    </contour>
  </outline>
</glyph>
<glyph name="section" format="1">
  <advance width="507"/>
  <unicode hex="00A7"/>
  <note>
	section
  </note>
  <outline>
    <contour>
      <point x="402" y="-156"/>
      <point x="478" y="-82"/>
      <point x="478" y="16" type="curve" smooth="yes"/>
      <point x="478" y="56"/>
      <point x="467" y="87"/>
      <point x="448" y="112" type="curve"/>
      <point x="468" y="139"/>
      <point x="478" y="171"/>
      <point x="478" y="207" type="curve" smooth="yes"/>
      <point x="478" y="323"/>
      <point x="392" y="361"/>
      <point x="276" y="407" type="curve" smooth="yes"/>
      <point x="190" y="441"/>
      <point x="112" y="465"/>
      <point x="112" y="545" type="curve" smooth="yes"/>
      <point x="112" y="622"/>
      <point x="171" y="652"/>
      <point x="253" y="652" type="curve" smooth="yes"/>
      <point x="304" y="652"/>
      <point x="354" y="641"/>
      <point x="386" y="623" type="curve"/>
      <point x="386" y="565" type="line"/>
      <point x="465" y="565" type="line"/>
      <point x="465" y="650" type="line"/>
      <point x="418" y="685"/>
      <point x="340" y="712"/>
      <point x="256" y="712" type="curve" smooth="yes"/>
      <point x="132" y="712"/>
      <point x="35" y="659"/>
      <point x="35" y="544" type="curve" smooth="yes"/>
      <point x="35" y="505"/>
      <point x="45" y="474"/>
      <point x="67" y="449" type="curve"/>
      <point x="46" y="424"/>
      <point x="35" y="391"/>
      <point x="35" y="353" type="curve" smooth="yes"/>
      <point x="35" y="249"/>
      <point x="116" y="206"/>
      <point x="250" y="154" type="curve" smooth="yes"/>
      <point x="340" y="118"/>
      <point x="401" y="95"/>
      <point x="401" y="14" type="curve" smooth="yes"/>
      <point x="401" y="-57"/>
      <point x="351" y="-96"/>
      <point x="263" y="-96" type="curve" smooth="yes"/>
      <point x="207" y="-96"/>
      <point x="144" y="-81"/>
      <point x="108" y="-58" type="curve"/>
      <point x="108" y="1" type="line"/>
      <point x="29" y="1" type="line"/>
      <point x="29" y="-86" type="line"/>
      <point x="85" y="-128"/>
      <point x="173" y="-156"/>
      <point x="260" y="-156" type="curve" smooth="yes"/>
    </contour>
    <contour>
      <point x="348" y="185"/>
      <point x="293" y="205"/>
      <point x="244" y="226" type="curve" smooth="yes"/>
      <point x="170" y="257"/>
      <point x="109" y="289"/>
      <point x="109" y="352" type="curve" smooth="yes"/>
      <point x="109" y="374"/>
      <point x="114" y="390"/>
      <point x="126" y="403" type="curve"/>
      <point x="172" y="372"/>
      <point x="233" y="352"/>
      <point x="287" y="329" type="curve" smooth="yes"/>
      <point x="352" y="301"/>
      <point x="405" y="270"/>
      <point x="405" y="210" type="curve" smooth="yes"/>
      <point x="405" y="187"/>
      <point x="402" y="173"/>
      <point x="393" y="157" type="curve"/>
    </contour>
  </outline>
</glyph>
<glyph name="dieresis" format="1">
  <advance width="382"/>
  <unicode hex="00A8"/>
  <note>
	dieresis
  </note>
  <outline>
    <contour>
      <point x="333" y="576" type="line"/>
      <point x="333" y="658" type="line"/>
      <point x="254" y="658" type="line"/>
      <point x="254" y="576" type="line"/>
    </contour>
    <contour>
      <point x="128" y="576" type="line"/>
      <point x="128" y="658" type="line"/>
      <point x="49" y="658" type="line"/>
      <point x="49" y="576" type="line"/>
    </contour>
  </outline>
</glyph>
<glyph name="copyright" format="1">
  <advance width="815"/>
  <unicode hex="00A9"/>
  <note>
	copyright
  </note>
  <outline>
    <contour>
      <point x="607" y="-15"/>
      <point x="766" y="144"/>
      <point x="766" y="342" type="curve" smooth="yes"/>
      <point x="766" y="541"/>
      <point x="607" y="700"/>
      <point x="408" y="700" type="curve" smooth="yes"/>
      <point x="208" y="700"/>
      <point x="49" y="541"/>
      <point x="49" y="342" type="curve" smooth="yes"/>
      <point x="49" y="144"/>
      <point x="208" y="-15"/>
      <point x="407" y="-15" type="curve" smooth="yes"/>
    </contour>
    <contour>
      <point x="480" y="90"/>
      <point x="533" y="106"/>
      <point x="580" y="139" type="curve"/>
      <point x="552" y="185" type="line"/>
      <point x="513" y="159"/>
      <point x="475" y="147"/>
      <point x="412" y="147" type="curve" smooth="yes"/>
      <point x="324" y="147"/>
      <point x="237" y="201"/>
      <point x="237" y="337" type="curve" smooth="yes"/>
      <point x="237" y="478"/>
      <point x="317" y="532"/>
      <point x="405" y="532" type="curve" smooth="yes"/>
      <point x="458" y="532"/>
      <point x="488" y="524"/>
      <point x="520" y="506" type="curve"/>
      <point x="520" y="454" type="line"/>
      <point x="587" y="454" type="line"/>
      <point x="587" y="536" type="line"/>
      <point x="540" y="571"/>
      <point x="490" y="589"/>
      <point x="405" y="589" type="curve" smooth="yes"/>
      <point x="260" y="589"/>
      <point x="167" y="497"/>
      <point x="167" y="337" type="curve" smooth="yes"/>
      <point x="167" y="179"/>
      <point x="274" y="90"/>
      <point x="406" y="90" type="curve" smooth="yes"/>
    </contour>
    <contour>
      <point x="234" y="41"/>
      <point x="112" y="171"/>
      <point x="112" y="342" type="curve" smooth="yes"/>
      <point x="112" y="513"/>
      <point x="234" y="644"/>
      <point x="407" y="644" type="curve" smooth="yes"/>
      <point x="580" y="644"/>
      <point x="703" y="513"/>
      <point x="703" y="342" type="curve" smooth="yes"/>
      <point x="703" y="171"/>
      <point x="580" y="41"/>
      <point x="407" y="41" type="curve" smooth="yes"/>
    </contour>
  </outline>
</glyph>
<glyph name="ordfeminine" format="1">
  <advance width="396"/>
  <unicode hex="00AA"/>
  <note>
	ordfeminine
  </note>
  <outline>
    <contour>
      <point x="205" y="335"/>
      <point x="240" y="351"/>
      <point x="267" y="383" type="curve"/>
      <point x="278" y="345" type="line"/>
      <point x="347" y="345" type="line"/>
      <point x="347" y="385" type="line"/>
      <point x="331" y="385" type="line" smooth="yes"/>
      <point x="316" y="385"/>
      <point x="311" y="392"/>
      <point x="311" y="411" type="curve" smooth="yes"/>
      <point x="311" y="554" type="line" smooth="yes"/>
      <point x="311" y="618"/>
      <point x="278" y="662"/>
      <point x="192" y="662" type="curve" smooth="yes"/>
      <point x="147" y="662"/>
      <point x="109" y="651"/>
      <point x="74" y="629" type="curve"/>
      <point x="74" y="576" type="line"/>
      <point x="127" y="576" type="line"/>
      <point x="127" y="601" type="line"/>
      <point x="148" y="611"/>
      <point x="161" y="615"/>
      <point x="192" y="615" type="curve" smooth="yes"/>
      <point x="237" y="615"/>
      <point x="251" y="601"/>
      <point x="251" y="558" type="curve" smooth="yes"/>
      <point x="251" y="521" type="line"/>
      <point x="158" y="514" type="line" smooth="yes"/>
      <point x="93" y="510"/>
      <point x="49" y="483"/>
      <point x="49" y="421" type="curve" smooth="yes"/>
      <point x="49" y="366"/>
      <point x="83" y="335"/>
      <point x="147" y="335" type="curve" smooth="yes"/>
    </contour>
    <contour>
      <point x="126" y="381"/>
      <point x="107" y="395"/>
      <point x="107" y="423" type="curve" smooth="yes"/>
      <point x="107" y="457"/>
      <point x="123" y="471"/>
      <point x="163" y="474" type="curve" smooth="yes"/>
      <point x="251" y="481" type="line"/>
      <point x="251" y="454" type="line" smooth="yes"/>
      <point x="251" y="401"/>
      <point x="216" y="381"/>
      <point x="164" y="381" type="curve" smooth="yes"/>
    </contour>
  </outline>
</glyph>
<glyph name="guillemetleft" format="1">
  <advance width="578"/>
  <unicode hex="00AB"/>
  <note>
	guillemotleft
  </note>
  <outline>
    <contour>
      <point x="529" y="152" type="line"/>
      <point x="333" y="323" type="line"/>
      <point x="529" y="495" type="line"/>
      <point x="529" y="577" type="line"/>
      <point x="262" y="349" type="line"/>
      <point x="262" y="298" type="line"/>
      <point x="529" y="70" type="line"/>
    </contour>
    <contour>
      <point x="316" y="152" type="line"/>
      <point x="120" y="323" type="line"/>
      <point x="316" y="495" type="line"/>
      <point x="316" y="577" type="line"/>
      <point x="49" y="349" type="line"/>
      <point x="49" y="298" type="line"/>
      <point x="316" y="70" type="line"/>
    </contour>
  </outline>
</glyph>
<glyph name="logicalnot" format="1">
  <advance width="508"/>
  <unicode hex="00AC"/>
  <note>
	logicalnot
  </note>
  <outline>
    <contour>
      <point x="459" y="139" type="line"/>
      <point x="459" y="335" type="line"/>
      <point x="49" y="335" type="line"/>
      <point x="49" y="275" type="line"/>
      <point x="388" y="275" type="line"/>
      <point x="388" y="139" type="line"/>
    </contour>
  </outline>
</glyph>
<glyph name="softhyphen" format="1">
  <advance width="378"/>
  <unicode hex="00AD"/>
  <note>
	softhyphen
  </note>
  <outline>
    <contour>
      <point x="329" y="276" type="line"/>
      <point x="329" y="335" type="line"/>
      <point x="49" y="335" type="line"/>
      <point x="49" y="276" type="line"/>
    </contour>
  </outline>
</glyph>
<glyph name="registered" format="1">
  <advance width="815"/>
  <unicode hex="00AE"/>
  <note>
	registered
  </note>
  <outline>
    <contour>
      <point x="607" y="-15"/>
      <point x="766" y="144"/>
      <point x="766" y="342" type="curve" smooth="yes"/>
      <point x="766" y="541"/>
      <point x="607" y="700"/>
      <point x="408" y="700" type="curve" smooth="yes"/>
      <point x="208" y="700"/>
      <point x="49" y="541"/>
      <point x="49" y="342" type="curve" smooth="yes"/>
      <point x="49" y="144"/>
      <point x="208" y="-15"/>
      <point x="407" y="-15" type="curve" smooth="yes"/>
    </contour>
    <contour>
      <point x="234" y="41"/>
      <point x="112" y="171"/>
      <point x="112" y="342" type="curve" smooth="yes"/>
      <point x="112" y="513"/>
      <point x="234" y="644"/>
      <point x="407" y="644" type="curve" smooth="yes"/>
      <point x="580" y="644"/>
      <point x="703" y="513"/>
      <point x="703" y="342" type="curve" smooth="yes"/>
      <point x="703" y="171"/>
      <point x="580" y="41"/>
      <point x="407" y="41" type="curve" smooth="yes"/>
    </contour>
    <contour>
      <point x="369" y="127" type="line"/>
      <point x="369" y="174" type="line"/>
      <point x="351" y="174" type="line" smooth="yes"/>
      <point x="331" y="174"/>
      <point x="325" y="182"/>
      <point x="325" y="201" type="curve" smooth="yes"/>
      <point x="325" y="312" type="line"/>
      <point x="402" y="312" type="line"/>
      <point x="463" y="192" type="line" smooth="yes"/>
      <point x="485" y="148"/>
      <point x="513" y="127"/>
      <point x="572" y="127" type="curve" smooth="yes"/>
      <point x="601" y="127" type="line"/>
      <point x="601" y="174" type="line"/>
      <point x="576" y="174" type="line" smooth="yes"/>
      <point x="548" y="174"/>
      <point x="533" y="184"/>
      <point x="517" y="214" type="curve" smooth="yes"/>
      <point x="464" y="315" type="line"/>
      <point x="541" y="321"/>
      <point x="583" y="373"/>
      <point x="583" y="442" type="curve" smooth="yes"/>
      <point x="583" y="518"/>
      <point x="530" y="564"/>
      <point x="439" y="564" type="curve" smooth="yes"/>
      <point x="223" y="564" type="line"/>
      <point x="223" y="515" type="line"/>
      <point x="240" y="515" type="line" smooth="yes"/>
      <point x="260" y="515"/>
      <point x="266" y="508"/>
      <point x="266" y="488" type="curve" smooth="yes"/>
      <point x="266" y="201" type="line" smooth="yes"/>
      <point x="266" y="182"/>
      <point x="260" y="174"/>
      <point x="240" y="174" type="curve" smooth="yes"/>
      <point x="223" y="174" type="line"/>
      <point x="223" y="127" type="line"/>
    </contour>
    <contour>
      <point x="329" y="515" type="line"/>
      <point x="432" y="515" type="line" smooth="yes"/>
      <point x="493" y="515"/>
      <point x="523" y="496"/>
      <point x="523" y="442" type="curve" smooth="yes"/>
      <point x="523" y="389"/>
      <point x="492" y="360"/>
      <point x="432" y="360" type="curve" smooth="yes"/>
      <point x="329" y="360" type="line"/>
    </contour>
  </outline>
</glyph>
<glyph name="macron" format="1">
  <advance width="429"/>
  <unicode hex="00AF"/>
  <note>
	macron
  </note>
  <outline>
    <contour>
      <point x="380" y="580" type="line"/>
      <point x="380" y="637" type="line"/>
      <point x="49" y="637" type="line"/>
      <point x="49" y="580" type="line"/>
    </contour>
  </outline>
</glyph>
<glyph name="degree" format="1">
  <advance width="351"/>
  <unicode hex="00B0"/>
  <note>
	degree
  </note>
  <outline>
    <contour>
      <point x="245" y="412"/>
      <point x="302" y="469"/>
      <point x="302" y="538" type="curve" smooth="yes"/>
      <point x="302" y="609"/>
      <point x="245" y="665"/>
      <point x="174" y="665" type="curve" smooth="yes"/>
      <point x="105" y="665"/>
      <point x="49" y="609"/>
      <point x="49" y="538" type="curve" smooth="yes"/>
      <point x="49" y="469"/>
      <point x="105" y="412"/>
      <point x="174" y="412" type="curve" smooth="yes"/>
    </contour>
    <contour>
      <point x="135" y="468"/>
      <point x="104" y="498"/>
      <point x="104" y="538" type="curve" smooth="yes"/>
      <point x="104" y="579"/>
      <point x="135" y="610"/>
      <point x="174" y="610" type="curve" smooth="yes"/>
      <point x="216" y="610"/>
      <point x="246" y="579"/>
      <point x="246" y="538" type="curve" smooth="yes"/>
      <point x="246" y="498"/>
      <point x="216" y="468"/>
      <point x="174" y="468" type="curve" smooth="yes"/>
    </contour>
  </outline>
</glyph>
<glyph name="plusminus" format="1">
  <advance width="411"/>
  <unicode hex="00B1"/>
  <note>
	plusminus
  </note>
  <outline>
    <contour>
      <point x="240" y="168" type="line"/>
      <point x="240" y="276" type="line"/>
      <point x="362" y="276" type="line"/>
      <point x="362" y="335" type="line"/>
      <point x="240" y="335" type="line"/>
      <point x="240" y="443" type="line"/>
      <point x="169" y="443" type="line"/>
      <point x="169" y="335" type="line"/>
      <point x="49" y="335" type="line"/>
      <point x="49" y="276" type="line"/>
      <point x="169" y="276" type="line"/>
      <point x="169" y="168" type="line"/>
    </contour>
    <contour>
      <point x="362" y="34" type="line"/>
      <point x="362" y="93" type="line"/>
      <point x="49" y="93" type="line"/>
      <point x="49" y="34" type="line"/>
    </contour>
  </outline>
</glyph>
<glyph name="twosuperior" format="1">
  <advance width="332"/>
  <unicode hex="00B2"/>
  <note>
	twosuperior
  </note>
  <outline>
    <contour>
      <point x="283" y="345" type="line"/>
      <point x="283" y="391" type="line"/>
      <point x="113" y="391" type="line"/>
      <point x="113" y="419"/>
      <point x="144" y="437"/>
      <point x="186" y="463" type="curve" smooth="yes"/>
      <point x="256" y="505"/>
      <point x="281" y="525"/>
      <point x="281" y="573" type="curve" smooth="yes"/>
      <point x="281" y="629"/>
      <point x="238" y="662"/>
      <point x="164" y="662" type="curve" smooth="yes"/>
      <point x="125" y="662"/>
      <point x="75" y="648"/>
      <point x="49" y="629" type="curve"/>
      <point x="49" y="578" type="line"/>
      <point x="103" y="578" type="line"/>
      <point x="103" y="604" type="line"/>
      <point x="118" y="613"/>
      <point x="140" y="617"/>
      <point x="162" y="617" type="curve" smooth="yes"/>
      <point x="203" y="617"/>
      <point x="223" y="605"/>
      <point x="223" y="572" type="curve" smooth="yes"/>
      <point x="223" y="537"/>
      <point x="202" y="525"/>
      <point x="153" y="497" type="curve" smooth="yes"/>
      <point x="93" y="462"/>
      <point x="49" y="432"/>
      <point x="49" y="377" type="curve" smooth="yes"/>
      <point x="49" y="345" type="line"/>
    </contour>
  </outline>
</glyph>
<glyph name="threesuperior" format="1">
  <advance width="343"/>
  <unicode hex="00B3"/>
  <note>
	threesuperior
  </note>
  <outline>
    <contour>
      <point x="246" y="335"/>
      <point x="294" y="367"/>
      <point x="294" y="433" type="curve" smooth="yes"/>
      <point x="294" y="472"/>
      <point x="277" y="492"/>
      <point x="246" y="503" type="curve"/>
      <point x="276" y="518"/>
      <point x="288" y="547"/>
      <point x="288" y="577" type="curve" smooth="yes"/>
      <point x="288" y="630"/>
      <point x="247" y="662"/>
      <point x="169" y="662" type="curve" smooth="yes"/>
      <point x="125" y="662"/>
      <point x="79" y="645"/>
      <point x="55" y="626" type="curve"/>
      <point x="55" y="574" type="line"/>
      <point x="108" y="574" type="line"/>
      <point x="108" y="602" type="line"/>
      <point x="123" y="611"/>
      <point x="146" y="617"/>
      <point x="172" y="617" type="curve" smooth="yes"/>
      <point x="210" y="617"/>
      <point x="232" y="604"/>
      <point x="232" y="576" type="curve" smooth="yes"/>
      <point x="232" y="538"/>
      <point x="217" y="524"/>
      <point x="175" y="524" type="curve" smooth="yes"/>
      <point x="135" y="524" type="line"/>
      <point x="135" y="481" type="line"/>
      <point x="173" y="481" type="line" smooth="yes"/>
      <point x="219" y="481"/>
      <point x="238" y="470"/>
      <point x="238" y="433" type="curve" smooth="yes"/>
      <point x="238" y="392"/>
      <point x="209" y="379"/>
      <point x="165" y="379" type="curve" smooth="yes"/>
      <point x="138" y="379"/>
      <point x="117" y="385"/>
      <point x="102" y="397" type="curve"/>
      <point x="102" y="424" type="line"/>
      <point x="49" y="424" type="line"/>
      <point x="49" y="377" type="line"/>
      <point x="75" y="350"/>
      <point x="119" y="335"/>
      <point x="166" y="335" type="curve" smooth="yes"/>
    </contour>
  </outline>
</glyph>
<glyph name="acute" format="1">
  <advance width="285"/>
  <unicode hex="00B4"/>
  <note>
	acute
  </note>
  <outline>
    <contour>
      <point x="118" y="534" type="line"/>
      <point x="236" y="717" type="line"/>
      <point x="134" y="717" type="line"/>
      <point x="49" y="534" type="line"/>
    </contour>
  </outline>
</glyph>
<glyph name="paragraph" format="1">
  <advance width="640"/>
  <unicode hex="00B6"/>
  <note>
	paragraph
  </note>
  <outline>
    <contour>
      <point x="322" y="-156" type="line"/>
      <point x="322" y="588" type="line"/>
      <point x="444" y="588" type="line"/>
      <point x="444" y="-156" type="line"/>
      <point x="591" y="-156" type="line"/>
      <point x="591" y="-97" type="line"/>
      <point x="562" y="-97" type="line" smooth="yes"/>
      <point x="532" y="-97"/>
      <point x="524" y="-85"/>
      <point x="524" y="-60" type="curve" smooth="yes"/>
      <point x="524" y="551" type="line" smooth="yes"/>
      <point x="524" y="576"/>
      <point x="532" y="588"/>
      <point x="562" y="588" type="curve" smooth="yes"/>
      <point x="591" y="588" type="line"/>
      <point x="591" y="647" type="line"/>
      <point x="259" y="647" type="line" smooth="yes"/>
      <point x="116" y="647"/>
      <point x="49" y="588"/>
      <point x="49" y="473" type="curve" smooth="yes"/>
      <point x="49" y="378"/>
      <point x="113" y="312"/>
      <point x="242" y="312" type="curve"/>
      <point x="242" y="-60" type="line" smooth="yes"/>
      <point x="242" y="-85"/>
      <point x="234" y="-97"/>
      <point x="203" y="-97" type="curve" smooth="yes"/>
      <point x="174" y="-97" type="line"/>
      <point x="174" y="-156" type="line"/>
    </contour>
  </outline>
</glyph>
<glyph name="periodcentered" format="1">
  <advance width="179"/>
  <unicode hex="00B7"/>
  <note>
	periodcentered
  </note>
  <outline>
    <contour>
      <point x="130" y="267" type="line"/>
      <point x="130" y="346" type="line"/>
      <point x="49" y="346" type="line"/>
      <point x="49" y="267" type="line"/>
    </contour>
  </outline>
</glyph>
<glyph name="cedilla" format="1">
  <advance width="288"/>
  <unicode hex="00B8"/>
  <note>
	cedilla
  </note>
  <outline>
    <contour>
      <point x="196" y="-228"/>
      <point x="239" y="-196"/>
      <point x="239" y="-136" type="curve" smooth="yes"/>
      <point x="239" y="-90"/>
      <point x="219" y="-59"/>
      <point x="157" y="-50" type="curve"/>
      <point x="164" y="0" type="line"/>
      <point x="94" y="0" type="line"/>
      <point x="82" y="-84" type="line"/>
      <point x="158" y="-84"/>
      <point x="173" y="-99"/>
      <point x="173" y="-136" type="curve" smooth="yes"/>
      <point x="173" y="-164"/>
      <point x="151" y="-177"/>
      <point x="108" y="-177" type="curve" smooth="yes"/>
      <point x="85" y="-177"/>
      <point x="64" y="-172"/>
      <point x="49" y="-167" type="curve"/>
      <point x="49" y="-217" type="line"/>
      <point x="69" y="-224"/>
      <point x="90" y="-228"/>
      <point x="113" y="-228" type="curve" smooth="yes"/>
    </contour>
  </outline>
</glyph>
<glyph name="onesuperior" format="1">
  <advance width="286"/>
  <unicode hex="00B9"/>
  <note>
	onesuperior
  </note>
  <outline>
    <contour>
      <point x="247" y="345" type="line"/>
      <point x="247" y="390" type="line"/>
      <point x="213" y="390" type="line" smooth="yes"/>
      <point x="185" y="390"/>
      <point x="183" y="396"/>
      <point x="183" y="418" type="curve" smooth="yes"/>
      <point x="183" y="657" type="line"/>
      <point x="129" y="657" type="line"/>
      <point x="39" y="599" type="line"/>
      <point x="65" y="559" type="line"/>
      <point x="127" y="600" type="line"/>
      <point x="127" y="418" type="line" smooth="yes"/>
      <point x="127" y="396"/>
      <point x="124" y="390"/>
      <point x="97" y="390" type="curve" smooth="yes"/>
      <point x="63" y="390" type="line"/>
      <point x="63" y="345" type="line"/>
    </contour>
  </outline>
</glyph>
<glyph name="ordmasculine" format="1">
  <advance width="406"/>
  <unicode hex="00BA"/>
  <note>
	ordmasculine
  </note>
  <outline>
    <contour>
      <point x="306" y="335"/>
      <point x="357" y="400"/>
      <point x="357" y="498" type="curve" smooth="yes"/>
      <point x="357" y="596"/>
      <point x="307" y="662"/>
      <point x="203" y="662" type="curve" smooth="yes"/>
      <point x="99" y="662"/>
      <point x="49" y="596"/>
      <point x="49" y="498" type="curve" smooth="yes"/>
      <point x="49" y="400"/>
      <point x="99" y="335"/>
      <point x="203" y="335" type="curve" smooth="yes"/>
    </contour>
    <contour>
      <point x="139" y="383"/>
      <point x="108" y="419"/>
      <point x="108" y="498" type="curve" smooth="yes"/>
      <point x="108" y="576"/>
      <point x="139" y="614"/>
      <point x="203" y="614" type="curve" smooth="yes"/>
      <point x="266" y="614"/>
      <point x="297" y="576"/>
      <point x="297" y="498" type="curve" smooth="yes"/>
      <point x="297" y="419"/>
      <point x="266" y="383"/>
      <point x="203" y="383" type="curve" smooth="yes"/>
    </contour>
  </outline>
</glyph>
<glyph name="guillemetright" format="1">
  <advance width="578"/>
  <unicode hex="00BB"/>
  <note>
	guillemotright
  </note>
  <outline>
    <contour>
      <point x="529" y="298" type="line"/>
      <point x="529" y="349" type="line"/>
      <point x="262" y="577" type="line"/>
      <point x="262" y="495" type="line"/>
      <point x="458" y="323" type="line"/>
      <point x="262" y="152" type="line"/>
      <point x="262" y="70" type="line"/>
    </contour>
    <contour>
      <point x="316" y="298" type="line"/>
      <point x="316" y="349" type="line"/>
      <point x="49" y="577" type="line"/>
      <point x="49" y="495" type="line"/>
      <point x="245" y="323" type="line"/>
      <point x="49" y="152" type="line"/>
      <point x="49" y="70" type="line"/>
    </contour>
  </outline>
</glyph>
<glyph name="onequarter" format="1">
  <advance width="620"/>
  <unicode hex="00BC"/>
  <note>
	onequarter
  </note>
  <outline>
    <contour>
      <point x="162" y="0" type="line"/>
      <point x="566" y="647" type="line"/>
      <point x="491" y="647" type="line"/>
      <point x="86" y="0" type="line"/>
    </contour>
    <contour>
      <point x="561" y="0" type="line"/>
      <point x="561" y="41" type="line"/>
      <point x="535" y="41" type="line" smooth="yes"/>
      <point x="519" y="41"/>
      <point x="515" y="46"/>
      <point x="515" y="59" type="curve" smooth="yes"/>
      <point x="515" y="84" type="line"/>
      <point x="571" y="84" type="line"/>
      <point x="571" y="127" type="line"/>
      <point x="515" y="127" type="line"/>
      <point x="515" y="312" type="line"/>
      <point x="455" y="312" type="line"/>
      <point x="310" y="125" type="line"/>
      <point x="310" y="84" type="line"/>
      <point x="460" y="84" type="line"/>
      <point x="460" y="59" type="line" smooth="yes"/>
      <point x="460" y="46"/>
      <point x="457" y="41"/>
      <point x="442" y="41" type="curve" smooth="yes"/>
      <point x="415" y="41" type="line"/>
      <point x="415" y="0" type="line"/>
    </contour>
    <contour>
      <point x="464" y="251" type="line"/>
      <point x="464" y="127" type="line"/>
      <point x="368" y="127" type="line"/>
    </contour>
    <contour>
      <point x="257" y="345" type="line"/>
      <point x="257" y="390" type="line"/>
      <point x="223" y="390" type="line" smooth="yes"/>
      <point x="195" y="390"/>
      <point x="193" y="396"/>
      <point x="193" y="418" type="curve" smooth="yes"/>
      <point x="193" y="657" type="line"/>
      <point x="139" y="657" type="line"/>
      <point x="49" y="599" type="line"/>
      <point x="75" y="559" type="line"/>
      <point x="137" y="600" type="line"/>
      <point x="137" y="418" type="line" smooth="yes"/>
      <point x="137" y="396"/>
      <point x="134" y="390"/>
      <point x="107" y="390" type="curve" smooth="yes"/>
      <point x="73" y="390" type="line"/>
      <point x="73" y="345" type="line"/>
    </contour>
  </outline>
</glyph>
<glyph name="onehalf" format="1">
  <advance width="659"/>
  <unicode hex="00BD"/>
  <note>
	onehalf
  </note>
  <outline>
    <contour>
      <point x="162" y="0" type="line"/>
      <point x="566" y="647" type="line"/>
      <point x="491" y="647" type="line"/>
      <point x="86" y="0" type="line"/>
    </contour>
    <contour>
      <point x="610" y="0" type="line"/>
      <point x="610" y="46" type="line"/>
      <point x="439" y="46" type="line"/>
      <point x="439" y="74"/>
      <point x="470" y="92"/>
      <point x="512" y="118" type="curve" smooth="yes"/>
      <point x="582" y="160"/>
      <point x="607" y="180"/>
      <point x="607" y="228" type="curve" smooth="yes"/>
      <point x="607" y="284"/>
      <point x="565" y="317"/>
      <point x="490" y="317" type="curve" smooth="yes"/>
      <point x="452" y="317"/>
      <point x="402" y="303"/>
      <point x="375" y="284" type="curve"/>
      <point x="375" y="233" type="line"/>
      <point x="429" y="233" type="line"/>
      <point x="429" y="259" type="line"/>
      <point x="444" y="268"/>
      <point x="466" y="272"/>
      <point x="488" y="272" type="curve" smooth="yes"/>
      <point x="529" y="272"/>
      <point x="549" y="260"/>
      <point x="549" y="227" type="curve" smooth="yes"/>
      <point x="549" y="192"/>
      <point x="528" y="180"/>
      <point x="479" y="152" type="curve" smooth="yes"/>
      <point x="419" y="117"/>
      <point x="375" y="87"/>
      <point x="375" y="32" type="curve" smooth="yes"/>
      <point x="375" y="0" type="line"/>
    </contour>
    <contour>
      <point x="257" y="345" type="line"/>
      <point x="257" y="390" type="line"/>
      <point x="223" y="390" type="line" smooth="yes"/>
      <point x="195" y="390"/>
      <point x="193" y="396"/>
      <point x="193" y="418" type="curve" smooth="yes"/>
      <point x="193" y="657" type="line"/>
      <point x="139" y="657" type="line"/>
      <point x="49" y="599" type="line"/>
      <point x="75" y="559" type="line"/>
      <point x="137" y="600" type="line"/>
      <point x="137" y="418" type="line" smooth="yes"/>
      <point x="137" y="396"/>
      <point x="134" y="390"/>
      <point x="107" y="390" type="curve" smooth="yes"/>
      <point x="73" y="390" type="line"/>
      <point x="73" y="345" type="line"/>
    </contour>
  </outline>
</glyph>
<glyph name="threequarters" format="1">
  <advance width="629"/>
  <unicode hex="00BE"/>
  <note>
	threequarters
  </note>
  <outline>
    <contour>
      <point x="170" y="0" type="line"/>
      <point x="575" y="647" type="line"/>
      <point x="499" y="647" type="line"/>
      <point x="95" y="0" type="line"/>
    </contour>
    <contour>
      <point x="569" y="0" type="line"/>
      <point x="569" y="41" type="line"/>
      <point x="543" y="41" type="line" smooth="yes"/>
      <point x="527" y="41"/>
      <point x="524" y="46"/>
      <point x="524" y="59" type="curve" smooth="yes"/>
      <point x="524" y="84" type="line"/>
      <point x="580" y="84" type="line"/>
      <point x="580" y="127" type="line"/>
      <point x="524" y="127" type="line"/>
      <point x="524" y="312" type="line"/>
      <point x="464" y="312" type="line"/>
      <point x="318" y="125" type="line"/>
      <point x="318" y="84" type="line"/>
      <point x="469" y="84" type="line"/>
      <point x="469" y="59" type="line" smooth="yes"/>
      <point x="469" y="46"/>
      <point x="465" y="41"/>
      <point x="450" y="41" type="curve" smooth="yes"/>
      <point x="423" y="41" type="line"/>
      <point x="423" y="0" type="line"/>
    </contour>
    <contour>
      <point x="472" y="251" type="line"/>
      <point x="472" y="127" type="line"/>
      <point x="376" y="127" type="line"/>
    </contour>
    <contour>
      <point x="246" y="335"/>
      <point x="294" y="367"/>
      <point x="294" y="433" type="curve" smooth="yes"/>
      <point x="294" y="472"/>
      <point x="277" y="492"/>
      <point x="246" y="503" type="curve"/>
      <point x="276" y="518"/>
      <point x="288" y="547"/>
      <point x="288" y="577" type="curve" smooth="yes"/>
      <point x="288" y="630"/>
      <point x="245" y="662"/>
      <point x="167" y="662" type="curve" smooth="yes"/>
      <point x="123" y="662"/>
      <point x="79" y="645"/>
      <point x="55" y="626" type="curve"/>
      <point x="55" y="574" type="line"/>
      <point x="108" y="574" type="line"/>
      <point x="108" y="602" type="line"/>
      <point x="123" y="610"/>
      <point x="146" y="617"/>
      <point x="172" y="617" type="curve" smooth="yes"/>
      <point x="210" y="617"/>
      <point x="232" y="604"/>
      <point x="232" y="576" type="curve" smooth="yes"/>
      <point x="232" y="538"/>
      <point x="217" y="524"/>
      <point x="175" y="524" type="curve" smooth="yes"/>
      <point x="135" y="524" type="line"/>
      <point x="135" y="481" type="line"/>
      <point x="173" y="481" type="line" smooth="yes"/>
      <point x="219" y="481"/>
      <point x="238" y="470"/>
      <point x="238" y="433" type="curve" smooth="yes"/>
      <point x="238" y="392"/>
      <point x="209" y="379"/>
      <point x="165" y="379" type="curve" smooth="yes"/>
      <point x="138" y="379"/>
      <point x="117" y="385"/>
      <point x="102" y="397" type="curve"/>
      <point x="102" y="424" type="line"/>
      <point x="49" y="424" type="line"/>
      <point x="49" y="377" type="line"/>
      <point x="75" y="350"/>
      <point x="119" y="335"/>
      <point x="166" y="335" type="curve" smooth="yes"/>
    </contour>
  </outline>
</glyph>
<glyph name="questiondown" format="1">
  <advance width="528"/>
  <unicode hex="00BF"/>
  <note>
	questiondown
  </note>
  <outline>
    <contour>
      <point x="350" y="-167"/>
      <point x="430" y="-140"/>
      <point x="479" y="-104" type="curve"/>
      <point x="479" y="-17" type="line"/>
      <point x="404" y="-17" type="line"/>
      <point x="404" y="-74" type="line"/>
      <point x="372" y="-93"/>
      <point x="321" y="-107"/>
      <point x="269" y="-107" type="curve" smooth="yes"/>
      <point x="184" y="-107"/>
      <point x="126" y="-80"/>
      <point x="126" y="-4" type="curve" smooth="yes"/>
      <point x="126" y="67"/>
      <point x="155" y="91"/>
      <point x="226" y="125" type="curve" smooth="yes"/>
      <point x="316" y="168"/>
      <point x="346" y="226"/>
      <point x="346" y="312" type="curve" smooth="yes"/>
      <point x="346" y="343" type="line"/>
      <point x="267" y="343" type="line"/>
      <point x="267" y="314" type="line" smooth="yes"/>
      <point x="267" y="252"/>
      <point x="258" y="213"/>
      <point x="193" y="180" type="curve" smooth="yes"/>
      <point x="88" y="126"/>
      <point x="49" y="89"/>
      <point x="49" y="-4" type="curve" smooth="yes"/>
      <point x="49" y="-118"/>
      <point x="140" y="-167"/>
      <point x="268" y="-167" type="curve" smooth="yes"/>
    </contour>
    <contour>
      <point x="354" y="413" type="line"/>
      <point x="354" y="495" type="line"/>
      <point x="259" y="495" type="line"/>
      <point x="259" y="413" type="line"/>
    </contour>
  </outline>
</glyph>
<glyph name="Atilde" format="1">
  <advance width="721"/>
  <unicode hex="00C3"/>
  <note>
	Atilde
  </note>
  <outline>
    <contour>
      <point x="246" y="0" type="line"/>
      <point x="246" y="59" type="line"/>
      <point x="192" y="59" type="line"/>
      <point x="244" y="205" type="line"/>
      <point x="478" y="205" type="line"/>
      <point x="529" y="59" type="line"/>
      <point x="475" y="59" type="line"/>
      <point x="475" y="0" type="line"/>
      <point x="682" y="0" type="line"/>
      <point x="682" y="59" type="line"/>
      <point x="650" y="59" type="line" smooth="yes"/>
      <point x="622" y="59"/>
      <point x="605" y="68"/>
      <point x="595" y="95" type="curve" smooth="yes"/>
      <point x="399" y="647" type="line"/>
      <point x="324" y="647" type="line"/>
      <point x="126" y="95" type="line" smooth="yes"/>
      <point x="116" y="68"/>
      <point x="99" y="59"/>
      <point x="72" y="59" type="curve" smooth="yes"/>
      <point x="39" y="59" type="line"/>
      <point x="39" y="0" type="line"/>
    </contour>
    <contour>
      <point x="361" y="540" type="line"/>
      <point x="460" y="259" type="line"/>
      <point x="262" y="259" type="line"/>
    </contour>
    <contour>
      <point x="239" y="702" type="line"/>
      <point x="239" y="747"/>
      <point x="255" y="758"/>
      <point x="284" y="758" type="curve" smooth="yes"/>
      <point x="340" y="758"/>
      <point x="379" y="702"/>
      <point x="447" y="702" type="curve" smooth="yes"/>
      <point x="513" y="702"/>
      <point x="547" y="738"/>
      <point x="547" y="823" type="curve"/>
      <point x="484" y="823" type="line"/>
      <point x="484" y="778"/>
      <point x="469" y="766"/>
      <point x="440" y="766" type="curve" smooth="yes"/>
      <point x="389" y="766"/>
      <point x="348" y="823"/>
      <point x="277" y="823" type="curve" smooth="yes"/>
      <point x="211" y="823"/>
      <point x="176" y="786"/>
      <point x="176" y="702" type="curve"/>
    </contour>
  </outline>
</glyph>
<glyph name="Aring" format="1">
  <advance width="721"/>
  <unicode hex="00C5"/>
  <note>
	Aring
  </note>
  <outline>
    <contour>
      <point x="246" y="0" type="line"/>
      <point x="246" y="59" type="line"/>
      <point x="192" y="59" type="line"/>
      <point x="244" y="205" type="line"/>
      <point x="478" y="205" type="line"/>
      <point x="529" y="59" type="line"/>
      <point x="475" y="59" type="line"/>
      <point x="475" y="0" type="line"/>
      <point x="682" y="0" type="line"/>
      <point x="682" y="59" type="line"/>
      <point x="650" y="59" type="line" smooth="yes"/>
      <point x="622" y="59"/>
      <point x="605" y="68"/>
      <point x="595" y="95" type="curve" smooth="yes"/>
      <point x="399" y="647" type="line"/>
      <point x="324" y="647" type="line"/>
      <point x="126" y="95" type="line" smooth="yes"/>
      <point x="116" y="68"/>
      <point x="99" y="59"/>
      <point x="72" y="59" type="curve" smooth="yes"/>
      <point x="39" y="59" type="line"/>
      <point x="39" y="0" type="line"/>
    </contour>
    <contour>
      <point x="361" y="540" type="line"/>
      <point x="460" y="259" type="line"/>
      <point x="262" y="259" type="line"/>
    </contour>
    <contour>
      <point x="422" y="602"/>
      <point x="472" y="651"/>
      <point x="472" y="712" type="curve" smooth="yes"/>
      <point x="472" y="774"/>
      <point x="422" y="823"/>
      <point x="361" y="823" type="curve" smooth="yes"/>
      <point x="299" y="823"/>
      <point x="251" y="774"/>
      <point x="251" y="712" type="curve" smooth="yes"/>
      <point x="251" y="651"/>
      <point x="299" y="602"/>
      <point x="361" y="602" type="curve" smooth="yes"/>
    </contour>
    <contour>
      <point x="327" y="654"/>
      <point x="302" y="679"/>
      <point x="302" y="712" type="curve" smooth="yes"/>
      <point x="302" y="746"/>
      <point x="327" y="772"/>
      <point x="361" y="772" type="curve" smooth="yes"/>
      <point x="394" y="772"/>
      <point x="420" y="746"/>
      <point x="420" y="712" type="curve" smooth="yes"/>
      <point x="420" y="679"/>
      <point x="394" y="654"/>
      <point x="361" y="654" type="curve" smooth="yes"/>
    </contour>
  </outline>
</glyph>
<glyph name="Ccedilla" format="1">
  <advance width="597"/>
  <unicode hex="00C7"/>
  <note>
	Ccedilla
  </note>
  <outline>
    <contour>
      <point x="417" y="-228"/>
      <point x="461" y="-196"/>
      <point x="461" y="-136" type="curve" smooth="yes"/>
      <point x="461" y="-90"/>
      <point x="440" y="-59"/>
      <point x="378" y="-50" type="curve"/>
      <point x="383" y="-14" type="line"/>
      <point x="449" y="-12"/>
      <point x="501" y="0"/>
      <point x="552" y="32" type="curve"/>
      <point x="520" y="82" type="line"/>
      <point x="475" y="55"/>
      <point x="426" y="45"/>
      <point x="363" y="45" type="curve" smooth="yes"/>
      <point x="215" y="45"/>
      <point x="116" y="148"/>
      <point x="116" y="320" type="curve" smooth="yes"/>
      <point x="116" y="496"/>
      <point x="204" y="602"/>
      <point x="352" y="602" type="curve" smooth="yes"/>
      <point x="404" y="602"/>
      <point x="446" y="594"/>
      <point x="479" y="578" type="curve"/>
      <point x="479" y="518" type="line"/>
      <point x="558" y="518" type="line"/>
      <point x="558" y="608" type="line"/>
      <point x="509" y="644"/>
      <point x="442" y="662"/>
      <point x="352" y="662" type="curve" smooth="yes"/>
      <point x="139" y="662"/>
      <point x="39" y="514"/>
      <point x="39" y="320" type="curve" smooth="yes"/>
      <point x="39" y="141"/>
      <point x="135" y="7"/>
      <point x="314" y="-12" type="curve"/>
      <point x="303" y="-84" type="line"/>
      <point x="379" y="-84"/>
      <point x="395" y="-99"/>
      <point x="395" y="-136" type="curve" smooth="yes"/>
      <point x="395" y="-164"/>
      <point x="373" y="-177"/>
      <point x="329" y="-177" type="curve" smooth="yes"/>
      <point x="306" y="-177"/>
      <point x="285" y="-172"/>
      <point x="270" y="-167" type="curve"/>
      <point x="270" y="-217" type="line"/>
      <point x="290" y="-224"/>
      <point x="311" y="-228"/>
      <point x="335" y="-228" type="curve" smooth="yes"/>
    </contour>
  </outline>
</glyph>
<glyph name="Eacute" format="1">
  <advance width="544"/>
  <unicode hex="00C9"/>
  <note>
	Eacute
  </note>
  <outline>
    <contour>
      <point x="505" y="0" type="line"/>
      <point x="505" y="117" type="line"/>
      <point x="433" y="117" type="line"/>
      <point x="433" y="94" type="line" smooth="yes"/>
      <point x="433" y="69"/>
      <point x="423" y="59"/>
      <point x="396" y="59" type="curve" smooth="yes"/>
      <point x="186" y="59" type="line"/>
      <point x="186" y="295" type="line"/>
      <point x="378" y="295" type="line"/>
      <point x="378" y="354" type="line"/>
      <point x="186" y="354" type="line"/>
      <point x="186" y="588" type="line"/>
      <point x="396" y="588" type="line" smooth="yes"/>
      <point x="423" y="588"/>
      <point x="433" y="578"/>
      <point x="433" y="553" type="curve" smooth="yes"/>
      <point x="433" y="531" type="line"/>
      <point x="505" y="531" type="line"/>
      <point x="505" y="647" type="line"/>
      <point x="39" y="647" type="line"/>
      <point x="39" y="588" type="line"/>
      <point x="71" y="588" type="line" smooth="yes"/>
      <point x="97" y="588"/>
      <point x="106" y="578"/>
      <point x="106" y="552" type="curve" smooth="yes"/>
      <point x="106" y="96" type="line" smooth="yes"/>
      <point x="106" y="69"/>
      <point x="97" y="59"/>
      <point x="71" y="59" type="curve" smooth="yes"/>
      <point x="39" y="59" type="line"/>
      <point x="39" y="0" type="line"/>
    </contour>
    <contour>
      <point x="294" y="701" type="line"/>
      <point x="409" y="880" type="line"/>
      <point x="307" y="880" type="line"/>
      <point x="224" y="701" type="line"/>
    </contour>
  </outline>
</glyph>
<glyph name="Icircumflex" format="1">
  <advance width="292"/>
  <unicode hex="00CE"/>
  <note>
	Icircumflex
  </note>
  <outline>
    <contour>
      <point x="253" y="0" type="line"/>
      <point x="253" y="59" type="line"/>
      <point x="221" y="59" type="line" smooth="yes"/>
      <point x="195" y="59"/>
      <point x="186" y="69"/>
      <point x="186" y="95" type="curve" smooth="yes"/>
      <point x="186" y="552" type="line" smooth="yes"/>
      <point x="186" y="578"/>
      <point x="195" y="588"/>
      <point x="221" y="588" type="curve" smooth="yes"/>
      <point x="253" y="588" type="line"/>
      <point x="253" y="647" type="line"/>
      <point x="39" y="647" type="line"/>
      <point x="39" y="588" type="line"/>
      <point x="71" y="588" type="line" smooth="yes"/>
      <point x="97" y="588"/>
      <point x="106" y="578"/>
      <point x="106" y="552" type="curve" smooth="yes"/>
      <point x="106" y="96" type="line" smooth="yes"/>
      <point x="106" y="69"/>
      <point x="97" y="59"/>
      <point x="71" y="59" type="curve" smooth="yes"/>
      <point x="39" y="59" type="line"/>
      <point x="39" y="0" type="line"/>
    </contour>
    <contour>
      <point x="62" y="701" type="line"/>
      <point x="146" y="833" type="line"/>
      <point x="230" y="701" type="line"/>
      <point x="309" y="701" type="line"/>
      <point x="189" y="884" type="line"/>
      <point x="103" y="884" type="line"/>
      <point x="-17" y="701" type="line"/>
    </contour>
  </outline>
</glyph>
<glyph name="Ntilde" format="1">
  <advance width="688"/>
  <unicode hex="00D1"/>
  <note>
	Ntilde
  </note>
  <outline>
    <contour>
      <point x="253" y="0" type="line"/>
      <point x="253" y="59" type="line"/>
      <point x="221" y="59" type="line" smooth="yes"/>
      <point x="195" y="59"/>
      <point x="185" y="69"/>
      <point x="185" y="95" type="curve" smooth="yes"/>
      <point x="185" y="512" type="line"/>
      <point x="516" y="0" type="line"/>
      <point x="582" y="0" type="line"/>
      <point x="582" y="552" type="line" smooth="yes"/>
      <point x="582" y="578"/>
      <point x="591" y="588"/>
      <point x="617" y="588" type="curve" smooth="yes"/>
      <point x="649" y="588" type="line"/>
      <point x="649" y="647" type="line"/>
      <point x="435" y="647" type="line"/>
      <point x="435" y="588" type="line"/>
      <point x="467" y="588" type="line" smooth="yes"/>
      <point x="493" y="588"/>
      <point x="503" y="578"/>
      <point x="503" y="552" type="curve" smooth="yes"/>
      <point x="503" y="134" type="line"/>
      <point x="172" y="647" type="line"/>
      <point x="39" y="647" type="line"/>
      <point x="39" y="588" type="line"/>
      <point x="71" y="588" type="line" smooth="yes"/>
      <point x="97" y="588"/>
      <point x="106" y="578"/>
      <point x="106" y="552" type="curve" smooth="yes"/>
      <point x="106" y="95" type="line" smooth="yes"/>
      <point x="106" y="69"/>
      <point x="97" y="59"/>
      <point x="71" y="59" type="curve" smooth="yes"/>
      <point x="39" y="59" type="line"/>
      <point x="39" y="0" type="line"/>
    </contour>
    <contour>
      <point x="222" y="702" type="line"/>
      <point x="222" y="747"/>
      <point x="238" y="758"/>
      <point x="267" y="758" type="curve" smooth="yes"/>
      <point x="323" y="758"/>
      <point x="362" y="702"/>
      <point x="430" y="702" type="curve" smooth="yes"/>
      <point x="496" y="702"/>
      <point x="530" y="738"/>
      <point x="530" y="823" type="curve"/>
      <point x="467" y="823" type="line"/>
      <point x="467" y="778"/>
      <point x="452" y="766"/>
      <point x="423" y="766" type="curve" smooth="yes"/>
      <point x="372" y="766"/>
      <point x="331" y="823"/>
      <point x="260" y="823" type="curve" smooth="yes"/>
      <point x="194" y="823"/>
      <point x="159" y="786"/>
      <point x="159" y="702" type="curve"/>
    </contour>
  </outline>
</glyph>
<glyph name="Ograve" format="1">
  <advance width="655"/>
  <unicode hex="00D2"/>
  <note>
	Ograve
  </note>
  <outline>
    <contour>
      <point x="524" y="-15"/>
      <point x="616" y="97"/>
      <point x="616" y="321" type="curve" smooth="yes"/>
      <point x="616" y="545"/>
      <point x="531" y="662"/>
      <point x="328" y="662" type="curve" smooth="yes"/>
      <point x="124" y="662"/>
      <point x="39" y="545"/>
      <point x="39" y="321" type="curve" smooth="yes"/>
      <point x="39" y="97"/>
      <point x="131" y="-15"/>
      <point x="328" y="-15" type="curve" smooth="yes"/>
    </contour>
    <contour>
      <point x="190" y="45"/>
      <point x="116" y="120"/>
      <point x="116" y="321" type="curve" smooth="yes"/>
      <point x="116" y="526"/>
      <point x="188" y="602"/>
      <point x="328" y="602" type="curve" smooth="yes"/>
      <point x="467" y="602"/>
      <point x="539" y="526"/>
      <point x="539" y="321" type="curve" smooth="yes"/>
      <point x="539" y="120"/>
      <point x="465" y="45"/>
      <point x="328" y="45" type="curve" smooth="yes"/>
    </contour>
    <contour>
      <point x="362" y="701" type="line"/>
      <point x="279" y="880" type="line"/>
      <point x="177" y="880" type="line"/>
      <point x="292" y="701" type="line"/>
    </contour>
  </outline>
</glyph>
<glyph name="Oacute" format="1">
  <advance width="655"/>
  <unicode hex="00D3"/>
  <note>
	Oacute
  </note>
  <outline>
    <contour>
      <point x="524" y="-15"/>
      <point x="616" y="97"/>
      <point x="616" y="321" type="curve" smooth="yes"/>
      <point x="616" y="545"/>
      <point x="531" y="662"/>
      <point x="328" y="662" type="curve" smooth="yes"/>
      <point x="124" y="662"/>
      <point x="39" y="545"/>
      <point x="39" y="321" type="curve" smooth="yes"/>
      <point x="39" y="97"/>
      <point x="131" y="-15"/>
      <point x="328" y="-15" type="curve" smooth="yes"/>
    </contour>
    <contour>
      <point x="190" y="45"/>
      <point x="116" y="120"/>
      <point x="116" y="321" type="curve" smooth="yes"/>
      <point x="116" y="526"/>
      <point x="188" y="602"/>
      <point x="328" y="602" type="curve" smooth="yes"/>
      <point x="467" y="602"/>
      <point x="539" y="526"/>
      <point x="539" y="321" type="curve" smooth="yes"/>
      <point x="539" y="120"/>
      <point x="465" y="45"/>
      <point x="328" y="45" type="curve" smooth="yes"/>
    </contour>
    <contour>
      <point x="343" y="701" type="line"/>
      <point x="458" y="880" type="line"/>
      <point x="356" y="880" type="line"/>
      <point x="273" y="701" type="line"/>
    </contour>
  </outline>
</glyph>
<glyph name="Otilde" format="1">
  <advance width="655"/>
  <unicode hex="00D5"/>
  <note>
	Otilde
  </note>
  <outline>
    <contour>
      <point x="524" y="-15"/>
      <point x="616" y="97"/>
      <point x="616" y="321" type="curve" smooth="yes"/>
      <point x="616" y="545"/>
      <point x="531" y="662"/>
      <point x="328" y="662" type="curve" smooth="yes"/>
      <point x="124" y="662"/>
      <point x="39" y="545"/>
      <point x="39" y="321" type="curve" smooth="yes"/>
      <point x="39" y="97"/>
      <point x="131" y="-15"/>
      <point x="328" y="-15" type="curve" smooth="yes"/>
    </contour>
    <contour>
      <point x="190" y="45"/>
      <point x="116" y="120"/>
      <point x="116" y="321" type="curve" smooth="yes"/>
      <point x="116" y="526"/>
      <point x="188" y="602"/>
      <point x="328" y="602" type="curve" smooth="yes"/>
      <point x="467" y="602"/>
      <point x="539" y="526"/>
      <point x="539" y="321" type="curve" smooth="yes"/>
      <point x="539" y="120"/>
      <point x="465" y="45"/>
      <point x="328" y="45" type="curve" smooth="yes"/>
    </contour>
    <contour>
      <point x="204" y="702" type="line"/>
      <point x="204" y="747"/>
      <point x="220" y="758"/>
      <point x="249" y="758" type="curve" smooth="yes"/>
      <point x="305" y="758"/>
      <point x="344" y="702"/>
      <point x="412" y="702" type="curve" smooth="yes"/>
      <point x="478" y="702"/>
      <point x="512" y="738"/>
      <point x="512" y="823" type="curve"/>
      <point x="449" y="823" type="line"/>
      <point x="449" y="778"/>
      <point x="434" y="766"/>
      <point x="405" y="766" type="curve" smooth="yes"/>
      <point x="354" y="766"/>
      <point x="313" y="823"/>
      <point x="242" y="823" type="curve" smooth="yes"/>
      <point x="176" y="823"/>
      <point x="141" y="786"/>
      <point x="141" y="702" type="curve"/>
    </contour>
  </outline>
</glyph>
<glyph name="multiply" format="1">
  <advance width="358"/>
  <unicode hex="00D7"/>
  <note>
	multiply
  </note>
  <outline>
    <contour>
      <point x="180" y="256" type="line"/>
      <point x="260" y="176" type="line"/>
      <point x="309" y="224" type="line"/>
      <point x="228" y="305" type="line"/>
      <point x="309" y="387" type="line"/>
      <point x="261" y="435" type="line"/>
      <point x="179" y="353" type="line"/>
      <point x="98" y="435" type="line"/>
      <point x="49" y="387" type="line"/>
      <point x="131" y="305" type="line"/>
      <point x="50" y="224" type="line"/>
      <point x="98" y="175" type="line"/>
    </contour>
  </outline>
</glyph>
<glyph name="Oslash" format="1">
  <advance width="655"/>
  <unicode hex="00D8"/>
  <note>
	Oslash
  </note>
  <outline>
    <contour>
      <point x="212" y="-43" type="line"/>
      <point x="226" y="-3" type="line"/>
      <point x="256" y="-11"/>
      <point x="290" y="-15"/>
      <point x="328" y="-15" type="curve" smooth="yes"/>
      <point x="524" y="-15"/>
      <point x="616" y="97"/>
      <point x="616" y="321" type="curve" smooth="yes"/>
      <point x="616" y="486"/>
      <point x="569" y="593"/>
      <point x="463" y="637" type="curve"/>
      <point x="483" y="689" type="line"/>
      <point x="429" y="689" type="line"/>
      <point x="415" y="652" type="line"/>
      <point x="389" y="659"/>
      <point x="359" y="662"/>
      <point x="328" y="662" type="curve" smooth="yes"/>
      <point x="124" y="662"/>
      <point x="39" y="545"/>
      <point x="39" y="321" type="curve" smooth="yes"/>
      <point x="39" y="163"/>
      <point x="84" y="61"/>
      <point x="179" y="15" type="curve"/>
      <point x="158" y="-43" type="line"/>
    </contour>
    <contour>
      <point x="146" y="118"/>
      <point x="116" y="194"/>
      <point x="116" y="321" type="curve" smooth="yes"/>
      <point x="116" y="526"/>
      <point x="188" y="602"/>
      <point x="328" y="602" type="curve" smooth="yes"/>
      <point x="352" y="602"/>
      <point x="374" y="599"/>
      <point x="394" y="594" type="curve"/>
      <point x="203" y="79" type="line"/>
    </contour>
    <contour>
      <point x="298" y="45"/>
      <point x="271" y="48"/>
      <point x="248" y="56" type="curve"/>
      <point x="441" y="576" type="line"/>
      <point x="505" y="539"/>
      <point x="539" y="459"/>
      <point x="539" y="321" type="curve" smooth="yes"/>
      <point x="539" y="120"/>
      <point x="465" y="45"/>
      <point x="328" y="45" type="curve" smooth="yes"/>
    </contour>
  </outline>
</glyph>
<glyph name="Udieresis" format="1">
  <advance width="673"/>
  <unicode hex="00DC"/>
  <note>
	Udieresis
  </note>
  <outline>
    <contour>
      <point x="499" y="-15"/>
      <point x="575" y="64"/>
      <point x="575" y="179" type="curve" smooth="yes"/>
      <point x="575" y="552" type="line" smooth="yes"/>
      <point x="575" y="578"/>
      <point x="585" y="588"/>
      <point x="611" y="588" type="curve" smooth="yes"/>
      <point x="634" y="588" type="line"/>
      <point x="634" y="647" type="line"/>
      <point x="437" y="647" type="line"/>
      <point x="437" y="588" type="line"/>
      <point x="459" y="588" type="line" smooth="yes"/>
      <point x="485" y="588"/>
      <point x="495" y="578"/>
      <point x="495" y="551" type="curve" smooth="yes"/>
      <point x="495" y="173" type="line" smooth="yes"/>
      <point x="495" y="85"/>
      <point x="440" y="45"/>
      <point x="336" y="45" type="curve" smooth="yes"/>
      <point x="232" y="45"/>
      <point x="178" y="85"/>
      <point x="178" y="173" type="curve" smooth="yes"/>
      <point x="178" y="551" type="line" smooth="yes"/>
      <point x="178" y="578"/>
      <point x="187" y="588"/>
      <point x="213" y="588" type="curve" smooth="yes"/>
      <point x="235" y="588" type="line"/>
      <point x="235" y="647" type="line"/>
      <point x="39" y="647" type="line"/>
      <point x="39" y="588" type="line"/>
      <point x="63" y="588" type="line" smooth="yes"/>
      <point x="89" y="588"/>
      <point x="98" y="578"/>
      <point x="98" y="552" type="curve" smooth="yes"/>
      <point x="98" y="179" type="line" smooth="yes"/>
      <point x="98" y="64"/>
      <point x="173" y="-15"/>
      <point x="336" y="-15" type="curve" smooth="yes"/>
    </contour>
    <contour>
      <point x="276" y="721" type="line"/>
      <point x="276" y="803" type="line"/>
      <point x="196" y="803" type="line"/>
      <point x="196" y="721" type="line"/>
    </contour>
    <contour>
      <point x="477" y="721" type="line"/>
      <point x="477" y="803" type="line"/>
      <point x="397" y="803" type="line"/>
      <point x="397" y="721" type="line"/>
    </contour>
  </outline>
</glyph>
<glyph name="Thorn" format="1">
  <advance width="618"/>
  <unicode hex="00DE"/>
  <note>
	Thorn
  </note>
  <outline>
    <contour>
      <point x="253" y="0" type="line"/>
      <point x="253" y="59" type="line"/>
      <point x="224" y="59" type="line" smooth="yes"/>
      <point x="194" y="59"/>
      <point x="186" y="70"/>
      <point x="186" y="95" type="curve" smooth="yes"/>
      <point x="186" y="133" type="line"/>
      <point x="375" y="133" type="line" smooth="yes"/>
      <point x="504" y="133"/>
      <point x="579" y="212"/>
      <point x="579" y="335" type="curve" smooth="yes"/>
      <point x="579" y="464"/>
      <point x="504" y="530"/>
      <point x="369" y="530" type="curve" smooth="yes"/>
      <point x="186" y="530" type="line"/>
      <point x="186" y="647" type="line"/>
      <point x="39" y="647" type="line"/>
      <point x="39" y="588" type="line"/>
      <point x="68" y="588" type="line" smooth="yes"/>
      <point x="98" y="588"/>
      <point x="106" y="576"/>
      <point x="106" y="551" type="curve" smooth="yes"/>
      <point x="106" y="110" type="line" smooth="yes"/>
      <point x="106" y="78"/>
      <point x="104" y="59"/>
      <point x="68" y="59" type="curve" smooth="yes"/>
      <point x="39" y="59" type="line"/>
      <point x="39" y="0" type="line"/>
    </contour>
    <contour>
      <point x="186" y="471" type="line"/>
      <point x="365" y="471" type="line" smooth="yes"/>
      <point x="458" y="471"/>
      <point x="502" y="438"/>
      <point x="502" y="335" type="curve" smooth="yes"/>
      <point x="502" y="236"/>
      <point x="455" y="192"/>
      <point x="365" y="192" type="curve" smooth="yes"/>
      <point x="186" y="192" type="line"/>
    </contour>
  </outline>
</glyph>
<glyph name="germandbls" format="1">
  <advance width="630"/>
  <unicode hex="00DF"/>
  <note>
	germandbls
  </note>
  <outline>
    <contour>
      <point x="529" y="-15"/>
      <point x="591" y="67"/>
      <point x="591" y="185" type="curve" smooth="yes"/>
      <point x="591" y="266"/>
      <point x="564" y="330"/>
      <point x="482" y="355" type="curve"/>
      <point x="547" y="381"/>
      <point x="576" y="454"/>
      <point x="576" y="521" type="curve" smooth="yes"/>
      <point x="576" y="631"/>
      <point x="506" y="712"/>
      <point x="346" y="712" type="curve" smooth="yes"/>
      <point x="183" y="712"/>
      <point x="106" y="623"/>
      <point x="106" y="500" type="curve" smooth="yes"/>
      <point x="106" y="96" type="line" smooth="yes"/>
      <point x="106" y="69"/>
      <point x="97" y="59"/>
      <point x="71" y="59" type="curve" smooth="yes"/>
      <point x="39" y="59" type="line"/>
      <point x="39" y="0" type="line"/>
      <point x="186" y="0" type="line"/>
      <point x="186" y="505" type="line" smooth="yes"/>
      <point x="186" y="607"/>
      <point x="244" y="652"/>
      <point x="346" y="652" type="curve" smooth="yes"/>
      <point x="451" y="652"/>
      <point x="499" y="609"/>
      <point x="499" y="521" type="curve" smooth="yes"/>
      <point x="499" y="443"/>
      <point x="464" y="382"/>
      <point x="370" y="382" type="curve" smooth="yes"/>
      <point x="317" y="382" type="line"/>
      <point x="317" y="323" type="line"/>
      <point x="378" y="323" type="line" smooth="yes"/>
      <point x="480" y="323"/>
      <point x="514" y="275"/>
      <point x="514" y="186" type="curve" smooth="yes"/>
      <point x="514" y="86"/>
      <point x="468" y="45"/>
      <point x="395" y="45" type="curve" smooth="yes"/>
      <point x="355" y="45"/>
      <point x="317" y="50"/>
      <point x="277" y="71" type="curve"/>
      <point x="249" y="20" type="line"/>
      <point x="294" y="-7"/>
      <point x="349" y="-15"/>
      <point x="398" y="-15" type="curve" smooth="yes"/>
    </contour>
  </outline>
</glyph>
<glyph name="ccedilla" format="1">
  <advance width="512"/>
  <unicode hex="00E7"/>
  <note>
	ccedilla
  </note>
  <outline>
    <contour>
      <point x="357" y="-228"/>
      <point x="401" y="-196"/>
      <point x="401" y="-136" type="curve" smooth="yes"/>
      <point x="401" y="-90"/>
      <point x="380" y="-59"/>
      <point x="318" y="-50" type="curve"/>
      <point x="323" y="-14" type="line"/>
      <point x="383" y="-10"/>
      <point x="427" y="2"/>
      <point x="473" y="32" type="curve"/>
      <point x="442" y="82" type="line"/>
      <point x="401" y="57"/>
      <point x="363" y="45"/>
      <point x="298" y="45" type="curve" smooth="yes"/>
      <point x="206" y="45"/>
      <point x="116" y="99"/>
      <point x="116" y="237" type="curve" smooth="yes"/>
      <point x="116" y="380"/>
      <point x="194" y="435"/>
      <point x="285" y="435" type="curve" smooth="yes"/>
      <point x="341" y="435"/>
      <point x="368" y="426"/>
      <point x="399" y="408" type="curve"/>
      <point x="399" y="353" type="line"/>
      <point x="472" y="353" type="line"/>
      <point x="472" y="440" type="line"/>
      <point x="423" y="476"/>
      <point x="373" y="495"/>
      <point x="285" y="495" type="curve" smooth="yes"/>
      <point x="133" y="495"/>
      <point x="39" y="404"/>
      <point x="39" y="237" type="curve" smooth="yes"/>
      <point x="39" y="87"/>
      <point x="132" y="1"/>
      <point x="254" y="-13" type="curve"/>
      <point x="243" y="-84" type="line"/>
      <point x="319" y="-84"/>
      <point x="335" y="-99"/>
      <point x="335" y="-136" type="curve" smooth="yes"/>
      <point x="335" y="-164"/>
      <point x="313" y="-177"/>
      <point x="269" y="-177" type="curve" smooth="yes"/>
      <point x="246" y="-177"/>
      <point x="225" y="-172"/>
      <point x="210" y="-167" type="curve"/>
      <point x="210" y="-217" type="line"/>
      <point x="230" y="-224"/>
      <point x="251" y="-228"/>
      <point x="275" y="-228" type="curve" smooth="yes"/>
    </contour>
  </outline>
</glyph>
<glyph name="igrave" format="1">
  <advance width="271"/>
  <unicode hex="00EC"/>
  <note>
	igrave
  </note>
  <outline>
    <contour>
      <point x="245" y="0" type="line"/>
      <point x="245" y="59" type="line"/>
      <point x="213" y="59" type="line" smooth="yes"/>
      <point x="187" y="59"/>
      <point x="178" y="69"/>
      <point x="178" y="95" type="curve" smooth="yes"/>
      <point x="178" y="480" type="line"/>
      <point x="31" y="480" type="line"/>
      <point x="31" y="421" type="line"/>
      <point x="63" y="421" type="line" smooth="yes"/>
      <point x="89" y="421"/>
      <point x="98" y="411"/>
      <point x="98" y="385" type="curve" smooth="yes"/>
      <point x="98" y="96" type="line" smooth="yes"/>
      <point x="98" y="69"/>
      <point x="89" y="59"/>
      <point x="63" y="59" type="curve" smooth="yes"/>
      <point x="31" y="59" type="line"/>
      <point x="31" y="0" type="line"/>
    </contour>
    <contour>
      <point x="174" y="527" type="line"/>
      <point x="91" y="706" type="line"/>
      <point x="-11" y="706" type="line"/>
      <point x="104" y="527" type="line"/>
    </contour>
  </outline>
</glyph>
<glyph name="iacute" format="1">
  <advance width="271"/>
  <unicode hex="00ED"/>
  <note>
	iacute
  </note>
  <outline>
    <contour>
      <point x="245" y="0" type="line"/>
      <point x="245" y="59" type="line"/>
      <point x="213" y="59" type="line" smooth="yes"/>
      <point x="187" y="59"/>
      <point x="178" y="69"/>
      <point x="178" y="95" type="curve" smooth="yes"/>
      <point x="178" y="480" type="line"/>
      <point x="31" y="480" type="line"/>
      <point x="31" y="421" type="line"/>
      <point x="63" y="421" type="line" smooth="yes"/>
      <point x="89" y="421"/>
      <point x="98" y="411"/>
      <point x="98" y="385" type="curve" smooth="yes"/>
      <point x="98" y="96" type="line" smooth="yes"/>
      <point x="98" y="69"/>
      <point x="89" y="59"/>
      <point x="63" y="59" type="curve" smooth="yes"/>
      <point x="31" y="59" type="line"/>
      <point x="31" y="0" type="line"/>
    </contour>
    <contour>
      <point x="162" y="527" type="line"/>
      <point x="277" y="706" type="line"/>
      <point x="175" y="706" type="line"/>
      <point x="92" y="527" type="line"/>
    </contour>
  </outline>
</glyph>
<glyph name="icircumflex" format="1">
  <advance width="271"/>
  <unicode hex="00EE"/>
  <note>
	icircumflex
  </note>
  <outline>
    <contour>
      <point x="245" y="0" type="line"/>
      <point x="245" y="59" type="line"/>
      <point x="213" y="59" type="line" smooth="yes"/>
      <point x="187" y="59"/>
      <point x="178" y="69"/>
      <point x="178" y="95" type="curve" smooth="yes"/>
      <point x="178" y="480" type="line"/>
      <point x="31" y="480" type="line"/>
      <point x="31" y="421" type="line"/>
      <point x="63" y="421" type="line" smooth="yes"/>
      <point x="89" y="421"/>
      <point x="98" y="411"/>
      <point x="98" y="385" type="curve" smooth="yes"/>
      <point x="98" y="96" type="line" smooth="yes"/>
      <point x="98" y="69"/>
      <point x="89" y="59"/>
      <point x="63" y="59" type="curve" smooth="yes"/>
      <point x="31" y="59" type="line"/>
      <point x="31" y="0" type="line"/>
    </contour>
    <contour>
      <point x="34" y="527" type="line"/>
      <point x="118" y="659" type="line"/>
      <point x="202" y="527" type="line"/>
      <point x="281" y="527" type="line"/>
      <point x="161" y="710" type="line"/>
      <point x="75" y="710" type="line"/>
      <point x="-45" y="527" type="line"/>
    </contour>
  </outline>
</glyph>
<glyph name="idieresis" format="1">
  <advance width="271"/>
  <unicode hex="00EF"/>
  <note>
	idieresis
  </note>
  <outline>
    <contour>
      <point x="245" y="0" type="line"/>
      <point x="245" y="59" type="line"/>
      <point x="213" y="59" type="line" smooth="yes"/>
      <point x="187" y="59"/>
      <point x="178" y="69"/>
      <point x="178" y="95" type="curve" smooth="yes"/>
      <point x="178" y="480" type="line"/>
      <point x="31" y="480" type="line"/>
      <point x="31" y="421" type="line"/>
      <point x="63" y="421" type="line" smooth="yes"/>
      <point x="89" y="421"/>
      <point x="98" y="411"/>
      <point x="98" y="385" type="curve" smooth="yes"/>
      <point x="98" y="96" type="line" smooth="yes"/>
      <point x="98" y="69"/>
      <point x="89" y="59"/>
      <point x="63" y="59" type="curve" smooth="yes"/>
      <point x="31" y="59" type="line"/>
      <point x="31" y="0" type="line"/>
    </contour>
    <contour>
      <point x="54" y="546" type="line"/>
      <point x="54" y="628" type="line"/>
      <point x="-26" y="628" type="line"/>
      <point x="-26" y="546" type="line"/>
    </contour>
    <contour>
      <point x="255" y="546" type="line"/>
      <point x="255" y="628" type="line"/>
      <point x="175" y="628" type="line"/>
      <point x="175" y="546" type="line"/>
    </contour>
  </outline>
</glyph>
<glyph name="ntilde" format="1">
  <advance width="590"/>
  <unicode hex="00F1"/>
  <note>
	ntilde
  </note>
  <outline>
    <contour>
      <point x="241" y="0" type="line"/>
      <point x="241" y="59" type="line"/>
      <point x="208" y="59" type="line" smooth="yes"/>
      <point x="183" y="59"/>
      <point x="174" y="69"/>
      <point x="174" y="96" type="curve" smooth="yes"/>
      <point x="174" y="309" type="line" smooth="yes"/>
      <point x="174" y="390"/>
      <point x="238" y="435"/>
      <point x="313" y="435" type="curve" smooth="yes"/>
      <point x="385" y="435"/>
      <point x="414" y="404"/>
      <point x="414" y="329" type="curve" smooth="yes"/>
      <point x="414" y="0" type="line"/>
      <point x="562" y="0" type="line"/>
      <point x="562" y="59" type="line"/>
      <point x="530" y="59" type="line" smooth="yes"/>
      <point x="504" y="59"/>
      <point x="495" y="69"/>
      <point x="495" y="96" type="curve" smooth="yes"/>
      <point x="495" y="330" type="line" smooth="yes"/>
      <point x="495" y="434"/>
      <point x="445" y="495"/>
      <point x="338" y="495" type="curve" smooth="yes"/>
      <point x="255" y="495"/>
      <point x="202" y="471"/>
      <point x="156" y="412" type="curve"/>
      <point x="150" y="480" type="line"/>
      <point x="27" y="480" type="line"/>
      <point x="27" y="421" type="line"/>
      <point x="59" y="421" type="line" smooth="yes"/>
      <point x="85" y="421"/>
      <point x="94" y="411"/>
      <point x="94" y="384" type="curve" smooth="yes"/>
      <point x="94" y="96" type="line" smooth="yes"/>
      <point x="94" y="69"/>
      <point x="85" y="59"/>
      <point x="59" y="59" type="curve" smooth="yes"/>
      <point x="27" y="59" type="line"/>
      <point x="27" y="0" type="line"/>
    </contour>
    <contour>
      <point x="167" y="527" type="line"/>
      <point x="167" y="572"/>
      <point x="183" y="583"/>
      <point x="212" y="583" type="curve" smooth="yes"/>
      <point x="268" y="583"/>
      <point x="307" y="527"/>
      <point x="375" y="527" type="curve" smooth="yes"/>
      <point x="441" y="527"/>
      <point x="475" y="563"/>
      <point x="475" y="648" type="curve"/>
      <point x="412" y="648" type="line"/>
      <point x="412" y="603"/>
      <point x="397" y="591"/>
      <point x="368" y="591" type="curve" smooth="yes"/>
      <point x="317" y="591"/>
      <point x="276" y="648"/>
      <point x="205" y="648" type="curve" smooth="yes"/>
      <point x="139" y="648"/>
      <point x="104" y="611"/>
      <point x="104" y="527" type="curve"/>
    </contour>
  </outline>
</glyph>
<glyph name="ograve" format="1">
  <advance width="558"/>
  <unicode hex="00F2"/>
  <note>
	ograve
  </note>
  <outline>
    <contour>
      <point x="446" y="-15"/>
      <point x="519" y="86"/>
      <point x="519" y="239" type="curve" smooth="yes"/>
      <point x="519" y="392"/>
      <point x="447" y="495"/>
      <point x="279" y="495" type="curve" smooth="yes"/>
      <point x="111" y="495"/>
      <point x="39" y="392"/>
      <point x="39" y="239" type="curve" smooth="yes"/>
      <point x="39" y="86"/>
      <point x="112" y="-15"/>
      <point x="279" y="-15" type="curve" smooth="yes"/>
    </contour>
    <contour>
      <point x="171" y="45"/>
      <point x="116" y="108"/>
      <point x="116" y="239" type="curve" smooth="yes"/>
      <point x="116" y="370"/>
      <point x="171" y="435"/>
      <point x="279" y="435" type="curve" smooth="yes"/>
      <point x="386" y="435"/>
      <point x="442" y="370"/>
      <point x="442" y="239" type="curve" smooth="yes"/>
      <point x="442" y="108"/>
      <point x="386" y="45"/>
      <point x="279" y="45" type="curve" smooth="yes"/>
    </contour>
    <contour>
      <point x="327" y="527" type="line"/>
      <point x="244" y="706" type="line"/>
      <point x="142" y="706" type="line"/>
      <point x="257" y="527" type="line"/>
    </contour>
  </outline>
</glyph>
<glyph name="oacute" format="1">
  <advance width="558"/>
  <unicode hex="00F3"/>
  <note>
	oacute
  </note>
  <outline>
    <contour>
      <point x="446" y="-15"/>
      <point x="519" y="86"/>
      <point x="519" y="239" type="curve" smooth="yes"/>
      <point x="519" y="392"/>
      <point x="447" y="495"/>
      <point x="279" y="495" type="curve" smooth="yes"/>
      <point x="111" y="495"/>
      <point x="39" y="392"/>
      <point x="39" y="239" type="curve" smooth="yes"/>
      <point x="39" y="86"/>
      <point x="112" y="-15"/>
      <point x="279" y="-15" type="curve" smooth="yes"/>
    </contour>
    <contour>
      <point x="171" y="45"/>
      <point x="116" y="108"/>
      <point x="116" y="239" type="curve" smooth="yes"/>
      <point x="116" y="370"/>
      <point x="171" y="435"/>
      <point x="279" y="435" type="curve" smooth="yes"/>
      <point x="386" y="435"/>
      <point x="442" y="370"/>
      <point x="442" y="239" type="curve" smooth="yes"/>
      <point x="442" y="108"/>
      <point x="386" y="45"/>
      <point x="279" y="45" type="curve" smooth="yes"/>
    </contour>
    <contour>
      <point x="307" y="527" type="line"/>
      <point x="422" y="706" type="line"/>
      <point x="320" y="706" type="line"/>
      <point x="237" y="527" type="line"/>
    </contour>
  </outline>
</glyph>
<glyph name="otilde" format="1">
  <advance width="558"/>
  <unicode hex="00F5"/>
  <note>
	otilde
  </note>
  <outline>
    <contour>
      <point x="446" y="-15"/>
      <point x="519" y="86"/>
      <point x="519" y="239" type="curve" smooth="yes"/>
      <point x="519" y="392"/>
      <point x="447" y="495"/>
      <point x="279" y="495" type="curve" smooth="yes"/>
      <point x="111" y="495"/>
      <point x="39" y="392"/>
      <point x="39" y="239" type="curve" smooth="yes"/>
      <point x="39" y="86"/>
      <point x="112" y="-15"/>
      <point x="279" y="-15" type="curve" smooth="yes"/>
    </contour>
    <contour>
      <point x="171" y="45"/>
      <point x="116" y="108"/>
      <point x="116" y="239" type="curve" smooth="yes"/>
      <point x="116" y="370"/>
      <point x="171" y="435"/>
      <point x="279" y="435" type="curve" smooth="yes"/>
      <point x="386" y="435"/>
      <point x="442" y="370"/>
      <point x="442" y="239" type="curve" smooth="yes"/>
      <point x="442" y="108"/>
      <point x="386" y="45"/>
      <point x="279" y="45" type="curve" smooth="yes"/>
    </contour>
    <contour>
      <point x="157" y="527" type="line"/>
      <point x="157" y="572"/>
      <point x="173" y="583"/>
      <point x="202" y="583" type="curve" smooth="yes"/>
      <point x="258" y="583"/>
      <point x="297" y="527"/>
      <point x="365" y="527" type="curve" smooth="yes"/>
      <point x="431" y="527"/>
      <point x="465" y="563"/>
      <point x="465" y="648" type="curve"/>
      <point x="402" y="648" type="line"/>
      <point x="402" y="603"/>
      <point x="387" y="591"/>
      <point x="358" y="591" type="curve" smooth="yes"/>
      <point x="307" y="591"/>
      <point x="266" y="648"/>
      <point x="195" y="648" type="curve" smooth="yes"/>
      <point x="129" y="648"/>
      <point x="94" y="611"/>
      <point x="94" y="527" type="curve"/>
    </contour>
  </outline>
</glyph>
<glyph name="odieresis" format="1">
  <advance width="558"/>
  <unicode hex="00F6"/>
  <note>
	odieresis
  </note>
  <outline>
    <contour>
      <point x="446" y="-15"/>
      <point x="519" y="86"/>
      <point x="519" y="239" type="curve" smooth="yes"/>
      <point x="519" y="392"/>
      <point x="447" y="495"/>
      <point x="279" y="495" type="curve" smooth="yes"/>
      <point x="111" y="495"/>
      <point x="39" y="392"/>
      <point x="39" y="239" type="curve" smooth="yes"/>
      <point x="39" y="86"/>
      <point x="112" y="-15"/>
      <point x="279" y="-15" type="curve" smooth="yes"/>
    </contour>
    <contour>
      <point x="171" y="45"/>
      <point x="116" y="108"/>
      <point x="116" y="239" type="curve" smooth="yes"/>
      <point x="116" y="370"/>
      <point x="171" y="435"/>
      <point x="279" y="435" type="curve" smooth="yes"/>
      <point x="386" y="435"/>
      <point x="442" y="370"/>
      <point x="442" y="239" type="curve" smooth="yes"/>
      <point x="442" y="108"/>
      <point x="386" y="45"/>
      <point x="279" y="45" type="curve" smooth="yes"/>
    </contour>
    <contour>
      <point x="219" y="546" type="line"/>
      <point x="219" y="628" type="line"/>
      <point x="139" y="628" type="line"/>
      <point x="139" y="546" type="line"/>
    </contour>
    <contour>
      <point x="420" y="546" type="line"/>
      <point x="420" y="628" type="line"/>
      <point x="340" y="628" type="line"/>
      <point x="340" y="546" type="line"/>
    </contour>
  </outline>
</glyph>
<glyph name="divide" format="1">
  <advance width="411"/>
  <unicode hex="00F7"/>
  <note>
	divide
  </note>
  <outline>
    <contour>
      <point x="362" y="276" type="line"/>
      <point x="362" y="335" type="line"/>
      <point x="49" y="335" type="line"/>
      <point x="49" y="276" type="line"/>
    </contour>
    <contour>
      <point x="239" y="155" type="line"/>
      <point x="239" y="223" type="line"/>
      <point x="170" y="223" type="line"/>
      <point x="170" y="155" type="line"/>
    </contour>
    <contour>
      <point x="239" y="388" type="line"/>
      <point x="239" y="455" type="line"/>
      <point x="170" y="455" type="line"/>
      <point x="170" y="388" type="line"/>
    </contour>
  </outline>
</glyph>
<glyph name="udieresis" format="1">
  <advance width="583"/>
  <unicode hex="00FC"/>
  <note>
	udieresis
  </note>
  <outline>
    <contour>
      <point x="341" y="-15"/>
      <point x="392" y="10"/>
      <point x="435" y="66" type="curve"/>
      <point x="441" y="0" type="line"/>
      <point x="564" y="0" type="line"/>
      <point x="564" y="59" type="line"/>
      <point x="533" y="59" type="line" smooth="yes"/>
      <point x="507" y="59"/>
      <point x="497" y="69"/>
      <point x="497" y="95" type="curve" smooth="yes"/>
      <point x="497" y="480" type="line"/>
      <point x="350" y="480" type="line"/>
      <point x="350" y="421" type="line"/>
      <point x="383" y="421" type="line" smooth="yes"/>
      <point x="408" y="421"/>
      <point x="417" y="411"/>
      <point x="417" y="385" type="curve" smooth="yes"/>
      <point x="417" y="176" type="line" smooth="yes"/>
      <point x="417" y="88"/>
      <point x="359" y="45"/>
      <point x="284" y="45" type="curve" smooth="yes"/>
      <point x="210" y="45"/>
      <point x="177" y="77"/>
      <point x="177" y="151" type="curve" smooth="yes"/>
      <point x="177" y="480" type="line"/>
      <point x="29" y="480" type="line"/>
      <point x="29" y="421" type="line"/>
      <point x="61" y="421" type="line" smooth="yes"/>
      <point x="86" y="421"/>
      <point x="96" y="411"/>
      <point x="96" y="385" type="curve" smooth="yes"/>
      <point x="96" y="150" type="line" smooth="yes"/>
      <point x="96" y="45"/>
      <point x="152" y="-15"/>
      <point x="259" y="-15" type="curve" smooth="yes"/>
    </contour>
    <contour>
      <point x="211" y="546" type="line"/>
      <point x="211" y="628" type="line"/>
      <point x="131" y="628" type="line"/>
      <point x="131" y="546" type="line"/>
    </contour>
    <contour>
      <point x="412" y="546" type="line"/>
      <point x="412" y="628" type="line"/>
      <point x="332" y="628" type="line"/>
      <point x="332" y="546" type="line"/>
    </contour>
  </outline>
</glyph>
<glyph name="thorn" format="1">
  <advance width="595"/>
  <unicode hex="00FE"/>
  <note>
	thorn
  </note>
  <outline>
    <contour>
      <point x="234" y="-208" type="line"/>
      <point x="234" y="-149" type="line"/>
      <point x="215" y="-149" type="line" smooth="yes"/>
      <point x="181" y="-149"/>
      <point x="175" y="-134"/>
      <point x="175" y="-102" type="curve" smooth="yes"/>
      <point x="175" y="66" type="line"/>
      <point x="220" y="6"/>
      <point x="273" y="-15"/>
      <point x="345" y="-15" type="curve" smooth="yes"/>
      <point x="478" y="-15"/>
      <point x="556" y="81"/>
      <point x="556" y="244" type="curve" smooth="yes"/>
      <point x="556" y="406"/>
      <point x="476" y="495"/>
      <point x="345" y="495" type="curve" smooth="yes"/>
      <point x="273" y="495"/>
      <point x="217" y="471"/>
      <point x="175" y="416" type="curve"/>
      <point x="175" y="662" type="line"/>
      <point x="39" y="662" type="line"/>
      <point x="39" y="603" type="line"/>
      <point x="61" y="603" type="line" smooth="yes"/>
      <point x="85" y="603"/>
      <point x="95" y="592"/>
      <point x="95" y="564" type="curve" smooth="yes"/>
      <point x="95" y="-102" type="line" smooth="yes"/>
      <point x="95" y="-134"/>
      <point x="89" y="-149"/>
      <point x="56" y="-149" type="curve" smooth="yes"/>
      <point x="39" y="-149" type="line"/>
      <point x="39" y="-208" type="line"/>
    </contour>
    <contour>
      <point x="243" y="45"/>
      <point x="175" y="103"/>
      <point x="175" y="209" type="curve" smooth="yes"/>
      <point x="175" y="265" type="line" smooth="yes"/>
      <point x="175" y="366"/>
      <point x="238" y="435"/>
      <point x="331" y="435" type="curve" smooth="yes"/>
      <point x="432" y="435"/>
      <point x="479" y="374"/>
      <point x="479" y="244" type="curve" smooth="yes"/>
      <point x="479" y="107"/>
      <point x="430" y="45"/>
      <point x="326" y="45" type="curve" smooth="yes"/>
    </contour>
  </outline>
</glyph>
<glyph name="Aogonek" format="1">
  <advance width="721"/>
  <unicode hex="0104"/>
  <note>
	Aogonek
  </note>
  <outline>
    <contour>
      <point x="246" y="0" type="line"/>
      <point x="246" y="59" type="line"/>
      <point x="192" y="59" type="line"/>
      <point x="244" y="205" type="line"/>
      <point x="478" y="205" type="line"/>
      <point x="529" y="59" type="line"/>
      <point x="475" y="59" type="line"/>
      <point x="475" y="0" type="line"/>
      <point x="682" y="0" type="line"/>
      <point x="682" y="59" type="line"/>
      <point x="650" y="59" type="line" smooth="yes"/>
      <point x="622" y="59"/>
      <point x="605" y="68"/>
      <point x="595" y="95" type="curve" smooth="yes"/>
      <point x="399" y="647" type="line"/>
      <point x="324" y="647" type="line"/>
      <point x="126" y="95" type="line" smooth="yes"/>
      <point x="116" y="68"/>
      <point x="99" y="59"/>
      <point x="72" y="59" type="curve" smooth="yes"/>
      <point x="39" y="59" type="line"/>
      <point x="39" y="0" type="line"/>
    </contour>
    <contour>
      <point x="614" y="-205"/>
      <point x="634" y="-200"/>
      <point x="648" y="-191" type="curve"/>
      <point x="648" y="-142" type="line"/>
      <point x="633" y="-147"/>
      <point x="617" y="-149"/>
      <point x="603" y="-149" type="curve" smooth="yes"/>
      <point x="576" y="-149"/>
      <point x="563" y="-134"/>
      <point x="563" y="-99" type="curve" smooth="yes"/>
      <point x="563" y="-60"/>
      <point x="580" y="-29"/>
      <point x="613" y="0" type="curve"/>
      <point x="547" y="0" type="line"/>
      <point x="516" y="-29"/>
      <point x="497" y="-66"/>
      <point x="497" y="-109" type="curve" smooth="yes"/>
      <point x="497" y="-175"/>
      <point x="536" y="-205"/>
      <point x="591" y="-205" type="curve" smooth="yes"/>
    </contour>
    <contour>
      <point x="361" y="540" type="line"/>
      <point x="460" y="259" type="line"/>
      <point x="262" y="259" type="line"/>
    </contour>
  </outline>
</glyph>
<glyph name="aogonek" format="1">
  <advance width="520"/>
  <unicode hex="0105"/>
  <note>
	aogonek
  </note>
  <outline>
    <contour>
      <point x="278" y="-15"/>
      <point x="334" y="9"/>
      <point x="374" y="62" type="curve"/>
      <point x="386" y="0" type="line"/>
      <point x="491" y="0" type="line"/>
      <point x="491" y="59" type="line"/>
      <point x="467" y="59" type="line" smooth="yes"/>
      <point x="445" y="59"/>
      <point x="435" y="70"/>
      <point x="435" y="98" type="curve" smooth="yes"/>
      <point x="435" y="327" type="line" smooth="yes"/>
      <point x="435" y="426"/>
      <point x="389" y="495"/>
      <point x="253" y="495" type="curve" smooth="yes"/>
      <point x="182" y="495"/>
      <point x="123" y="478"/>
      <point x="70" y="445" type="curve"/>
      <point x="70" y="375" type="line"/>
      <point x="143" y="375" type="line"/>
      <point x="143" y="413" type="line"/>
      <point x="174" y="429"/>
      <point x="202" y="435"/>
      <point x="253" y="435" type="curve" smooth="yes"/>
      <point x="331" y="435"/>
      <point x="355" y="404"/>
      <point x="355" y="332" type="curve" smooth="yes"/>
      <point x="355" y="270" type="line"/>
      <point x="198" y="259" type="line" smooth="yes"/>
      <point x="97" y="252"/>
      <point x="29" y="216"/>
      <point x="29" y="118" type="curve" smooth="yes"/>
      <point x="29" y="32"/>
      <point x="85" y="-15"/>
      <point x="187" y="-15" type="curve" smooth="yes"/>
    </contour>
    <contour>
      <point x="453" y="-205"/>
      <point x="473" y="-200"/>
      <point x="487" y="-191" type="curve"/>
      <point x="487" y="-142" type="line"/>
      <point x="472" y="-147"/>
      <point x="456" y="-149"/>
      <point x="442" y="-149" type="curve" smooth="yes"/>
      <point x="415" y="-149"/>
      <point x="402" y="-134"/>
      <point x="402" y="-99" type="curve" smooth="yes"/>
      <point x="402" y="-60"/>
      <point x="419" y="-29"/>
      <point x="452" y="0" type="curve"/>
      <point x="386" y="0" type="line"/>
      <point x="355" y="-29"/>
      <point x="336" y="-66"/>
      <point x="336" y="-109" type="curve" smooth="yes"/>
      <point x="336" y="-175"/>
      <point x="375" y="-205"/>
      <point x="430" y="-205" type="curve" smooth="yes"/>
    </contour>
    <contour>
      <point x="131" y="45"/>
      <point x="106" y="71"/>
      <point x="106" y="119" type="curve" smooth="yes"/>
      <point x="106" y="177"/>
      <point x="127" y="200"/>
      <point x="201" y="205" type="curve" smooth="yes"/>
      <point x="355" y="216" type="line"/>
      <point x="355" y="163" type="line" smooth="yes"/>
      <point x="355" y="80"/>
      <point x="290" y="45"/>
      <point x="205" y="45" type="curve" smooth="yes"/>
    </contour>
  </outline>
</glyph>
<glyph name="Cacute" format="1">
  <advance width="597"/>
  <unicode hex="0106"/>
  <note>
	Cacute
  </note>
  <outline>
    <contour>
      <point x="437" y="-15"/>
      <point x="496" y="-4"/>
      <point x="552" y="32" type="curve"/>
      <point x="520" y="82" type="line"/>
      <point x="475" y="55"/>
      <point x="426" y="45"/>
      <point x="363" y="45" type="curve" smooth="yes"/>
      <point x="215" y="45"/>
      <point x="116" y="148"/>
      <point x="116" y="320" type="curve" smooth="yes"/>
      <point x="116" y="496"/>
      <point x="204" y="602"/>
      <point x="352" y="602" type="curve" smooth="yes"/>
      <point x="404" y="602"/>
      <point x="446" y="594"/>
      <point x="479" y="578" type="curve"/>
      <point x="479" y="518" type="line"/>
      <point x="558" y="518" type="line"/>
      <point x="558" y="608" type="line"/>
      <point x="509" y="644"/>
      <point x="442" y="662"/>
      <point x="352" y="662" type="curve" smooth="yes"/>
      <point x="139" y="662"/>
      <point x="39" y="514"/>
      <point x="39" y="320" type="curve" smooth="yes"/>
      <point x="39" y="126"/>
      <point x="152" y="-15"/>
      <point x="361" y="-15" type="curve" smooth="yes"/>
    </contour>
    <contour>
      <point x="376" y="701" type="line"/>
      <point x="491" y="880" type="line"/>
      <point x="389" y="880" type="line"/>
      <point x="306" y="701" type="line"/>
    </contour>
  </outline>
</glyph>
<glyph name="cacute" format="1">
  <advance width="512"/>
  <unicode hex="0107"/>
  <note>
	cacute
  </note>
  <outline>
    <contour>
      <point x="368" y="-15"/>
      <point x="419" y="-3"/>
      <point x="473" y="32" type="curve"/>
      <point x="442" y="82" type="line"/>
      <point x="401" y="57"/>
      <point x="363" y="45"/>
      <point x="298" y="45" type="curve" smooth="yes"/>
      <point x="206" y="45"/>
      <point x="116" y="99"/>
      <point x="116" y="237" type="curve" smooth="yes"/>
      <point x="116" y="380"/>
      <point x="194" y="435"/>
      <point x="285" y="435" type="curve" smooth="yes"/>
      <point x="341" y="435"/>
      <point x="368" y="426"/>
      <point x="399" y="408" type="curve"/>
      <point x="399" y="353" type="line"/>
      <point x="472" y="353" type="line"/>
      <point x="472" y="440" type="line"/>
      <point x="423" y="476"/>
      <point x="373" y="495"/>
      <point x="285" y="495" type="curve" smooth="yes"/>
      <point x="133" y="495"/>
      <point x="39" y="404"/>
      <point x="39" y="237" type="curve" smooth="yes"/>
      <point x="39" y="73"/>
      <point x="151" y="-15"/>
      <point x="290" y="-15" type="curve" smooth="yes"/>
    </contour>
    <contour>
      <point x="304" y="527" type="line"/>
      <point x="419" y="706" type="line"/>
      <point x="317" y="706" type="line"/>
      <point x="234" y="527" type="line"/>
    </contour>
  </outline>
</glyph>
<glyph name="Ccircumflex" format="1">
  <advance width="597"/>
  <unicode hex="0108"/>
  <note>
	Ccircumflex
  </note>
  <outline>
    <contour>
      <point x="437" y="-15"/>
      <point x="496" y="-4"/>
      <point x="552" y="32" type="curve"/>
      <point x="520" y="82" type="line"/>
      <point x="475" y="55"/>
      <point x="426" y="45"/>
      <point x="363" y="45" type="curve" smooth="yes"/>
      <point x="215" y="45"/>
      <point x="116" y="148"/>
      <point x="116" y="320" type="curve" smooth="yes"/>
      <point x="116" y="496"/>
      <point x="204" y="602"/>
      <point x="352" y="602" type="curve" smooth="yes"/>
      <point x="404" y="602"/>
      <point x="446" y="594"/>
      <point x="479" y="578" type="curve"/>
      <point x="479" y="518" type="line"/>
      <point x="558" y="518" type="line"/>
      <point x="558" y="608" type="line"/>
      <point x="509" y="644"/>
      <point x="442" y="662"/>
      <point x="352" y="662" type="curve" smooth="yes"/>
      <point x="139" y="662"/>
      <point x="39" y="514"/>
      <point x="39" y="320" type="curve" smooth="yes"/>
      <point x="39" y="126"/>
      <point x="152" y="-15"/>
      <point x="361" y="-15" type="curve" smooth="yes"/>
    </contour>
    <contour>
      <point x="273" y="702" type="line"/>
      <point x="357" y="834" type="line"/>
      <point x="441" y="702" type="line"/>
      <point x="520" y="702" type="line"/>
      <point x="400" y="885" type="line"/>
      <point x="314" y="885" type="line"/>
      <point x="194" y="702" type="line"/>
    </contour>
  </outline>
</glyph>
<glyph name="Ccaron" format="1">
  <advance width="597"/>
  <unicode hex="010C"/>
  <note>
	Ccaron
  </note>
  <outline>
    <contour>
      <point x="437" y="-15"/>
      <point x="496" y="-4"/>
      <point x="552" y="32" type="curve"/>
      <point x="520" y="82" type="line"/>
      <point x="475" y="55"/>
      <point x="426" y="45"/>
      <point x="363" y="45" type="curve" smooth="yes"/>
      <point x="215" y="45"/>
      <point x="116" y="148"/>
      <point x="116" y="320" type="curve" smooth="yes"/>
      <point x="116" y="496"/>
      <point x="204" y="602"/>
      <point x="352" y="602" type="curve" smooth="yes"/>
      <point x="404" y="602"/>
      <point x="446" y="594"/>
      <point x="479" y="578" type="curve"/>
      <point x="479" y="518" type="line"/>
      <point x="558" y="518" type="line"/>
      <point x="558" y="608" type="line"/>
      <point x="509" y="644"/>
      <point x="442" y="662"/>
      <point x="352" y="662" type="curve" smooth="yes"/>
      <point x="139" y="662"/>
      <point x="39" y="514"/>
      <point x="39" y="320" type="curve" smooth="yes"/>
      <point x="39" y="126"/>
      <point x="152" y="-15"/>
      <point x="361" y="-15" type="curve" smooth="yes"/>
    </contour>
    <contour>
      <point x="397" y="702" type="line"/>
      <point x="517" y="885" type="line"/>
      <point x="438" y="885" type="line"/>
      <point x="354" y="752" type="line"/>
      <point x="270" y="885" type="line"/>
      <point x="191" y="885" type="line"/>
      <point x="311" y="702" type="line"/>
    </contour>
  </outline>
</glyph>
<glyph name="Dcaron" format="1">
  <advance width="624"/>
  <unicode hex="010E"/>
  <note>
	Dcaron
  </note>
  <outline>
    <contour>
      <point x="315" y="0" type="line" smooth="yes"/>
      <point x="498" y="0"/>
      <point x="585" y="130"/>
      <point x="585" y="321" type="curve" smooth="yes"/>
      <point x="585" y="518"/>
      <point x="504" y="647"/>
      <point x="315" y="647" type="curve" smooth="yes"/>
      <point x="39" y="647" type="line"/>
      <point x="39" y="588" type="line"/>
      <point x="63" y="588" type="line" smooth="yes"/>
      <point x="89" y="588"/>
      <point x="98" y="578"/>
      <point x="98" y="552" type="curve" smooth="yes"/>
      <point x="98" y="96" type="line" smooth="yes"/>
      <point x="98" y="69"/>
      <point x="89" y="59"/>
      <point x="63" y="59" type="curve" smooth="yes"/>
      <point x="39" y="59" type="line"/>
      <point x="39" y="0" type="line"/>
    </contour>
    <contour>
      <point x="178" y="588" type="line"/>
      <point x="305" y="588" type="line" smooth="yes"/>
      <point x="451" y="588"/>
      <point x="508" y="496"/>
      <point x="508" y="321" type="curve" smooth="yes"/>
      <point x="508" y="150"/>
      <point x="450" y="59"/>
      <point x="305" y="59" type="curve" smooth="yes"/>
      <point x="178" y="59" type="line"/>
    </contour>
    <contour>
      <point x="315" y="702" type="line"/>
      <point x="435" y="885" type="line"/>
      <point x="356" y="885" type="line"/>
      <point x="272" y="752" type="line"/>
      <point x="188" y="885" type="line"/>
      <point x="109" y="885" type="line"/>
      <point x="229" y="702" type="line"/>
    </contour>
  </outline>
</glyph>
<glyph name="dcaron" format="1">
  <advance width="716"/>
  <unicode hex="010F"/>
  <note>
	dcaron
  </note>
  <outline>
    <contour>
      <point x="327" y="-15"/>
      <point x="385" y="11"/>
      <point x="425" y="73" type="curve"/>
      <point x="435" y="0" type="line"/>
      <point x="554" y="0" type="line"/>
      <point x="554" y="59" type="line"/>
      <point x="532" y="59" type="line" smooth="yes"/>
      <point x="508" y="59"/>
      <point x="500" y="69"/>
      <point x="500" y="98" type="curve" smooth="yes"/>
      <point x="500" y="662" type="line"/>
      <point x="362" y="662" type="line"/>
      <point x="362" y="603" type="line"/>
      <point x="381" y="603" type="line" smooth="yes"/>
      <point x="414" y="603"/>
      <point x="420" y="589"/>
      <point x="420" y="557" type="curve" smooth="yes"/>
      <point x="420" y="417" type="line"/>
      <point x="385" y="474"/>
      <point x="334" y="495"/>
      <point x="251" y="495" type="curve" smooth="yes"/>
      <point x="116" y="495"/>
      <point x="39" y="398"/>
      <point x="39" y="234" type="curve" smooth="yes"/>
      <point x="39" y="73"/>
      <point x="118" y="-15"/>
      <point x="248" y="-15" type="curve" smooth="yes"/>
    </contour>
    <contour>
      <point x="163" y="45"/>
      <point x="116" y="104"/>
      <point x="116" y="234" type="curve" smooth="yes"/>
      <point x="116" y="371"/>
      <point x="165" y="435"/>
      <point x="269" y="435" type="curve" smooth="yes"/>
      <point x="360" y="435"/>
      <point x="420" y="375"/>
      <point x="420" y="269" type="curve" smooth="yes"/>
      <point x="420" y="216" type="line" smooth="yes"/>
      <point x="420" y="115"/>
      <point x="358" y="45"/>
      <point x="264" y="45" type="curve" smooth="yes"/>
    </contour>
    <contour>
      <point x="614" y="532" type="line"/>
      <point x="697" y="721" type="line"/>
      <point x="596" y="721" type="line"/>
      <point x="545" y="532" type="line"/>
    </contour>
  </outline>
</glyph>
<glyph name="Emacron" format="1">
  <advance width="544"/>
  <unicode hex="0112"/>
  <note>
	Emacron
  </note>
  <outline>
    <contour>
      <point x="505" y="0" type="line"/>
      <point x="505" y="117" type="line"/>
      <point x="433" y="117" type="line"/>
      <point x="433" y="94" type="line" smooth="yes"/>
      <point x="433" y="69"/>
      <point x="423" y="59"/>
      <point x="396" y="59" type="curve" smooth="yes"/>
      <point x="186" y="59" type="line"/>
      <point x="186" y="295" type="line"/>
      <point x="378" y="295" type="line"/>
      <point x="378" y="354" type="line"/>
      <point x="186" y="354" type="line"/>
      <point x="186" y="588" type="line"/>
      <point x="396" y="588" type="line" smooth="yes"/>
      <point x="423" y="588"/>
      <point x="433" y="578"/>
      <point x="433" y="553" type="curve" smooth="yes"/>
      <point x="433" y="531" type="line"/>
      <point x="505" y="531" type="line"/>
      <point x="505" y="647" type="line"/>
      <point x="39" y="647" type="line"/>
      <point x="39" y="588" type="line"/>
      <point x="71" y="588" type="line" smooth="yes"/>
      <point x="97" y="588"/>
      <point x="106" y="578"/>
      <point x="106" y="552" type="curve" smooth="yes"/>
      <point x="106" y="96" type="line" smooth="yes"/>
      <point x="106" y="69"/>
      <point x="97" y="59"/>
      <point x="71" y="59" type="curve" smooth="yes"/>
      <point x="39" y="59" type="line"/>
      <point x="39" y="0" type="line"/>
    </contour>
    <contour>
      <point x="417" y="722" type="line"/>
      <point x="417" y="779" type="line"/>
      <point x="137" y="779" type="line"/>
      <point x="137" y="722" type="line"/>
    </contour>
  </outline>
</glyph>
<glyph name="ebreve" format="1">
  <advance width="536"/>
  <unicode hex="0115"/>
  <note>
	ebreve
  </note>
  <outline>
    <contour>
      <point x="367" y="-15"/>
      <point x="425" y="3"/>
      <point x="480" y="40" type="curve"/>
      <point x="480" y="103" type="line"/>
      <point x="407" y="103" type="line"/>
      <point x="407" y="72" type="line"/>
      <point x="377" y="53"/>
      <point x="342" y="45"/>
      <point x="282" y="45" type="curve" smooth="yes"/>
      <point x="193" y="45"/>
      <point x="119" y="89"/>
      <point x="119" y="215" type="curve"/>
      <point x="497" y="215" type="line"/>
      <point x="497" y="260" type="line" smooth="yes"/>
      <point x="497" y="401"/>
      <point x="427" y="495"/>
      <point x="277" y="495" type="curve" smooth="yes"/>
      <point x="128" y="495"/>
      <point x="39" y="410"/>
      <point x="39" y="233" type="curve" smooth="yes"/>
      <point x="39" y="65"/>
      <point x="144" y="-15"/>
      <point x="281" y="-15" type="curve" smooth="yes"/>
    </contour>
    <contour>
      <point x="119" y="370"/>
      <point x="171" y="435"/>
      <point x="276" y="435" type="curve" smooth="yes"/>
      <point x="377" y="435"/>
      <point x="422" y="380"/>
      <point x="422" y="270" type="curve"/>
      <point x="119" y="270" type="line"/>
    </contour>
    <contour>
      <point x="372" y="527"/>
      <point x="433" y="580"/>
      <point x="433" y="664" type="curve"/>
      <point x="368" y="664" type="line"/>
      <point x="368" y="611"/>
      <point x="336" y="583"/>
      <point x="284" y="583" type="curve" smooth="yes"/>
      <point x="233" y="583"/>
      <point x="199" y="611"/>
      <point x="199" y="664" type="curve"/>
      <point x="134" y="664" type="line"/>
      <point x="134" y="580"/>
      <point x="195" y="527"/>
      <point x="284" y="527" type="curve" smooth="yes"/>
    </contour>
  </outline>
</glyph>
<glyph name="Eogonek" format="1">
  <advance width="544"/>
  <unicode hex="0118"/>
  <note>
	Eogonek
  </note>
  <outline>
    <contour>
      <point x="505" y="0" type="line"/>
      <point x="505" y="117" type="line"/>
      <point x="433" y="117" type="line"/>
      <point x="433" y="94" type="line" smooth="yes"/>
      <point x="433" y="69"/>
      <point x="423" y="59"/>
      <point x="396" y="59" type="curve" smooth="yes"/>
      <point x="186" y="59" type="line"/>
      <point x="186" y="295" type="line"/>
      <point x="378" y="295" type="line"/>
      <point x="378" y="354" type="line"/>
      <point x="186" y="354" type="line"/>
      <point x="186" y="588" type="line"/>
      <point x="396" y="588" type="line" smooth="yes"/>
      <point x="423" y="588"/>
      <point x="433" y="578"/>
      <point x="433" y="553" type="curve" smooth="yes"/>
      <point x="433" y="531" type="line"/>
      <point x="505" y="531" type="line"/>
      <point x="505" y="647" type="line"/>
      <point x="39" y="647" type="line"/>
      <point x="39" y="588" type="line"/>
      <point x="71" y="588" type="line" smooth="yes"/>
      <point x="97" y="588"/>
      <point x="106" y="578"/>
      <point x="106" y="552" type="curve" smooth="yes"/>
      <point x="106" y="96" type="line" smooth="yes"/>
      <point x="106" y="69"/>
      <point x="97" y="59"/>
      <point x="71" y="59" type="curve" smooth="yes"/>
      <point x="39" y="59" type="line"/>
      <point x="39" y="0" type="line"/>
    </contour>
    <contour>
      <point x="471" y="-205"/>
      <point x="491" y="-200"/>
      <point x="505" y="-191" type="curve"/>
      <point x="505" y="-142" type="line"/>
      <point x="490" y="-147"/>
      <point x="474" y="-149"/>
      <point x="460" y="-149" type="curve" smooth="yes"/>
      <point x="433" y="-149"/>
      <point x="420" y="-134"/>
      <point x="420" y="-99" type="curve" smooth="yes"/>
      <point x="420" y="-60"/>
      <point x="437" y="-29"/>
      <point x="470" y="0" type="curve"/>
      <point x="404" y="0" type="line"/>
      <point x="373" y="-29"/>
      <point x="354" y="-66"/>
      <point x="354" y="-109" type="curve" smooth="yes"/>
      <point x="354" y="-175"/>
      <point x="393" y="-205"/>
      <point x="448" y="-205" type="curve" smooth="yes"/>
    </contour>
  </outline>
</glyph>
<glyph name="eogonek" format="1">
  <advance width="536"/>
  <unicode hex="0119"/>
  <note>
	eogonek
  </note>
  <outline>
    <contour>
      <point x="400" y="-204"/>
      <point x="417" y="-200"/>
      <point x="433" y="-191" type="curve"/>
      <point x="433" y="-142" type="line"/>
      <point x="418" y="-147"/>
      <point x="402" y="-149"/>
      <point x="387" y="-149" type="curve" smooth="yes"/>
      <point x="360" y="-149"/>
      <point x="347" y="-134"/>
      <point x="347" y="-99" type="curve" smooth="yes"/>
      <point x="347" y="-60"/>
      <point x="364" y="-29"/>
      <point x="397" y="0" type="curve"/>
      <point x="427" y="9"/>
      <point x="454" y="22"/>
      <point x="480" y="40" type="curve"/>
      <point x="480" y="103" type="line"/>
      <point x="407" y="103" type="line"/>
      <point x="407" y="72" type="line"/>
      <point x="377" y="53"/>
      <point x="342" y="45"/>
      <point x="282" y="45" type="curve" smooth="yes"/>
      <point x="193" y="45"/>
      <point x="119" y="89"/>
      <point x="119" y="215" type="curve"/>
      <point x="497" y="215" type="line"/>
      <point x="497" y="260" type="line" smooth="yes"/>
      <point x="497" y="401"/>
      <point x="427" y="495"/>
      <point x="277" y="495" type="curve" smooth="yes"/>
      <point x="128" y="495"/>
      <point x="39" y="410"/>
      <point x="39" y="233" type="curve" smooth="yes"/>
      <point x="39" y="65"/>
      <point x="144" y="-15"/>
      <point x="281" y="-15" type="curve" smooth="yes"/>
      <point x="293" y="-15"/>
      <point x="306" y="-15"/>
      <point x="317" y="-14" type="curve"/>
      <point x="294" y="-40"/>
      <point x="281" y="-72"/>
      <point x="281" y="-109" type="curve" smooth="yes"/>
      <point x="281" y="-178"/>
      <point x="323" y="-205"/>
      <point x="378" y="-205" type="curve"/>
    </contour>
    <contour>
      <point x="119" y="370"/>
      <point x="171" y="435"/>
      <point x="276" y="435" type="curve" smooth="yes"/>
      <point x="377" y="435"/>
      <point x="422" y="380"/>
      <point x="422" y="270" type="curve"/>
      <point x="119" y="270" type="line"/>
    </contour>
  </outline>
</glyph>
<glyph name="ecaron" format="1">
  <advance width="536"/>
  <unicode hex="011B"/>
  <note>
	ecaron
  </note>
  <outline>
    <contour>
      <point x="367" y="-15"/>
      <point x="425" y="3"/>
      <point x="480" y="40" type="curve"/>
      <point x="480" y="103" type="line"/>
      <point x="407" y="103" type="line"/>
      <point x="407" y="72" type="line"/>
      <point x="377" y="53"/>
      <point x="342" y="45"/>
      <point x="282" y="45" type="curve" smooth="yes"/>
      <point x="193" y="45"/>
      <point x="119" y="89"/>
      <point x="119" y="215" type="curve"/>
      <point x="497" y="215" type="line"/>
      <point x="497" y="260" type="line" smooth="yes"/>
      <point x="497" y="401"/>
      <point x="427" y="495"/>
      <point x="277" y="495" type="curve" smooth="yes"/>
      <point x="128" y="495"/>
      <point x="39" y="410"/>
      <point x="39" y="233" type="curve" smooth="yes"/>
      <point x="39" y="65"/>
      <point x="144" y="-15"/>
      <point x="281" y="-15" type="curve" smooth="yes"/>
    </contour>
    <contour>
      <point x="119" y="370"/>
      <point x="171" y="435"/>
      <point x="276" y="435" type="curve" smooth="yes"/>
      <point x="377" y="435"/>
      <point x="422" y="380"/>
      <point x="422" y="270" type="curve"/>
      <point x="119" y="270" type="line"/>
    </contour>
    <contour>
      <point x="328" y="527" type="line"/>
      <point x="448" y="710" type="line"/>
      <point x="369" y="710" type="line"/>
      <point x="285" y="577" type="line"/>
      <point x="201" y="710" type="line"/>
      <point x="122" y="710" type="line"/>
      <point x="242" y="527" type="line"/>
    </contour>
  </outline>
</glyph>
<glyph name="gcircumflex" format="1">
  <advance width="583"/>
  <unicode hex="011D"/>
  <note>
	gcircumflex
  </note>
  <outline>
    <contour>
      <point x="424" y="-200"/>
      <point x="498" y="-121"/>
      <point x="498" y="-3" type="curve" smooth="yes"/>
      <point x="498" y="386" type="line" smooth="yes"/>
      <point x="498" y="415"/>
      <point x="506" y="427"/>
      <point x="530" y="427" type="curve" smooth="yes"/>
      <point x="554" y="427" type="line"/>
      <point x="554" y="480" type="line"/>
      <point x="435" y="480" type="line"/>
      <point x="425" y="407" type="line"/>
      <point x="385" y="469"/>
      <point x="331" y="495"/>
      <point x="255" y="495" type="curve" smooth="yes"/>
      <point x="124" y="495"/>
      <point x="39" y="407"/>
      <point x="39" y="245" type="curve" smooth="yes"/>
      <point x="39" y="81"/>
      <point x="118" y="-11"/>
      <point x="250" y="-11" type="curve" smooth="yes"/>
      <point x="329" y="-11"/>
      <point x="382" y="11"/>
      <point x="420" y="70" type="curve"/>
      <point x="420" y="-13" type="line" smooth="yes"/>
      <point x="420" y="-93"/>
      <point x="387" y="-140"/>
      <point x="303" y="-140" type="curve" smooth="yes"/>
      <point x="256" y="-140"/>
      <point x="224" y="-131"/>
      <point x="198" y="-108" type="curve"/>
      <point x="198" y="-69" type="line"/>
      <point x="126" y="-69" type="line"/>
      <point x="126" y="-136" type="line"/>
      <point x="172" y="-177"/>
      <point x="227" y="-200"/>
      <point x="309" y="-200" type="curve" smooth="yes"/>
    </contour>
    <contour>
      <point x="165" y="49"/>
      <point x="116" y="108"/>
      <point x="116" y="245" type="curve" smooth="yes"/>
      <point x="116" y="376"/>
      <point x="168" y="435"/>
      <point x="268" y="435" type="curve" smooth="yes"/>
      <point x="363" y="435"/>
      <point x="420" y="365"/>
      <point x="420" y="264" type="curve" smooth="yes"/>
      <point x="420" y="213" type="line" smooth="yes"/>
      <point x="420" y="108"/>
      <point x="360" y="49"/>
      <point x="269" y="49" type="curve" smooth="yes"/>
    </contour>
    <contour>
      <point x="207" y="527" type="line"/>
      <point x="291" y="659" type="line"/>
      <point x="375" y="527" type="line"/>
      <point x="454" y="527" type="line"/>
      <point x="334" y="710" type="line"/>
      <point x="248" y="710" type="line"/>
      <point x="128" y="527" type="line"/>
    </contour>
  </outline>
</glyph>
<glyph name="Gbreve" format="1">
  <advance width="611"/>
  <unicode hex="011E"/>
  <note>
	Gbreve
  </note>
  <outline>
    <contour>
      <point x="438" y="-15"/>
      <point x="508" y="1"/>
      <point x="572" y="44" type="curve"/>
      <point x="572" y="333" type="line"/>
      <point x="347" y="333" type="line"/>
      <point x="347" y="273" type="line"/>
      <point x="493" y="273" type="line"/>
      <point x="493" y="70" type="line"/>
      <point x="451" y="52"/>
      <point x="408" y="45"/>
      <point x="353" y="45" type="curve" smooth="yes"/>
      <point x="205" y="45"/>
      <point x="116" y="148"/>
      <point x="116" y="320" type="curve" smooth="yes"/>
      <point x="116" y="496"/>
      <point x="198" y="602"/>
      <point x="345" y="602" type="curve" smooth="yes"/>
      <point x="399" y="602"/>
      <point x="440" y="594"/>
      <point x="472" y="577" type="curve"/>
      <point x="472" y="518" type="line"/>
      <point x="552" y="518" type="line"/>
      <point x="552" y="608" type="line"/>
      <point x="502" y="644"/>
      <point x="436" y="662"/>
      <point x="345" y="662" type="curve" smooth="yes"/>
      <point x="132" y="662"/>
      <point x="39" y="514"/>
      <point x="39" y="320" type="curve" smooth="yes"/>
      <point x="39" y="126"/>
      <point x="145" y="-15"/>
      <point x="351" y="-15" type="curve" smooth="yes"/>
    </contour>
    <contour>
      <point x="436" y="701"/>
      <point x="497" y="754"/>
      <point x="497" y="838" type="curve"/>
      <point x="432" y="838" type="line"/>
      <point x="432" y="785"/>
      <point x="400" y="757"/>
      <point x="348" y="757" type="curve" smooth="yes"/>
      <point x="297" y="757"/>
      <point x="263" y="785"/>
      <point x="263" y="838" type="curve"/>
      <point x="198" y="838" type="line"/>
      <point x="198" y="754"/>
      <point x="259" y="701"/>
      <point x="348" y="701" type="curve" smooth="yes"/>
    </contour>
  </outline>
</glyph>
